<?xml version="1.0" standalone="no"?>
<!DOCTYPE svg PUBLIC "-//W3C//DTD SVG 1.1//EN" "http://www.w3.org/Graphics/SVG/1.1/DTD/svg11.dtd" >
<svg xmlns="http://www.w3.org/2000/svg">
<metadata></metadata>
<defs>
<font id="SPLaksamanBook" horiz-adv-x="0" >
<font-face units-per-em="2048" ascent="1638" descent="-410" />
<missing-glyph horiz-adv-x="663" />
<glyph unicode="A&#x300;" horiz-adv-x="1230" d="M0 0l555 1489h123l555 -1489h-133l-170 471h-631l-166 -471h-133zM336 573h557l-277 783zM477 1870l121 33l154 -281h-97z" />
<glyph unicode="A&#x301;" horiz-adv-x="1230" d="M0 0l555 1489h123l555 -1489h-133l-170 471h-631l-166 -471h-133zM336 573h557l-277 783zM477 1622l154 281l121 -33l-181 -248h-94z" />
<glyph unicode="A&#x303;" horiz-adv-x="1230" d="M0 0l555 1489h123l555 -1489h-133l-170 471h-631l-166 -471h-133zM336 573h557l-277 783zM336 1622q2 100 47 142t102 42q49 0 132 -51t124 -51q51 0 62 108h78q-6 -184 -154 -184q-45 0 -131 50t-113 51q-10 0 -23 -7q-13 -6 -29 -32q-15 -27 -19 -68h-76z" />
<glyph unicode="E&#x300;" horiz-adv-x="1079" d="M166 0v1466h799v-102h-678v-539h604v-102h-604v-621h678v-102h-799zM403 1870l121 33l154 -281h-96z" />
<glyph unicode="E&#x301;" horiz-adv-x="1079" d="M166 0v1466h799v-102h-678v-539h604v-102h-604v-621h678v-102h-799zM403 1622l154 281l121 -33l-180 -248h-95z" />
<glyph unicode="I&#x300;" horiz-adv-x="452" d="M90 1870l121 33l154 -281h-97zM166 0v1466h121v-1466h-121z" />
<glyph unicode="I&#x301;" horiz-adv-x="452" d="M90 1622l154 281l121 -33l-181 -248h-94zM166 0v1466h121v-1466h-121z" />
<glyph unicode="O&#x300;" horiz-adv-x="1497" d="M68 729q0 332 188 547t494 215q303 0 491 -215q189 -215 189 -547t-188 -546q-187 -214 -492 -214q-303 0 -493 214q-189 214 -189 546zM188 729q0 -276 157 -466q157 -189 405 -189q246 0 402 190q157 190 157 465q0 276 -156 467q-156 190 -403 190q-248 0 -405 -190 q-157 -191 -157 -467zM610 1870l121 33l154 -281h-97z" />
<glyph unicode="O&#x301;" horiz-adv-x="1497" d="M68 729q0 332 188 547t494 215q303 0 491 -215q189 -215 189 -547t-188 -546q-187 -214 -492 -214q-303 0 -493 214q-189 214 -189 546zM188 729q0 -276 157 -466q157 -189 405 -189q246 0 402 190q157 190 157 465q0 276 -156 467q-156 190 -403 190q-248 0 -405 -190 q-157 -191 -157 -467zM610 1622l154 281l121 -33l-180 -248h-95z" />
<glyph unicode="O&#x303;" horiz-adv-x="1497" d="M68 729q0 332 188 547t494 215q303 0 491 -215q189 -215 189 -547t-188 -546q-187 -214 -492 -214q-303 0 -493 214q-189 214 -189 546zM188 729q0 -276 157 -466q157 -189 405 -189q246 0 402 190q157 190 157 465q0 276 -156 467q-156 190 -403 190q-248 0 -405 -190 q-157 -191 -157 -467zM469 1622q2 100 47 142t102 42q49 0 133 -51q83 -51 123 -51q51 0 62 108h78q-6 -184 -154 -184q-45 0 -131 50t-113 51q-10 0 -23 -7q-13 -6 -29 -32q-15 -27 -19 -68h-76z" />
<glyph unicode="U&#x300;" horiz-adv-x="1433" d="M166 618v848h121v-843q0 -137 28 -240q29 -102 72 -160q43 -57 103 -92t114 -46q53 -11 113 -11q432 0 432 534v858h121v-848q0 -647 -553 -647q-551 0 -551 647zM526 1870l121 33l154 -281h-96z" />
<glyph unicode="U&#x301;" horiz-adv-x="1433" d="M166 618v848h121v-843q0 -137 28 -240q29 -102 72 -160q43 -57 103 -92t114 -46q53 -11 113 -11q432 0 432 534v858h121v-848q0 -647 -553 -647q-551 0 -551 647zM610 1622l154 281l121 -33l-180 -248h-95z" />
<glyph unicode="Y&#x301;" horiz-adv-x="1126" d="M0 1466h139l424 -716l426 716h139l-505 -819v-647h-117v643zM471 1622l154 281l120 -33l-180 -248h-94z" />
<glyph unicode="a&#x300;" horiz-adv-x="1058" d="M80 262q0 391 682 391h18v19q0 115 -66 208q-67 93 -220 93q-113 0 -334 -70l-15 111q172 55 357 55q397 0 397 -438v-375q0 -129 37 -256l-107 -23l-43 170q-145 -176 -372 -176q-143 0 -239 80q-95 80 -95 211zM207 283q0 -113 66 -161q67 -48 149 -48q84 0 151 25 q68 26 105 62t61 76q25 40 33 65q8 26 8 36v211q-573 0 -573 -266zM391 1450l121 33l154 -281h-97z" />
<glyph unicode="a&#x301;" horiz-adv-x="1058" d="M80 262q0 391 682 391h18v19q0 115 -66 208q-67 93 -220 93q-113 0 -334 -70l-15 111q172 55 357 55q397 0 397 -438v-375q0 -129 37 -256l-107 -23l-43 170q-145 -176 -372 -176q-143 0 -239 80q-95 80 -95 211zM207 283q0 -113 66 -161q67 -48 149 -48q84 0 151 25 q68 26 105 62t61 76q25 40 33 65q8 26 8 36v211q-573 0 -573 -266zM391 1202l154 281l121 -33l-181 -248h-94z" />
<glyph unicode="a&#x303;" horiz-adv-x="1058" d="M80 262q0 391 682 391h18v19q0 115 -66 208q-67 93 -220 93q-113 0 -334 -70l-15 111q172 55 357 55q397 0 397 -438v-375q0 -129 37 -256l-107 -23l-43 170q-145 -176 -372 -176q-143 0 -239 80q-95 80 -95 211zM207 283q0 -113 66 -161q67 -48 149 -48q84 0 151 25 q68 26 105 62t61 76q25 40 33 65q8 26 8 36v211q-573 0 -573 -266zM250 1202q2 100 47 143q45 41 102 41q49 0 132 -51t124 -51q51 0 62 109h78q-6 -184 -154 -185q-45 0 -131 50t-113 51q-10 0 -23 -6t-29 -33q-15 -27 -19 -68h-76z" />
<glyph unicode="e&#x300;" horiz-adv-x="1150" d="M84 496q0 262 146 417q146 156 376 156q440 0 451 -551h-856q6 -213 125 -327t305 -113q188 0 366 69l11 -100q-176 -76 -390 -76q-246 0 -390 150t-144 375zM207 612h735q0 55 -16 112q-16 56 -54 116q-37 59 -109 96q-73 37 -171 37q-154 0 -258 -101 q-104 -100 -127 -260zM438 1450l121 33l154 -281h-97z" />
<glyph unicode="e&#x301;" horiz-adv-x="1150" d="M84 496q0 262 146 417q146 156 376 156q440 0 451 -551h-856q6 -213 125 -327t305 -113q188 0 366 69l11 -100q-176 -76 -390 -76q-246 0 -390 150t-144 375zM207 612h735q0 55 -16 112q-16 56 -54 116q-37 59 -109 96q-73 37 -171 37q-154 0 -258 -101 q-104 -100 -127 -260zM438 1202l154 281l121 -33l-181 -248h-94z" />
<glyph unicode="i&#x300;" horiz-adv-x="440" d="M84 1450l121 33l153 -281h-96zM160 0v1047h116v-1047h-116z" />
<glyph unicode="i&#x301;" horiz-adv-x="440" d="M84 1202l154 281l120 -33l-180 -248h-94zM160 0v1047h116v-1047h-116z" />
<glyph unicode="o&#x300;" horiz-adv-x="1224" d="M86 520q0 238 146 393q147 156 380 156q236 0 382 -156t147 -393q0 -238 -147 -394q-146 -157 -382 -157q-233 0 -380 157q-146 157 -146 394zM203 520q0 -190 113 -319q114 -129 296 -129t296 128t114 320q0 193 -114 320t-296 127t-296 -128t-113 -319zM475 1450 l121 33l154 -281h-97z" />
<glyph unicode="o&#x301;" horiz-adv-x="1224" d="M86 520q0 238 146 393q147 156 380 156q236 0 382 -156t147 -393q0 -238 -147 -394q-146 -157 -382 -157q-233 0 -380 157q-146 157 -146 394zM203 520q0 -190 113 -319q114 -129 296 -129t296 128t114 320q0 193 -114 320t-296 127t-296 -128t-113 -319zM475 1202 l154 281l121 -33l-181 -248h-94z" />
<glyph unicode="o&#x303;" horiz-adv-x="1224" d="M86 520q0 238 146 393q147 156 380 156q236 0 382 -156t147 -393q0 -238 -147 -394q-146 -157 -382 -157q-233 0 -380 157q-146 157 -146 394zM203 520q0 -190 113 -319q114 -129 296 -129t296 128t114 320q0 193 -114 320t-296 127t-296 -128t-113 -319zM334 1202 q2 100 47 143q45 41 102 41q49 0 132 -51t124 -51q51 0 62 109h78q-6 -184 -154 -185q-45 0 -131 50t-113 51q-10 0 -23 -6t-29 -33q-15 -27 -19 -68h-76z" />
<glyph unicode="u&#x300;" horiz-adv-x="1200" d="M160 459v588h121v-566q-1 -403 282 -403q137 0 248 91t111 245v633h118v-791q0 -111 54 -252l-115 -27q-37 109 -49 205q-135 -211 -393 -211q-377 0 -377 488zM463 1450l121 33l153 -281h-96z" />
<glyph unicode="u&#x301;" horiz-adv-x="1200" d="M160 459v588h121v-566q-1 -403 282 -403q137 0 248 91t111 245v633h118v-791q0 -111 54 -252l-115 -27q-37 109 -49 205q-135 -211 -393 -211q-377 0 -377 488zM463 1202l153 281l121 -33l-180 -248h-94z" />
<glyph unicode="y&#x301;" horiz-adv-x="1036" d="M10 1047h129l391 -887l367 887h131l-461 -1047q-182 -410 -483 -481l-29 96q262 59 398 420q0 12 -9 37zM383 1202l154 281l120 -33l-180 -248h-94z" />
<glyph unicode="I&#x303;" horiz-adv-x="452" d="M-51 1622q2 100 47 142t102 42q49 0 132 -51t124 -51q51 0 62 108h78q-6 -184 -154 -184q-45 0 -131 50t-113 51q-10 0 -23 -7q-13 -6 -29 -32q-15 -27 -19 -68h-76zM166 0v1466h121v-1466h-121z" />
<glyph unicode="i&#x303;" horiz-adv-x="440" d="M-57 1202q2 100 47 143q45 41 102 41q49 0 132 -51t124 -51q51 0 62 109h77q-6 -184 -153 -185q-45 0 -131 50t-113 51q-10 0 -23 -6t-29 -33q-15 -27 -20 -68h-75zM160 0v1047h116v-1047h-116z" />
<glyph unicode="U&#x303;" horiz-adv-x="1464" d="M182 618v848h121v-843q0 -137 29 -240q29 -102 71 -160q43 -57 104 -92q60 -35 114 -46q53 -11 112 -11q432 0 432 534v858h121v-848q0 -647 -553 -647q-551 0 -551 647zM453 1622q2 100 47 142t102 42q49 0 132 -51t124 -51q51 0 62 108h77q-6 -184 -153 -184 q-45 0 -131 50t-113 51q-10 0 -23 -7q-13 -6 -29 -32q-15 -27 -20 -68h-75z" />
<glyph unicode="u&#x303;" horiz-adv-x="1247" d="M160 459v588h121v-566q-1 -403 282 -403q137 0 248 91t111 245v633h118v-791q0 -111 54 -252l-115 -27q-37 109 -49 205q-135 -211 -393 -211q-377 0 -377 488zM342 1202q2 100 47 143q46 41 103 41q49 0 132 -51t124 -51q51 0 61 109h78q-6 -184 -154 -185 q-45 0 -131 50t-113 51q-10 0 -23 -6t-29 -33q-15 -27 -19 -68h-76z" />
<glyph unicode="A&#x323;" horiz-adv-x="1230" d="M0 0l555 1489h123l555 -1489h-133l-170 471h-631l-166 -471h-133zM336 573h557l-277 783zM526 -238q0 31 27 59q26 27 63 27q39 0 64 -26q25 -27 25 -60q0 -37 -25 -62q-25 -26 -64 -26t-64 26q-26 26 -26 62z" />
<glyph unicode="a&#x323;" horiz-adv-x="1058" d="M80 262q0 391 682 391h18v19q0 115 -66 208q-67 93 -220 93q-113 0 -334 -70l-15 111q172 55 357 55q397 0 397 -438v-375q0 -129 37 -256l-107 -23l-43 170q-145 -176 -372 -176q-143 0 -239 80q-95 80 -95 211zM207 283q0 -113 66 -161q67 -48 149 -48q84 0 151 25 q68 26 105 62t61 76q25 40 33 65q8 26 8 36v211q-573 0 -573 -266zM440 -238q0 31 27 59q26 27 63 27q39 0 64 -26q25 -27 24 -60q0 -37 -24 -62q-25 -26 -64 -26t-64 26q-26 26 -26 62z" />
<glyph unicode="A&#x309;" horiz-adv-x="1230" d="M0 0l555 1489h123l555 -1489h-133l-170 471h-631l-166 -471h-133zM336 573h557l-277 783zM438 1921q68 123 211 123q74 0 131 -40t58 -134q0 -51 -27 -95t-59 -68q-33 -24 -60 -51q-27 -28 -26 -52h-97q2 45 30 83t59 58q32 20 58 53t25 72q0 90 -106 90q-82 0 -139 -86z " />
<glyph unicode="a&#x309;" horiz-adv-x="1058" d="M80 262q0 391 682 391h18v19q0 115 -66 208q-67 93 -220 93q-113 0 -334 -70l-15 111q172 55 357 55q397 0 397 -438v-375q0 -129 37 -256l-107 -23l-43 170q-145 -176 -372 -176q-143 0 -239 80q-95 80 -95 211zM207 283q0 -113 66 -161q67 -48 149 -48q84 0 151 25 q68 26 105 62t61 76q25 40 33 65q8 26 8 36v211q-573 0 -573 -266zM351 1468q61 110 190 110q66 0 118 -36t51 -120q0 -46 -23 -86q-24 -40 -54 -61q-29 -21 -53 -46t-24 -47h-87q2 41 27 75t53 52q29 18 52 48q23 29 23 65q0 81 -96 81q-74 0 -125 -78z" />
<glyph unicode="&#xc2;&#x301;" horiz-adv-x="1230" d="M0 0l555 1489h123l555 -1489h-133l-170 471h-631l-166 -471h-133zM336 573h557l-277 783zM360 1628l211 240h88l211 -240h-112l-144 160l-141 -160h-113zM867 1786l138 253l109 -30l-162 -223h-85z" />
<glyph unicode="&#xe2;&#x301;" horiz-adv-x="1058" d="M80 262q0 391 682 391h18v19q0 115 -66 208q-67 93 -220 93q-113 0 -334 -70l-15 111q172 55 357 55q397 0 397 -438v-375q0 -129 37 -256l-107 -23l-43 170q-145 -176 -372 -176q-143 0 -239 80q-95 80 -95 211zM207 283q0 -113 66 -161q67 -48 149 -48q84 0 151 25 q68 26 105 62t61 76q25 40 33 65q8 26 8 36v211q-573 0 -573 -266zM274 1208l211 240h88l211 -240h-112l-144 160l-141 -160h-113zM744 1375l138 252l109 -29l-162 -223h-85z" />
<glyph unicode="&#xc2;&#x300;" horiz-adv-x="1230" d="M0 0l555 1489h123l555 -1489h-133l-170 471h-631l-166 -471h-133zM336 573h557l-277 783zM360 1628l211 240h88l211 -240h-112l-144 160l-141 -160h-113zM776 2009l109 30l138 -253h-87z" />
<glyph unicode="&#xe2;&#x300;" horiz-adv-x="1058" d="M80 262q0 391 682 391h18v19q0 115 -66 208q-67 93 -220 93q-113 0 -334 -70l-15 111q172 55 357 55q397 0 397 -438v-375q0 -129 37 -256l-107 -23l-43 170q-145 -176 -372 -176q-143 0 -239 80q-95 80 -95 211zM207 283q0 -113 66 -161q67 -48 149 -48q84 0 151 25 q68 26 105 62t61 76q25 40 33 65q8 26 8 36v211q-573 0 -573 -266zM274 1208l211 240h88l211 -240h-112l-144 160l-141 -160h-113zM667 1598l109 29l138 -252h-86z" />
<glyph unicode="&#xc2;&#x309;" horiz-adv-x="1230" d="M0 0l555 1489h123l555 -1489h-133l-170 471h-631l-166 -471h-133zM336 573h557l-277 783zM360 1628l211 240h88l211 -240h-112l-144 160l-141 -160h-113zM779 2066q61 110 190 110q66 0 118 -36t51 -120q0 -46 -23 -86q-24 -40 -54 -61q-29 -21 -53 -46t-24 -47h-87 q2 41 27 75t53 52q29 18 52 48q23 29 23 65q0 81 -96 81q-74 0 -125 -78z" />
<glyph unicode="&#xe2;&#x309;" horiz-adv-x="1058" d="M80 262q0 391 682 391h18v19q0 115 -66 208q-67 93 -220 93q-113 0 -334 -70l-15 111q172 55 357 55q397 0 397 -438v-375q0 -129 37 -256l-107 -23l-43 170q-145 -176 -372 -176q-143 0 -239 80q-95 80 -95 211zM207 283q0 -113 66 -161q67 -48 149 -48q84 0 151 25 q68 26 105 62t61 76q25 40 33 65q8 26 8 36v211q-573 0 -573 -266zM274 1208l211 240h88l211 -240h-112l-144 160l-141 -160h-113zM642 1689q61 111 190 111q66 0 118 -36t51 -121q0 -46 -24 -86t-53 -61t-54 -46q-24 -25 -24 -47h-86q2 41 27 75t53 52q29 18 52 48 q23 29 23 65q0 81 -96 81q-74 0 -126 -77z" />
<glyph unicode="&#xc2;&#x303;" horiz-adv-x="1230" d="M0 0l555 1489h123l555 -1489h-133l-170 471h-631l-166 -471h-133zM336 573h557l-277 783zM342 1948q2 100 47 142q46 42 103 42q49 0 132 -51t124 -51q51 0 61 108h78q-6 -184 -154 -184q-45 0 -131 50t-113 50q-10 0 -23 -6t-29 -33q-15 -27 -19 -67h-76zM360 1628 l211 240h88l211 -240h-112l-144 160l-141 -160h-113z" />
<glyph unicode="&#xe2;&#x303;" horiz-adv-x="1058" d="M80 262q0 391 682 391h18v19q0 115 -66 208q-67 93 -220 93q-113 0 -334 -70l-15 111q172 55 357 55q397 0 397 -438v-375q0 -129 37 -256l-107 -23l-43 170q-145 -176 -372 -176q-143 0 -239 80q-95 80 -95 211zM207 283q0 -113 66 -161q67 -48 149 -48q84 0 151 25 q68 26 105 62t61 76q25 40 33 65q8 26 8 36v211q-573 0 -573 -266zM256 1526q2 100 47 142q46 42 103 42q49 0 132 -51t124 -51q51 0 61 108h78q-6 -184 -154 -184q-45 0 -131 50t-113 50q-10 0 -23 -6t-29 -33q-15 -27 -19 -67h-76zM274 1208l211 240h88l211 -240h-112 l-144 160l-141 -160h-113z" />
<glyph unicode="&#xc2;&#x323;" horiz-adv-x="1230" d="M0 0l555 1489h123l555 -1489h-133l-170 471h-631l-166 -471h-133zM336 573h557l-277 783zM360 1628l211 240h88l211 -240h-112l-144 160l-141 -160h-113zM526 -238q0 31 27 59q26 27 63 27q39 0 64 -26q25 -27 25 -60q0 -37 -25 -62q-25 -26 -64 -26t-64 26 q-26 26 -26 62z" />
<glyph unicode="&#xe2;&#x323;" horiz-adv-x="1058" d="M80 262q0 391 682 391h18v19q0 115 -66 208q-67 93 -220 93q-113 0 -334 -70l-15 111q172 55 357 55q397 0 397 -438v-375q0 -129 37 -256l-107 -23l-43 170q-145 -176 -372 -176q-143 0 -239 80q-95 80 -95 211zM207 283q0 -113 66 -161q67 -48 149 -48q84 0 151 25 q68 26 105 62t61 76q25 40 33 65q8 26 8 36v211q-573 0 -573 -266zM274 1208l211 240h88l211 -240h-112l-144 160l-141 -160h-113zM440 -238q0 31 27 59q26 27 63 27q39 0 64 -26q25 -27 24 -60q0 -37 -24 -62q-25 -26 -64 -26t-64 26q-26 26 -26 62z" />
<glyph unicode="&#x102;&#x301;" horiz-adv-x="1230" d="M0 0l555 1489h123l555 -1489h-133l-170 471h-631l-166 -471h-133zM336 573h557l-277 783zM338 1815h108q43 -113 170 -113q70 0 111 35t57 78h107q-18 -94 -93 -152q-75 -57 -182 -57q-98 0 -176 50t-102 159zM549 1844l139 252l108 -29l-162 -223h-85z" />
<glyph unicode="&#x103;&#x301;" horiz-adv-x="1058" d="M80 262q0 391 682 391h18v19q0 115 -66 208q-67 93 -220 93q-113 0 -334 -70l-15 111q172 55 357 55q397 0 397 -438v-375q0 -129 37 -256l-107 -23l-43 170q-145 -176 -372 -176q-143 0 -239 80q-95 80 -95 211zM207 283q0 -113 66 -161q67 -48 149 -48q84 0 151 25 q68 26 105 62t61 76q25 40 33 65q8 26 8 36v211q-573 0 -573 -266zM252 1395h108q43 -113 170 -113q70 0 111 35t57 78h107q-18 -94 -93 -152q-75 -57 -182 -57q-98 0 -176 50t-102 159zM468 1432l138 253l109 -30l-163 -223h-84z" />
<glyph unicode="&#x102;&#x300;" horiz-adv-x="1230" d="M0 0l555 1489h123l555 -1489h-133l-170 471h-631l-166 -471h-133zM336 573h557l-277 783zM338 1815h108q43 -113 170 -113q70 0 111 35t57 78h107q-18 -94 -93 -152q-75 -57 -182 -57q-98 0 -176 50t-102 159zM434 2073l109 29l138 -252h-87z" />
<glyph unicode="&#x103;&#x300;" horiz-adv-x="1058" d="M80 262q0 391 682 391h18v19q0 115 -66 208q-67 93 -220 93q-113 0 -334 -70l-15 111q172 55 357 55q397 0 397 -438v-375q0 -129 37 -256l-107 -23l-43 170q-145 -176 -372 -176q-143 0 -239 80q-95 80 -95 211zM207 283q0 -113 66 -161q67 -48 149 -48q84 0 151 25 q68 26 105 62t61 76q25 40 33 65q8 26 8 36v211q-573 0 -573 -266zM252 1395h108q43 -113 170 -113q70 0 111 35t57 78h107q-18 -94 -93 -152q-75 -57 -182 -57q-98 0 -176 50t-102 159zM348 1653l109 30l138 -253h-87z" />
<glyph unicode="&#x102;&#x309;" horiz-adv-x="1230" d="M0 0l555 1489h123l555 -1489h-133l-170 471h-631l-166 -471h-133zM336 573h557l-277 783zM338 1815h108q43 -113 170 -113q70 0 111 35t57 78h107q-18 -94 -93 -152q-75 -57 -182 -57q-98 0 -176 50t-102 159zM437 2137q61 111 190 111q66 0 118 -36t51 -121 q0 -46 -23 -85q-24 -40 -54 -61q-29 -21 -53 -46t-24 -47h-87q2 41 27 74q25 34 53 53q29 18 52 48q23 29 23 64q0 81 -96 81q-74 0 -125 -77z" />
<glyph unicode="&#x103;&#x309;" horiz-adv-x="1058" d="M80 262q0 391 682 391h18v19q0 115 -66 208q-67 93 -220 93q-113 0 -334 -70l-15 111q172 55 357 55q397 0 397 -438v-375q0 -129 37 -256l-107 -23l-43 170q-145 -176 -372 -176q-143 0 -239 80q-95 80 -95 211zM207 283q0 -113 66 -161q67 -48 149 -48q84 0 151 25 q68 26 105 62t61 76q25 40 33 65q8 26 8 36v211q-573 0 -573 -266zM252 1395h108q43 -113 170 -113q70 0 111 35t57 78h107q-18 -94 -93 -152q-75 -57 -182 -57q-98 0 -176 50t-102 159zM355 1728q61 110 190 110q66 0 118 -36t52 -120q0 -46 -24 -86t-54 -61 q-29 -21 -53 -46t-24 -47h-87q2 41 27 75t53 52q29 18 52 48q23 29 23 65q0 81 -96 81q-74 0 -125 -78z" />
<glyph unicode="&#x102;&#x303;" horiz-adv-x="1230" d="M0 0l555 1489h123l555 -1489h-133l-170 471h-631l-166 -471h-133zM336 573h557l-277 783zM336 1917q2 100 47 142t102 42q49 0 132 -51t124 -51q51 0 62 108h78q-6 -184 -154 -184q-45 0 -131 50t-113 50q-10 0 -23 -6t-29 -32q-15 -27 -19 -68h-76zM338 1815h108 q43 -113 170 -113q70 0 111 35t57 78h107q-18 -94 -93 -152q-75 -57 -182 -57q-98 0 -176 50t-102 159z" />
<glyph unicode="&#x103;&#x303;" horiz-adv-x="1058" d="M80 262q0 391 682 391h18v19q0 115 -66 208q-67 93 -220 93q-113 0 -334 -70l-15 111q172 55 357 55q397 0 397 -438v-375q0 -129 37 -256l-107 -23l-43 170q-145 -176 -372 -176q-143 0 -239 80q-95 80 -95 211zM207 283q0 -113 66 -161q67 -48 149 -48q84 0 151 25 q68 26 105 62t61 76q25 40 33 65q8 26 8 36v211q-573 0 -573 -266zM250 1491q2 100 47 142t102 42q49 0 132 -51t124 -51q51 0 62 108h78q-6 -184 -154 -184q-45 0 -131 50t-113 50q-10 0 -23 -6t-29 -32q-15 -27 -19 -68h-76zM252 1395h108q43 -113 170 -113q70 0 111 35 t57 78h107q-18 -94 -93 -152q-75 -57 -182 -57q-98 0 -176 50t-102 159z" />
<glyph unicode="&#x102;&#x323;" horiz-adv-x="1230" d="M0 0l555 1489h123l555 -1489h-133l-170 471h-631l-166 -471h-133zM336 573h557l-277 783zM338 1815h108q43 -113 170 -113q70 0 111 35t57 78h107q-18 -94 -93 -152q-75 -57 -182 -57q-98 0 -176 50t-102 159zM526 -238q0 31 27 59q26 27 63 27q39 0 64 -26 q25 -27 25 -60q0 -37 -25 -62q-25 -26 -64 -26t-64 26q-26 26 -26 62z" />
<glyph unicode="&#x103;&#x323;" horiz-adv-x="1058" d="M80 262q0 391 682 391h18v19q0 115 -66 208q-67 93 -220 93q-113 0 -334 -70l-15 111q172 55 357 55q397 0 397 -438v-375q0 -129 37 -256l-107 -23l-43 170q-145 -176 -372 -176q-143 0 -239 80q-95 80 -95 211zM207 283q0 -113 66 -161q67 -48 149 -48q84 0 151 25 q68 26 105 62t61 76q25 40 33 65q8 26 8 36v211q-573 0 -573 -266zM252 1395h108q43 -113 170 -113q70 0 111 35t57 78h107q-18 -94 -93 -152q-75 -57 -182 -57q-98 0 -176 50t-102 159zM440 -238q0 31 27 59q26 27 63 27q39 0 64 -26q25 -27 24 -60q0 -37 -24 -62 q-25 -26 -64 -26t-64 26q-26 26 -26 62z" />
<glyph unicode="E&#x323;" horiz-adv-x="1079" d="M166 0v1466h799v-102h-678v-539h604v-102h-604v-621h678v-102h-799zM451 -238q0 31 26 59q27 27 64 27q39 0 63 -26q25 -27 25 -60q0 -37 -25 -62q-25 -26 -63 -26q-39 0 -65 26t-25 62z" />
<glyph unicode="e&#x323;" horiz-adv-x="1150" d="M84 496q0 262 146 417q146 156 376 156q440 0 451 -551h-856q6 -213 125 -327t305 -113q188 0 366 69l11 -100q-176 -76 -390 -76q-246 0 -390 150t-144 375zM207 612h735q0 55 -16 112q-16 56 -54 116q-37 59 -109 96q-73 37 -171 37q-154 0 -258 -101 q-104 -100 -127 -260zM487 -238q0 31 27 59q27 27 64 27q39 0 63 -26q25 -27 25 -60q0 -37 -25 -62q-25 -26 -63 -26q-39 0 -65 26t-26 62z" />
<glyph unicode="E&#x309;" horiz-adv-x="1079" d="M166 0v1466h799v-102h-678v-539h604v-102h-604v-621h678v-102h-799zM365 1921q67 123 210 123q74 0 132 -40q57 -40 57 -134q0 -51 -27 -95t-59 -68q-33 -24 -60 -51q-27 -28 -26 -52h-96q2 45 29 83q28 38 60 58t57 53q26 33 26 72q0 90 -107 90q-82 0 -139 -86z" />
<glyph unicode="e&#x309;" horiz-adv-x="1150" d="M84 496q0 262 146 417q146 156 376 156q440 0 451 -551h-856q6 -213 125 -327t305 -113q188 0 366 69l11 -100q-176 -76 -390 -76q-246 0 -390 150t-144 375zM207 612h735q0 55 -16 112q-16 56 -54 116q-37 59 -109 96q-73 37 -171 37q-154 0 -258 -101 q-104 -100 -127 -260zM398 1468q61 110 190 110q66 0 118 -36t52 -120q0 -46 -24 -86t-54 -61q-29 -21 -53 -46t-24 -47h-87q2 41 27 75t53 52q29 18 52 48q23 29 23 65q0 81 -96 81q-74 0 -125 -78z" />
<glyph unicode="E&#x303;" horiz-adv-x="1079" d="M166 0v1466h799v-102h-678v-539h604v-102h-604v-621h678v-102h-799zM262 1622q2 100 47 142q46 42 103 42q49 0 132 -51t124 -51q51 0 61 108h78q-6 -184 -154 -184q-45 0 -131 50t-112 51q-10 0 -24 -7q-13 -6 -29 -32q-15 -27 -19 -68h-76z" />
<glyph unicode="e&#x303;" horiz-adv-x="1150" d="M84 403q0 262 146 418t376 156q440 0 451 -551h-856q6 -213 125 -327t305 -113q188 0 366 69l11 -100q-176 -76 -390 -76q-246 0 -390 150t-144 374zM207 520h735q0 55 -16 112q-16 56 -54 116q-37 59 -109 96q-73 37 -171 37q-154 0 -258 -101q-104 -100 -127 -260z M297 1110q2 100 47 142t102 42q49 0 133 -51q83 -51 123 -51q51 0 62 108h78q-6 -184 -154 -184q-45 0 -131 50t-113 51q-10 0 -23 -7q-13 -6 -29 -32q-15 -27 -19 -68h-76z" />
<glyph unicode="&#xca;&#x301;" horiz-adv-x="1079" d="M166 0v1466h799v-102h-678v-539h604v-102h-604v-621h678v-102h-799zM285 1628l211 240h88l211 -240h-113l-143 160l-142 -160h-112zM760 1786l139 253l108 -30l-162 -223h-85z" />
<glyph unicode="&#xea;&#x301;" horiz-adv-x="1150" d="M84 496q0 262 146 417q146 156 376 156q440 0 451 -551h-856q6 -213 125 -327t305 -113q188 0 366 69l11 -100q-176 -76 -390 -76q-246 0 -390 150t-144 375zM207 612h735q0 55 -16 112q-16 56 -54 116q-37 59 -109 96q-73 37 -171 37q-154 0 -258 -101 q-104 -100 -127 -260zM322 1208l210 240h89l210 -240h-112l-144 160l-141 -160h-112zM828 1375l138 252l109 -29l-162 -223h-85z" />
<glyph unicode="&#xca;&#x300;" horiz-adv-x="1079" d="M166 0v1466h799v-102h-678v-539h604v-102h-604v-621h678v-102h-799zM285 1628l211 240h88l211 -240h-113l-143 160l-142 -160h-112zM669 2009l109 30l138 -253h-86z" />
<glyph unicode="&#xea;&#x300;" horiz-adv-x="1150" d="M84 496q0 262 146 417q146 156 376 156q440 0 451 -551h-856q6 -213 125 -327t305 -113q188 0 366 69l11 -100q-176 -76 -390 -76q-246 0 -390 150t-144 375zM207 612h735q0 55 -16 112q-16 56 -54 116q-37 59 -109 96q-73 37 -171 37q-154 0 -258 -101 q-104 -100 -127 -260zM322 1208l210 240h89l210 -240h-112l-144 160l-141 -160h-112zM715 1595l121 33l153 -280h-96z" />
<glyph unicode="&#xca;&#x309;" horiz-adv-x="1079" d="M166 0v1466h799v-102h-678v-539h604v-102h-604v-621h678v-102h-799zM285 1628l211 240h88l211 -240h-113l-143 160l-142 -160h-112zM693 2066q61 110 190 110q66 0 118 -36t51 -120q0 -46 -23 -86q-24 -40 -54 -61q-29 -21 -53 -46t-24 -47h-87q2 41 27 75t53 52 q29 18 52 48q23 29 23 65q0 81 -96 81q-74 0 -125 -78z" />
<glyph unicode="&#xea;&#x309;" horiz-adv-x="1150" d="M84 496q0 262 146 417q146 156 376 156q440 0 451 -551h-856q6 -213 125 -327t305 -113q188 0 366 69l11 -100q-176 -76 -390 -76q-246 0 -390 150t-144 375zM207 612h735q0 55 -16 112q-16 56 -54 116q-37 59 -109 96q-73 37 -171 37q-154 0 -258 -101 q-104 -100 -127 -260zM322 1208l210 240h89l210 -240h-112l-144 160l-141 -160h-112zM718 1689q60 111 189 111q66 0 118 -36t52 -121q0 -46 -24 -86t-53 -61t-54 -46q-24 -25 -24 -47h-86q2 41 26 75q25 34 54 52t51 48q23 29 23 65q0 81 -95 81q-74 0 -126 -77z" />
<glyph unicode="&#xca;&#x303;" horiz-adv-x="1079" d="M166 0v1466h799v-102h-678v-539h604v-102h-604v-621h678v-102h-799zM260 1948q2 100 47 142q46 42 103 42q49 0 132 -51t124 -51q51 0 61 108h78q-6 -184 -154 -184q-45 0 -131 50t-112 50q-10 0 -24 -6q-13 -6 -29 -33q-15 -27 -19 -67h-76zM285 1628l211 240h88 l211 -240h-113l-143 160l-142 -160h-112z" />
<glyph unicode="&#xea;&#x303;" horiz-adv-x="1150" d="M84 496q0 262 146 417q146 156 376 156q440 0 451 -551h-856q6 -213 125 -327t305 -113q188 0 366 69l11 -100q-176 -76 -390 -76q-246 0 -390 150t-144 375zM207 612h735q0 55 -16 112q-16 56 -54 116q-37 59 -109 96q-73 37 -171 37q-154 0 -258 -101 q-104 -100 -127 -260zM297 1526q2 100 47 142t102 42q49 0 133 -51q83 -51 123 -51q51 0 62 108h78q-6 -184 -154 -184q-45 0 -131 50t-113 50q-10 0 -23 -6t-29 -33q-15 -27 -19 -67h-76zM322 1208l210 240h89l210 -240h-112l-144 160l-141 -160h-112z" />
<glyph unicode="&#xca;&#x323;" horiz-adv-x="1079" d="M166 0v1466h799v-102h-678v-539h604v-102h-604v-621h678v-102h-799zM285 1628l211 240h88l211 -240h-113l-143 160l-142 -160h-112zM451 -238q0 31 26 59q27 27 64 27q39 0 63 -26q25 -27 25 -60q0 -37 -25 -62q-25 -26 -63 -26q-39 0 -65 26t-25 62z" />
<glyph unicode="&#xea;&#x323;" horiz-adv-x="1150" d="M84 496q0 262 146 417q146 156 376 156q440 0 451 -551h-856q6 -213 125 -327t305 -113q188 0 366 69l11 -100q-176 -76 -390 -76q-246 0 -390 150t-144 375zM207 612h735q0 55 -16 112q-16 56 -54 116q-37 59 -109 96q-73 37 -171 37q-154 0 -258 -101 q-104 -100 -127 -260zM322 1208l210 240h89l210 -240h-112l-144 160l-141 -160h-112zM487 -238q0 31 27 59q27 27 64 27q39 0 63 -26q25 -27 25 -60q0 -37 -25 -62q-25 -26 -63 -26q-39 0 -65 26t-26 62z" />
<glyph unicode="I&#x309;" horiz-adv-x="452" d="M51 1921q68 123 211 123q74 0 131 -40t58 -134q0 -51 -27 -95t-59 -68q-33 -24 -60 -51q-27 -28 -26 -52h-97q2 45 30 83t59 58q32 20 58 53t25 72q0 90 -106 90q-82 0 -139 -86zM166 0v1466h121v-1466h-121z" />
<glyph unicode="i&#x309;" horiz-adv-x="440" d="M45 1501q68 123 211 123q74 0 131 -40t57 -134q0 -51 -26 -95q-27 -44 -60 -68t-59 -51q-27 -28 -27 -52h-96q2 45 30 83t59 58q32 20 58 53t25 72q0 90 -106 90q-82 0 -140 -86zM160 0v1047h116v-1047h-116z" />
<glyph unicode="I&#x323;" horiz-adv-x="452" d="M139 -238q0 31 27 59q26 27 63 27q39 0 64 -26q25 -27 24 -60q0 -37 -24 -62q-25 -26 -64 -26t-64 26q-26 26 -26 62zM166 0v1466h121v-1466h-121z" />
<glyph unicode="i&#x323;" horiz-adv-x="440" d="M121 1364q0 45 25 72q26 26 69 26q45 0 72 -27q27 -28 26 -71q0 -43 -26 -69q-27 -26 -72 -25q-51 0 -73 29q-22 30 -21 65zM133 -238q0 31 27 59q26 27 63 27q39 0 64 -26q25 -27 24 -60q0 -37 -24 -62q-25 -26 -64 -26t-64 26q-26 26 -26 62zM160 0v1047h121v-1047 h-121z" />
<glyph unicode="O&#x323;" horiz-adv-x="1497" d="M68 729q0 332 188 547t494 215q303 0 491 -215q189 -215 189 -547t-188 -546q-187 -214 -492 -214q-303 0 -493 214q-189 214 -189 546zM188 729q0 -276 157 -466q157 -189 405 -189q246 0 402 190q157 190 157 465q0 276 -156 467q-156 190 -403 190q-248 0 -405 -190 q-157 -191 -157 -467zM659 -238q0 31 27 59q27 27 64 27q39 0 63 -26q25 -27 25 -60q0 -37 -25 -62q-25 -26 -63 -26q-39 0 -65 26t-26 62z" />
<glyph unicode="o&#x323;" horiz-adv-x="1224" d="M86 520q0 238 146 393q147 156 380 156q236 0 382 -156t147 -393q0 -238 -147 -394q-146 -157 -382 -157q-233 0 -380 157q-146 157 -146 394zM203 520q0 -190 113 -319q114 -129 296 -129t296 128t114 320q0 193 -114 320t-296 127t-296 -128t-113 -319zM524 -238 q0 31 27 59q26 27 63 27q39 0 64 -26q25 -27 24 -60q0 -37 -24 -62q-25 -26 -64 -26t-64 26q-26 26 -26 62z" />
<glyph unicode="O&#x309;" horiz-adv-x="1497" d="M68 729q0 332 188 547t494 215q303 0 491 -215q189 -215 189 -547t-188 -546q-187 -214 -492 -214q-303 0 -493 214q-189 214 -189 546zM188 729q0 -276 157 -466q157 -189 405 -189q246 0 402 190q157 190 157 465q0 276 -156 467q-156 190 -403 190q-248 0 -405 -190 q-157 -191 -157 -467zM571 1921q68 123 211 123q74 0 131 -40t58 -134q0 -51 -27 -95t-59 -68q-33 -24 -60 -51q-27 -28 -26 -52h-97q2 45 30 83t60 58t57 53q26 33 25 72q0 90 -106 90q-82 0 -139 -86z" />
<glyph unicode="o&#x309;" horiz-adv-x="1224" d="M86 520q0 238 146 393q147 156 380 156q236 0 382 -156t147 -393q0 -238 -147 -394q-146 -157 -382 -157q-233 0 -380 157q-146 157 -146 394zM203 520q0 -190 113 -319q114 -129 296 -129t296 128t114 320q0 193 -114 320t-296 127t-296 -128t-113 -319zM436 1501 q68 123 211 123q74 0 131 -40t58 -134q0 -51 -27 -95t-59 -68q-33 -24 -60 -51q-27 -28 -26 -52h-97q2 45 30 83t59 58q32 20 58 53t25 72q0 90 -106 90q-82 0 -139 -86z" />
<glyph unicode="&#xd4;&#x301;" horiz-adv-x="1497" d="M68 729q0 332 188 547t494 215q303 0 491 -215q189 -215 189 -547t-188 -546q-187 -214 -492 -214q-303 0 -493 214q-189 214 -189 546zM188 729q0 -276 157 -466q157 -189 405 -189q246 0 402 190q157 190 157 465q0 276 -156 467q-156 190 -403 190q-248 0 -405 -190 q-157 -191 -157 -467zM494 1628l211 240h88l211 -240h-113l-143 160l-142 -160h-112zM1033 1786l138 253l109 -30l-162 -223h-85z" />
<glyph unicode="&#xf4;&#x301;" horiz-adv-x="1224" d="M86 520q0 238 146 393q147 156 380 156q236 0 382 -156t147 -393q0 -238 -147 -394q-146 -157 -382 -157q-233 0 -380 157q-146 157 -146 394zM203 520q0 -190 113 -319q114 -129 296 -129t296 128t114 320q0 193 -114 320t-296 127t-296 -128t-113 -319zM358 1208 l211 240h88l211 -240h-112l-144 160l-141 -160h-113zM873 1375l138 252l109 -29l-162 -223h-85z" />
<glyph unicode="&#xd4;&#x300;" horiz-adv-x="1497" d="M68 729q0 332 188 547t494 215q303 0 491 -215q189 -215 189 -547t-188 -546q-187 -214 -492 -214q-303 0 -493 214q-189 214 -189 546zM188 729q0 -276 157 -466q157 -189 405 -189q246 0 402 190q157 190 157 465q0 276 -156 467q-156 190 -403 190q-248 0 -405 -190 q-157 -191 -157 -467zM494 1628l211 240h88l211 -240h-113l-143 160l-142 -160h-112zM938 2009l108 30l139 -253h-87z" />
<glyph unicode="&#xf4;&#x300;" horiz-adv-x="1224" d="M86 520q0 238 146 393q147 156 380 156q236 0 382 -156t147 -393q0 -238 -147 -394q-146 -157 -382 -157q-233 0 -380 157q-146 157 -146 394zM203 520q0 -190 113 -319q114 -129 296 -129t296 128t114 320q0 193 -114 320t-296 127t-296 -128t-113 -319zM358 1208 l211 240h88l211 -240h-112l-144 160l-141 -160h-113zM784 1598l109 29l138 -252h-87z" />
<glyph unicode="&#xd4;&#x309;" horiz-adv-x="1497" d="M68 729q0 332 188 547t494 215q303 0 491 -215q189 -215 189 -547t-188 -546q-187 -214 -492 -214q-303 0 -493 214q-189 214 -189 546zM188 729q0 -276 157 -466q157 -189 405 -189q246 0 402 190q157 190 157 465q0 276 -156 467q-156 190 -403 190q-248 0 -405 -190 q-157 -191 -157 -467zM494 1628l211 240h88l211 -240h-113l-143 160l-142 -160h-112zM916 2066q61 110 190 110q66 0 118 -36t52 -120q0 -46 -24 -86t-54 -61q-29 -21 -53 -46t-24 -47h-87q2 41 27 75t53 52q29 18 52 48q23 29 23 65q0 81 -96 81q-74 0 -125 -78z" />
<glyph unicode="&#xf4;&#x309;" horiz-adv-x="1224" d="M86 520q0 238 146 393q147 156 380 156q236 0 382 -156t147 -393q0 -238 -147 -394q-146 -157 -382 -157q-233 0 -380 157q-146 157 -146 394zM203 520q0 -190 113 -319q114 -129 296 -129t296 128t114 320q0 193 -114 320t-296 127t-296 -128t-113 -319zM358 1208 l211 240h88l211 -240h-112l-144 160l-141 -160h-113zM746 1689q61 111 190 111q66 0 118 -36t52 -121q0 -46 -24 -86t-54 -61q-29 -21 -53 -46t-24 -47h-87q2 41 27 75t53 52q29 18 52 48q23 29 23 65q0 81 -96 81q-74 0 -125 -77z" />
<glyph unicode="&#xd4;&#x303;" horiz-adv-x="1497" d="M68 729q0 332 188 547t494 215q303 0 491 -215q189 -215 189 -547t-188 -546q-187 -214 -492 -214q-303 0 -493 214q-189 214 -189 546zM188 729q0 -276 157 -466q157 -189 405 -189q246 0 402 190q157 190 157 465q0 276 -156 467q-156 190 -403 190q-248 0 -405 -190 q-157 -191 -157 -467zM469 1948q2 100 47 142t102 42q49 0 133 -51q83 -51 123 -51q51 0 62 108h78q-6 -184 -154 -184q-45 0 -131 50t-113 50q-10 0 -23 -6t-29 -33q-15 -27 -19 -67h-76zM494 1628l211 240h88l211 -240h-113l-143 160l-142 -160h-112z" />
<glyph unicode="&#xf4;&#x303;" horiz-adv-x="1224" d="M86 520q0 238 146 393q147 156 380 156q236 0 382 -156t147 -393q0 -238 -147 -394q-146 -157 -382 -157q-233 0 -380 157q-146 157 -146 394zM203 520q0 -190 113 -319q114 -129 296 -129t296 128t114 320q0 193 -114 320t-296 127t-296 -128t-113 -319zM334 1526 q2 100 47 142t102 42q49 0 132 -51t124 -51q51 0 62 108h78q-6 -184 -154 -184q-45 0 -131 50t-113 50q-10 0 -23 -6t-29 -33q-15 -27 -19 -67h-76zM358 1208l211 240h88l211 -240h-112l-144 160l-141 -160h-113z" />
<glyph unicode="&#xd4;&#x323;" horiz-adv-x="1497" d="M68 729q0 332 188 547t494 215q303 0 491 -215q189 -215 189 -547t-188 -546q-187 -214 -492 -214q-303 0 -493 214q-189 214 -189 546zM188 729q0 -276 157 -466q157 -189 405 -189q246 0 402 190q157 190 157 465q0 276 -156 467q-156 190 -403 190q-248 0 -405 -190 q-157 -191 -157 -467zM494 1628l211 240h88l211 -240h-113l-143 160l-142 -160h-112zM659 -238q0 31 27 59q27 27 64 27q39 0 63 -26q25 -27 25 -60q0 -37 -25 -62q-25 -26 -63 -26q-39 0 -65 26t-26 62z" />
<glyph unicode="&#xf4;&#x323;" horiz-adv-x="1224" d="M86 520q0 238 146 393q147 156 380 156q236 0 382 -156t147 -393q0 -238 -147 -394q-146 -157 -382 -157q-233 0 -380 157q-146 157 -146 394zM203 520q0 -190 113 -319q114 -129 296 -129t296 128t114 320q0 193 -114 320t-296 127t-296 -128t-113 -319zM358 1208 l211 240h88l211 -240h-112l-144 160l-141 -160h-113zM524 -238q0 31 27 59q26 27 63 27q39 0 64 -26q25 -27 24 -60q0 -37 -24 -62q-25 -26 -64 -26t-64 26q-26 26 -26 62z" />
<glyph unicode="&#x1a0;&#x301;" horiz-adv-x="1497" d="M68 729q0 332 188 547t494 215q264 0 452 -176q129 139 129 291h99q0 -66 -45 -163q-44 -97 -134 -179q179 -211 179 -535q0 -332 -188 -546q-187 -214 -492 -214q-303 0 -493 214q-189 214 -189 546zM188 729q0 -276 157 -466q157 -189 405 -189q246 0 402 190 q157 190 157 465q0 276 -156 467q-156 190 -403 190q-248 0 -405 -190q-157 -191 -157 -467zM598 1622l154 281l120 -33l-180 -248h-94z" />
<glyph unicode="&#x1a1;&#x301;" horiz-adv-x="1224" d="M86 520q0 238 146 393q146 156 380 156q205 0 355 -133q113 106 120 291h103q-6 -188 -174 -342q125 -156 125 -365q0 -238 -147 -394q-146 -157 -382 -157q-233 0 -380 157q-146 156 -146 394zM203 520q0 -190 113 -319q114 -129 296 -129t296 128t114 320 q0 193 -114 320t-296 127t-296 -128t-113 -319zM463 1202l153 281l121 -33l-180 -248h-94z" />
<glyph unicode="&#x1a0;&#x300;" horiz-adv-x="1497" d="M68 729q0 332 188 547t494 215q264 0 452 -176q129 139 129 291h99q0 -66 -45 -163q-44 -97 -134 -179q179 -211 179 -535q0 -332 -188 -546q-187 -214 -492 -214q-303 0 -493 214q-189 214 -189 546zM188 729q0 -276 157 -466q157 -189 405 -189q246 0 402 190 q157 190 157 465q0 276 -156 467q-156 190 -403 190q-248 0 -405 -190q-157 -191 -157 -467zM629 1870l121 33l153 -281h-96z" />
<glyph unicode="&#x1a1;&#x300;" horiz-adv-x="1224" d="M86 520q0 238 146 393q146 156 380 156q205 0 355 -133q113 106 120 291h103q-6 -188 -174 -342q125 -156 125 -365q0 -238 -147 -394q-146 -157 -382 -157q-233 0 -380 157q-146 156 -146 394zM203 520q0 -190 113 -319q114 -129 296 -129t296 128t114 320 q0 193 -114 320t-296 127t-296 -128t-113 -319zM494 1450l120 33l154 -281h-96z" />
<glyph unicode="&#x1a0;&#x309;" horiz-adv-x="1497" d="M68 729q0 332 188 547t494 215q264 0 452 -176q129 139 129 291h99q0 -66 -45 -163q-44 -97 -134 -179q179 -211 179 -535q0 -332 -188 -546q-187 -214 -492 -214q-303 0 -493 214q-189 214 -189 546zM188 729q0 -276 157 -466q157 -189 405 -189q246 0 402 190 q157 190 157 465q0 276 -156 467q-156 190 -403 190q-248 0 -405 -190q-157 -191 -157 -467zM571 1921q68 123 211 123q74 0 131 -40t58 -134q0 -51 -27 -95t-59 -68q-33 -24 -60 -51q-27 -28 -26 -52h-97q2 45 30 83t60 58t57 53q26 33 25 72q0 90 -106 90q-82 0 -139 -86z " />
<glyph unicode="&#x1a1;&#x309;" horiz-adv-x="1224" d="M86 520q0 238 146 393q146 156 380 156q205 0 355 -133q113 106 120 291h103q-6 -188 -174 -342q125 -156 125 -365q0 -238 -147 -394q-146 -157 -382 -157q-233 0 -380 157q-146 156 -146 394zM203 520q0 -190 113 -319q114 -129 296 -129t296 128t114 320 q0 193 -114 320t-296 127t-296 -128t-113 -319zM435 1468q61 110 190 110q66 0 118 -36t51 -120q0 -46 -24 -86t-53 -61t-53 -46t-24 -47h-87q2 41 27 75t53 52q29 18 52 48q23 29 23 65q0 81 -96 81q-74 0 -125 -78z" />
<glyph unicode="&#x1a0;&#x303;" horiz-adv-x="1497" d="M68 729q0 332 188 547t494 215q264 0 452 -176q129 139 129 291h99q0 -66 -45 -163q-44 -97 -134 -179q179 -211 179 -535q0 -332 -188 -546q-187 -214 -492 -214q-303 0 -493 214q-189 214 -189 546zM188 729q0 -276 157 -466q157 -189 405 -189q246 0 402 190 q157 190 157 465q0 276 -156 467q-156 190 -403 190q-248 0 -405 -190q-157 -191 -157 -467zM469 1622q2 100 47 142t102 42q49 0 133 -51q83 -51 123 -51q51 0 62 108h78q-6 -184 -154 -184q-45 0 -131 50t-113 51q-10 0 -23 -7q-13 -6 -29 -32q-15 -27 -19 -68h-76z" />
<glyph unicode="&#x1a1;&#x303;" horiz-adv-x="1224" d="M86 520q0 238 146 393q146 156 380 156q205 0 355 -133q113 106 120 291h103q-6 -188 -174 -342q125 -156 125 -365q0 -238 -147 -394q-146 -157 -382 -157q-233 0 -380 157q-146 156 -146 394zM203 520q0 -190 113 -319q114 -129 296 -129t296 128t114 320 q0 193 -114 320t-296 127t-296 -128t-113 -319zM334 1202q2 100 47 143q45 41 102 41q49 0 132 -51t124 -51q51 0 62 109h78q-6 -184 -154 -185q-45 0 -131 50t-113 51q-10 0 -23 -6t-29 -33q-15 -27 -19 -68h-76z" />
<glyph unicode="&#x1a0;&#x323;" horiz-adv-x="1497" d="M68 729q0 332 188 547t494 215q264 0 452 -176q129 139 129 291h99q0 -66 -45 -163q-44 -97 -134 -179q179 -211 179 -535q0 -332 -188 -546q-187 -214 -492 -214q-303 0 -493 214q-189 214 -189 546zM188 729q0 -276 157 -466q157 -189 405 -189q246 0 402 190 q157 190 157 465q0 276 -156 467q-156 190 -403 190q-248 0 -405 -190q-157 -191 -157 -467zM659 -238q0 31 27 59q27 27 64 27q39 0 63 -26q25 -27 25 -60q0 -37 -25 -62q-25 -26 -63 -26q-39 0 -65 26t-26 62z" />
<glyph unicode="&#x1a1;&#x323;" horiz-adv-x="1224" d="M86 520q0 238 146 393q146 156 380 156q205 0 355 -133q113 106 120 291h103q-6 -188 -174 -342q125 -156 125 -365q0 -238 -147 -394q-146 -157 -382 -157q-233 0 -380 157q-146 156 -146 394zM203 520q0 -190 113 -319q114 -129 296 -129t296 128t114 320 q0 193 -114 320t-296 127t-296 -128t-113 -319zM524 -238q0 31 27 59q26 27 63 27q39 0 64 -26q25 -27 24 -60q0 -37 -24 -62q-25 -26 -64 -26t-64 26q-26 26 -26 62z" />
<glyph unicode="U&#x323;" horiz-adv-x="1433" d="M166 618v848h121v-843q0 -137 28 -240q29 -102 72 -160q43 -57 103 -92t114 -46q53 -11 113 -11q432 0 432 534v858h121v-848q0 -647 -553 -647q-551 0 -551 647zM629 -238q0 31 26 59q27 27 64 27q39 0 63 -26q25 -27 25 -60q0 -37 -25 -62q-25 -26 -63 -26 q-39 0 -65 26t-25 62z" />
<glyph unicode="u&#x323;" horiz-adv-x="1200" d="M160 459v588h121v-566q-1 -403 282 -403q137 0 248 91t111 245v633h118v-791q0 -111 54 -252l-115 -27q-37 109 -49 205q-135 -211 -393 -211q-377 0 -377 488zM512 -238q0 31 27 59q26 27 63 27q39 0 64 -26q25 -27 24 -60q0 -37 -24 -62q-25 -26 -64 -26t-64 26 q-26 26 -26 62z" />
<glyph unicode="U&#x309;" horiz-adv-x="1433" d="M166 618v848h121v-843q0 -137 28 -240q29 -102 72 -160q43 -57 103 -92t114 -46q53 -11 113 -11q432 0 432 534v858h121v-848q0 -647 -553 -647q-551 0 -551 647zM541 1921q68 123 211 123q74 0 131 -40t57 -134q0 -51 -27 -95t-59 -68q-33 -24 -59 -51q-27 -28 -27 -52 h-96q2 45 29 83q28 38 60 58t57 53q26 33 26 72q0 90 -107 90q-82 0 -139 -86z" />
<glyph unicode="u&#x309;" horiz-adv-x="1200" d="M160 459v588h121v-566q-1 -403 282 -403q137 0 248 91t111 245v633h118v-791q0 -111 54 -252l-115 -27q-37 109 -49 205q-135 -211 -393 -211q-377 0 -377 488zM423 1468q61 110 190 110q66 0 118 -36t51 -120q0 -46 -24 -86t-53 -61t-54 -46q-24 -25 -24 -47h-86 q2 41 26 75q25 34 54 52t51 48q23 29 24 65q0 81 -96 81q-74 0 -126 -78z" />
<glyph unicode="&#x1af;&#x301;" horiz-adv-x="1433" d="M166 618v848h121v-843q0 -137 28 -240q29 -102 72 -160q43 -57 103 -92t114 -46q53 -11 113 -11q432 0 432 549v843h121v-135q139 121 147 275h99q-29 -219 -246 -367v-621q0 -647 -553 -647q-551 0 -551 647zM639 1622l154 281l120 -33l-180 -248h-94z" />
<glyph unicode="&#x1b0;&#x301;" horiz-adv-x="1148" d="M160 459v588h121v-566q-1 -403 282 -403q137 0 248 91t111 245v633h118v-125q125 115 138 305h98q-20 -252 -236 -391v-580q0 -111 54 -252l-115 -27q-37 109 -49 205q-135 -211 -393 -211q-377 0 -377 488zM494 1202l153 281l121 -33l-180 -248h-94z" />
<glyph unicode="&#x1af;&#x300;" horiz-adv-x="1433" d="M166 618v848h121v-843q0 -137 28 -240q29 -102 72 -160q43 -57 103 -92t114 -46q53 -11 113 -11q432 0 432 549v843h121v-135q139 121 147 275h99q-29 -219 -246 -367v-621q0 -647 -553 -647q-551 0 -551 647zM555 1870l121 33l153 -281h-96z" />
<glyph unicode="&#x1b0;&#x300;" horiz-adv-x="1148" d="M160 459v588h121v-566q-1 -403 282 -403q137 0 248 91t111 245v633h118v-125q125 115 138 305h98q-20 -252 -236 -391v-580q0 -111 54 -252l-115 -27q-37 109 -49 205q-135 -211 -393 -211q-377 0 -377 488zM395 1450l121 33l154 -281h-97z" />
<glyph unicode="&#x1af;&#x309;" horiz-adv-x="1433" d="M166 618v848h121v-843q0 -137 28 -240q29 -102 72 -160q43 -57 103 -92t114 -46q53 -11 113 -11q432 0 432 549v843h121v-135q139 121 147 275h99q-29 -219 -246 -367v-621q0 -647 -553 -647q-551 0 -551 647zM522 1921q68 123 211 123q74 0 131 -40t58 -134 q0 -51 -27 -95t-59 -68q-33 -24 -60 -51q-27 -28 -26 -52h-97q2 45 30 83t59 58q32 20 58 53t25 72q0 90 -106 90q-82 0 -139 -86z" />
<glyph unicode="&#x1b0;&#x309;" horiz-adv-x="1148" d="M160 459v588h121v-566q-1 -403 282 -403q137 0 248 91t111 245v633h118v-125q125 115 138 305h98q-20 -252 -236 -391v-580q0 -111 54 -252l-115 -27q-37 109 -49 205q-135 -211 -393 -211q-377 0 -377 488zM425 1468q61 110 190 110q66 0 118 -36t51 -120q0 -46 -24 -86 t-53 -61t-54 -46q-24 -25 -24 -47h-86q2 41 26 75q25 34 54 52t52 48q23 29 23 65q0 81 -96 81q-74 0 -126 -78z" />
<glyph unicode="&#x1af;&#x303;" horiz-adv-x="1433" d="M166 618v848h121v-843q0 -137 28 -240q29 -102 72 -160q43 -57 103 -92t114 -46q53 -11 113 -11q432 0 432 549v843h121v-135q139 121 147 275h99q-29 -219 -246 -367v-621q0 -647 -553 -647q-551 0 -551 647zM453 1622q2 100 47 142t102 42q49 0 132 -51t124 -51 q51 0 62 108h77q-6 -184 -153 -184q-45 0 -131 50t-113 51q-10 0 -23 -7q-13 -6 -29 -32q-15 -27 -20 -68h-75z" />
<glyph unicode="&#x1b0;&#x303;" horiz-adv-x="1148" d="M160 459v588h121v-566q-1 -403 282 -403q137 0 248 91t111 245v633h118v-125q125 115 138 305h98q-20 -252 -236 -391v-580q0 -111 54 -252l-115 -27q-37 109 -49 205q-135 -211 -393 -211q-377 0 -377 488zM340 1202q2 100 47 143q45 41 102 41q49 0 133 -51 q83 -51 123 -51q51 0 62 109h78q-6 -184 -154 -185q-45 0 -131 50t-113 51q-10 0 -23 -6t-29 -33q-15 -27 -19 -68h-76z" />
<glyph unicode="&#x1af;&#x323;" horiz-adv-x="1433" d="M166 618v848h121v-843q0 -137 28 -240q29 -102 72 -160q43 -57 103 -92t114 -46q53 -11 113 -11q432 0 432 549v843h121v-135q139 121 147 275h99q-29 -219 -246 -367v-621q0 -647 -553 -647q-551 0 -551 647zM629 -238q0 31 26 59q27 27 64 27q39 0 63 -26 q25 -27 25 -60q0 -37 -25 -62q-25 -26 -63 -26q-39 0 -65 26t-25 62z" />
<glyph unicode="&#x1b0;&#x323;" horiz-adv-x="1148" d="M160 459v588h121v-566q-1 -403 282 -403q137 0 248 91t111 245v633h118v-125q125 115 138 305h98q-20 -252 -236 -391v-580q0 -111 54 -252l-115 -27q-37 109 -49 205q-135 -211 -393 -211q-377 0 -377 488zM483 -238q0 31 27 59q26 27 63 27q39 0 64 -26q25 -27 25 -60 q0 -37 -25 -62q-25 -26 -64 -26t-64 26q-26 26 -26 62z" />
<glyph unicode="Y&#x300;" horiz-adv-x="1126" d="M0 1466h139l424 -716l426 716h139l-505 -819v-647h-117v643zM389 1870l121 33l154 -281h-97z" />
<glyph unicode="y&#x300;" horiz-adv-x="1036" d="M10 1047h129l391 -887l367 887h131l-461 -1047q-182 -410 -483 -481l-29 96q262 59 398 420q0 12 -9 37zM324 1450l120 33l154 -281h-96z" />
<glyph unicode="Y&#x323;" horiz-adv-x="1126" d="M0 1466h139l424 -716l426 716h139l-505 -819v-647h-117v643zM475 -238q0 31 27 59q26 27 63 27q39 0 64 -26q25 -27 24 -60q0 -37 -24 -62q-25 -26 -64 -26t-64 26q-26 26 -26 62z" />
<glyph unicode="y&#x323;" horiz-adv-x="1036" d="M10 1047h129l391 -887l367 887h131l-461 -1047q-182 -410 -483 -481l-29 96q262 59 398 420q0 12 -9 37zM641 -238q0 31 27 59q26 27 63 27q39 0 64 -26q25 -27 24 -60q0 -37 -24 -62q-25 -26 -64 -26t-64 26q-26 26 -26 62z" />
<glyph unicode="Y&#x309;" horiz-adv-x="1126" d="M0 1466h139l424 -716l426 716h139l-505 -819v-647h-117v643zM385 1921q68 123 211 123q74 0 131 -40t57 -134q0 -51 -26 -95q-27 -44 -60 -68t-59 -51q-27 -28 -27 -52h-96q2 45 30 83t59 58q32 20 58 53t25 72q0 90 -106 90q-82 0 -140 -86z" />
<glyph unicode="y&#x309;" horiz-adv-x="1036" d="M10 1047h129l391 -887l367 887h131l-461 -1047q-182 -410 -483 -481l-29 96q262 59 398 420q0 12 -9 37zM339 1468q61 110 190 110q66 0 118 -36t51 -120q0 -46 -24 -86t-53 -61t-54 -46q-24 -25 -24 -47h-86q2 41 26 75q25 34 54 52t52 48q23 29 23 65q0 81 -96 81 q-74 0 -126 -78z" />
<glyph unicode="Y&#x303;" horiz-adv-x="1126" d="M0 1466h139l424 -716l426 716h139l-505 -819v-647h-117v643zM285 1622q2 100 47 142t102 42q49 0 132 -51t124 -51q51 0 62 108h77q-6 -184 -153 -184q-45 0 -131 50t-113 51q-10 0 -23 -7q-13 -6 -29 -32q-15 -27 -20 -68h-75z" />
<glyph unicode="y&#x303;" horiz-adv-x="1036" d="M10 1047h129l391 -887l367 887h131l-461 -1047q-182 -410 -483 -481l-29 96q262 59 398 420q0 12 -9 37zM242 1202q2 100 47 143q45 41 102 41q49 0 132 -51t124 -51q51 0 62 109h77q-6 -184 -153 -185q-45 0 -131 50t-113 51q-10 0 -23 -6t-29 -33q-15 -27 -20 -68h-75z " />
<glyph unicode="&#xe4f;&#x22;" horiz-adv-x="1363" d="M172 502q0 213 150 366q149 154 370 154q215 0 369 -153t153 -367q0 -223 -152 -372q-153 -148 -370 -148q-225 0 -373 152q-147 153 -147 368zM281 502q0 -178 116 -297q117 -119 295 -119t296 123t118 293t-118 292t-296 121q-176 0 -294 -120q-118 -121 -117 -293z M389 502q0 129 90 217t213 88q129 0 217 -89t88 -216q0 -125 -88 -216t-217 -91q-127 0 -215 90t-88 217zM475 1683h143l-30 -497h-82zM496 502q0 -84 57 -141q57 -56 139 -56q86 0 143 57q56 57 56 140q0 80 -57 138t-142 58q-84 0 -140 -58t-56 -138zM743 1683h144 l-31 -497h-82z" />
<glyph unicode="&#xe24;&#xe32;" horiz-adv-x="1769" d="M80 838q25 172 161 283.5t310 111.5q252 0 369 -168q102 168 313 168q104 0 180 -29.5t114 -79t55 -100.5t17 -106v-1534h-110v1538q0 94 -69.5 153.5t-188.5 59.5q-115 0 -176.5 -75t-67.5 -155h-4q8 -39 8 -88v-1433h-110v1421q0 158 -92.5 244t-243.5 86 q-104 0 -198.5 -60.5t-133.5 -152.5q188 -16 244 -134q-74 -14 -128.5 -80.5t-54.5 -144.5v-201q51 23 93 23q88 0 147 -61.5t59 -145.5q0 -88 -61 -145.5t-145 -57.5q-88 0 -145.5 58.5t-57.5 144.5v383q0 168 155 244q-80 33 -239 33zM268 176q0 -43 29 -72.5t74 -29.5 t74.5 29.5t29.5 72.5q0 45 -30.5 75t-73.5 30q-45 0 -74 -31t-29 -74z" />
<glyph unicode="&#xe26;&#xe32;" horiz-adv-x="1912" d="M74 176q0 82 57 142.5t143 60.5q31 0 74 -17q-18 145 -18 218q0 141 123 221q-82 37 -164 37q-45 0 -58 -2q14 168 144.5 282.5t316.5 114.5q252 0 371 -166q100 166 311 166q104 0 180 -29.5t114 -79t55.5 -100.5t17.5 -106v-1534h-111v1538q0 94 -69.5 153.5 t-188.5 59.5q-115 0 -176 -75t-68 -155q8 -39 9 -92v-1429h-111v1417q0 152 -93 243t-243 91q-113 0 -208 -63.5t-128 -149.5q164 -16 250 -136q-166 -57 -166 -225q0 -102 19.5 -210.5t19.5 -166.5q0 -90 -60.5 -149.5t-142.5 -59.5q-86 0 -143 59.5t-57 141.5zM172 176 q0 -45 29.5 -73.5t72.5 -28.5q45 0 75 29.5t30 72.5q0 45 -31 75t-74 30t-72.5 -30t-29.5 -75z" />
<glyph unicode="&#xfb01;" horiz-adv-x="1067" d="M31 952v95h153v53q0 68 11.5 131t41 128.5t76.5 113t124 78t175 30.5q147 0 262 -84l-51 -92q-119 74 -231 74q-287 0 -287 -379v-53h604v-1047h-121v952h-483v-952h-121v952h-153z" />
<glyph unicode="&#xfb02;" horiz-adv-x="1243" d="M31 952v95h153v30q0 117 31 207t80 145.5t114.5 90t127 48t125.5 13.5q121 0 247 -61v-947q0 -94 6.5 -161.5t23.5 -132t48 -105.5t81 -65.5t122 -24.5l-12 -107q-389 18 -390 549v922q-61 31 -151 31q-43 0 -82 -7.5t-87 -31t-82 -63.5t-57.5 -112.5t-23.5 -170.5v-47 h301v-95h-301v-952h-121v952h-153z" />
<glyph unicode="PSK&#x2e;Design&#x28;c&#x29;" horiz-adv-x="2938" d="M178 612v78h2493v-78h-2493zM203 377q0 129 151 129q115 0 127 -92h-80q-2 39 -53 39q-72 0 -72 -76q0 -78 68 -78q53 0 57 37h80q-10 -92 -133 -92q-145 0 -145 133zM221 1128v693h340q275 -1 275 -222q0 -225 -310 -225h-125v-246h-180zM401 1513h117q135 1 135 89 q0 86 -135 86h-117v-175zM500 0l61 133h45l56 -133h-39l-13 29h-61l-12 -29h-37zM500 373q0 127 153 127q152 0 152 -127q0 -129 -158 -129q-147 0 -147 129zM557 53h47l-22 51zM569 373q0 -78 84 -78q76 0 76 76q0 80 -76 80q-84 0 -84 -78zM668 0v133h30v-104h70v-29h-100 zM776 0v133h31v-104h67v-29h-98zM788 1106q0 49 13 96h117q-2 -14 -3 -53q0 -244 306 -244q84 0 166.5 28t148.5 99.5t66 175.5q0 117 -160 178l-293 99q-160 68 -160 196q0 203 143.5 309.5t383.5 106.5q147 0 241 -62.5t94 -183.5q0 -51 -14 -102h-113q6 43 7 59 q0 185 -203 185q-178 0 -291 -67.5t-113 -194.5q0 -80 58.5 -121t230.5 -90q164 -45 241 -105.5t77 -163.5q0 -129 -49.5 -221t-132.5 -140t-171 -68.5t-188 -20.5q-180 0 -291 76.5t-111 228.5zM838 256v244h127q106 0 106 -84t-117 -84h-51v-76h-65zM903 383h45 q53 0 53 33q0 31 -53 30h-45v-63zM946 0v133h64q53 0 53 -35q0 -25 -25 -32q18 -6 31 -66h-41q0 53 -31 53h-18v-53h-33zM979 80h18q25 0 25 12q0 16 -25 17h-18v-29zM1063 500h80l74 -105q8 12 67 105h72l-111 -162v-82h-71v86zM1083 0v133h29v-133h-29zM1130 65.5 q0 69.5 78 69.5q57 0 62 -49h-35q-4 23 -27 23q-41 0 -41 -41q0 -43 43 -43q12 0 25 4v20h-27v25h62v-64q-27 -14 -60 -14q-80 0 -80 69.5zM1288 0v133h33v-53h68v53h34v-133h-34v55h-68v-55h-33zM1386 256v244h140q104 0 104 -66q0 -39 -53 -57q47 -10 47 -60l12 -61h-67 l-17 61q-4 31 -51 31h-45v-92h-70zM1432 104v29h127v-29h-43v-104h-37v104h-47zM1456 389h47q56 0 56 33q0 25 -56 24h-47v-57zM1636 0v133h68q49 0 49 -35q0 -25 -24 -32q18 -6 30 -66h-37q0 53 -28 53h-21v-53h-37zM1663 256v244h78v-244h-78zM1673 80h21q22 0 22 12 q0 16 -22 17h-21v-29zM1767 0v133h103v-29h-68v-24h66v-25h-66v-26h72v-29h-107zM1774 377q0 125 151 125q125 0 133 -82h-80q-6 33 -55 33q-74 0 -74 -74q0 -80 82 -80l49 6v43h-57v41h135v-125q-51 -14 -127 -14q-158 0 -157 127zM1886 47h33q0 -23 25 -22q23 0 22 12 q0 2 -39 17.5t-39 37.5q0 43 56 43q55 0 55 -43h-33q0 18 -22 19q-21 -1 -21 -15q0 -10 40 -22.5t40 -32.5q0 -45 -61 -45q-55 0 -56 51zM1962 1128v693h184v-295l254 295h215l-274 -308l297 -385h-238l-254 351v-351h-184zM2017 0v133h105v-29h-70v-24h64v-25h-64v-26h70 v-29h-105zM2097 256v244h74v-97h125v97h69v-244h-69v98h-125v-98h-74zM2132 0v133h63q47 0 48 -35q0 -25 -25 -32q18 -6 31 -66h-37q0 53 -29 53h-20v-53h-31zM2163 80h20q23 0 23 12q0 16 -23 17h-20v-29zM2241 133h36l37 -98l37 98h33l-51 -133h-37zM2390 0v133h102v-29 h-65v-24h61v-25h-61v-26h65v-29h-102zM2394 444v56h268v-56h-102v-188h-72v188h-94zM2507 0v133h63q74 1 74 -67q0 -66 -74 -66h-63zM2544 31h26q39 0 39 35q0 39 -39 38h-26v-73zM2554 2079q0 82 51 132t127 50q80 0 132 -51t52 -131q0 -78 -51 -128t-133 -50 q-76 0 -127 49t-51 129zM2585 2077q0 -63 40.5 -107.5t106.5 -44.5q68 0 113 43t45 109q0 63 -45 108t-113 45q-63 0 -105 -46t-42 -107zM2634 2082.5q0 110.5 96 110.5q82 0 88 -73h-49q-8 31 -39 30q-41 0 -41 -65q0 -74 43 -74q33 0 37 41h53q-16 -80 -92 -80 q-96 0 -96 110.5z" />
<glyph />
<glyph />
<glyph horiz-adv-x="663" />
<glyph unicode=" "  horiz-adv-x="663" />
<glyph unicode="&#x09;" horiz-adv-x="663" />
<glyph unicode="&#xa0;" horiz-adv-x="663" />
<glyph unicode="!" horiz-adv-x="452" d="M117 86q0 43 29.5 76t74.5 33t77 -33t32 -76q0 -45 -33 -74.5t-76 -29.5q-45 0 -74.5 30.5t-29.5 73.5zM152 1462h143l-25 -1091h-98z" />
<glyph unicode="&#x22;" horiz-adv-x="638" d="M115 1538h143l-31 -498h-82zM383 1538h143l-30 -498h-82z" />
<glyph unicode="#" horiz-adv-x="1241" d="M84 459v96h209l43 367h-209v98h221l60 442h100l-55 -442h397l53 442h107l-56 -442h201v-98h-213l-43 -367h213v-96h-221l-60 -459h-108l59 459h-393l-57 -459h-107l56 459h-197zM401 555h394l43 367h-398z" />
<glyph unicode="$" horiz-adv-x="1112" d="M160 158l55 94q123 -104 309 -105q143 0 225 74t82 182q0 178 -270 293q-371 154 -371 381q0 139 92.5 228.5t237.5 111.5v234h105v-234q152 -10 284 -90l-55 -98q-106 90 -279 90q-127 0 -198.5 -66.5t-71.5 -158.5q0 -76 48 -133.5t119 -90t155 -74.5t154.5 -84 t118.5 -120t48 -182q0 -143 -97 -238.5t-247 -122.5v-227h-108v227q-197 0 -336 109z" />
<glyph unicode="%" horiz-adv-x="1800" d="M104 1028q0 438 330 438t330 -438q0 -436 -330 -436t-330 436zM215 1028q0 -338 219 -338t219 338q0 340 -219 340t-219 -340zM397 -29l893 1495h105l-893 -1495h-105zM1034 428q0 438 330 438t330 -438t-330 -438t-330 438zM1147 428q0 -338 217 -338q219 0 219 338 q0 340 -219 340q-217 0 -217 -340z" />
<glyph unicode="&#x26;" horiz-adv-x="1302" d="M59 395q0 289 312 447q-133 176 -133 313q0 147 96 256t266 109q139 0 224 -85t85 -218q0 -248 -377 -416l463 -490q106 143 164 477h113q-74 -391 -207 -542l260 -246h-154l-174 164q-225 -193 -495 -193q-188 0 -315.5 123t-127.5 301zM176 410q0 -152 101.5 -245 t252.5 -93q231 0 398 166q-281 281 -496 526q-256 -135 -256 -354zM350 1167q0 -121 131 -288q319 154 320 325q0 102 -58.5 161.5t-154.5 59.5q-109 0 -173.5 -76.5t-64.5 -181.5z" />
<glyph unicode="'" horiz-adv-x="368" d="M115 1538h141l-29 -498h-82z" />
<glyph unicode="(" horiz-adv-x="583" d="M61 721q0 502 340 917h123q-346 -391 -346 -917q0 -489 342 -899h-117q-342 373 -342 899z" />
<glyph unicode=")" horiz-adv-x="583" d="M61 -178q342 428 342 907q0 487 -342 909h117q342 -385 342 -909q0 -510 -342 -907h-117z" />
<glyph unicode="*" horiz-adv-x="876" d="M55 1096v118l318 -22l-197 262l117 68l147 -283l146 283l116 -68l-196 -262l317 22v-118l-317 28l196 -264l-102 -65l-162 305l-162 -305l-100 65l197 264z" />
<glyph unicode="+" horiz-adv-x="1265" d="M117 508v102h463v490h106v-490h463v-102h-463v-508h-106v508h-463z" />
<glyph unicode="," horiz-adv-x="497" d="M92 -289q160 109 178 266q-49 0 -83.5 35t-34.5 80q0 49 33.5 83t78.5 34q51 0 83 -37t32 -88q-6 -158 -84 -270.5t-160 -149.5z" />
<glyph unicode="-" horiz-adv-x="663" d="M61 508v102h539v-102h-539z" />
<glyph unicode="." horiz-adv-x="497" d="M141 86q0 43 30 76t75 33t76.5 -33t31.5 -76q0 -45 -32.5 -74.5t-75.5 -29.5q-45 0 -75 30.5t-30 73.5z" />
<glyph unicode="/" horiz-adv-x="831" d="M-55 -90l784 1610h127l-795 -1610h-116z" />
<glyph unicode="0" horiz-adv-x="1114" d="M96 698q0 207 46 378t153.5 286t261.5 115t261.5 -115t152.5 -285t45 -379q0 -113 -23.5 -231.5t-74 -235t-144.5 -191.5t-217 -75q-213 0 -337 219t-124 514zM219 702q0 -154 35 -293t115 -238t188.5 -99t187 98t113.5 238.5t35 293.5q0 305 -92 486.5t-244 181.5 q-154 0 -246 -180t-92 -488z" />
<glyph unicode="1" horiz-adv-x="1114" d="M231 1161l355 312q68 0 67 -117v-1245h232v-111h-586v111h231v1173l-231 -201z" />
<glyph unicode="2" horiz-adv-x="1114" d="M80 0q12 80 43 176l293 289q150 143 358 391q98 131 98 254q0 131 -83.5 189.5t-194.5 58.5q-276 0 -313 -277l-111 31q16 170 129 265.5t299 95.5q174 0 285.5 -105.5t111.5 -267.5q0 -236 -370 -588q-291 -291 -379 -391h786l-24 -121h-928z" />
<glyph unicode="3" horiz-adv-x="1114" d="M104 80l54 96q113 -86 299 -86q180 0 305 120t125 279q0 121 -73 201t-189 80q-129 0 -205 -72l-60 101l234 180q176 152 176 231q0 152 -209 152q-231 0 -346 -232l-86 48q49 133 168 214t272 81q133 0 224.5 -71t91.5 -188q0 -143 -254 -333h18q166 0 263.5 -108.5 t97.5 -276.5q0 -240 -165 -385.5t-425 -145.5q-190 0 -316 115z" />
<glyph unicode="4" horiz-adv-x="1114" d="M98 342q6 457 205 774.5t541 386.5v-1046h219l-16 -115h-203v-342h-123v342h-623zM231 457h490v889q-201 -98 -342 -349.5t-148 -539.5z" />
<glyph unicode="5" horiz-adv-x="1114" d="M74 90l53 94q86 -53 147.5 -72.5t157.5 -19.5q162 0 292 104.5t130 305.5q0 92 -34 158.5t-88 100.5t-111.5 49t-118.5 15q-129 0 -207 -102l-64 -6l45 745h658l-23 -116h-516l-28 -435q80 31 172 31q186 0 313 -116.5t127 -319.5q0 -238 -158.5 -384.5t-412.5 -146.5 q-213 0 -334 115z" />
<glyph unicode="6" horiz-adv-x="1114" d="M117 514q0 365 221 638t555 339l10 -90q-225 -63 -398 -238.5t-241 -404.5q12 49 98.5 104.5t219.5 55.5q180 0 294.5 -136.5t114.5 -335.5q0 -201 -110.5 -336t-307.5 -135q-211 0 -333.5 148.5t-122.5 390.5zM240 446.5q0 -153.5 92 -260t225 -106.5q150 0 230.5 107.5 t80.5 258.5q0 154 -81.5 262.5t-229.5 108.5q-133 0 -225 -108.5t-92 -262z" />
<glyph unicode="7" horiz-adv-x="1114" d="M102 1346l45 116h867l-25 -123q-207 -272 -332 -585.5t-125 -753.5h-129q0 463 185 891q27 61 91 175t116 196l49 84h-742z" />
<glyph unicode="8" horiz-adv-x="1114" d="M102 395q0 154 88.5 261.5t223.5 136.5q-109 31 -188 116.5t-79 194.5q0 164 115 268.5t295 104.5q186 0 297 -106.5t111 -266.5q0 -109 -78 -194.5t-189 -116.5q135 -29 223.5 -136.5t88.5 -261.5q0 -199 -122 -309.5t-333 -110.5q-209 0 -331 111t-122 309zM225 385 q0 -141 94.5 -221t237.5 -80q141 0 235.5 80t94.5 221q0 51 -17.5 105.5t-53.5 108.5t-103.5 92t-157.5 42q-90 -6 -158.5 -44t-103.5 -93t-51.5 -108.5t-16.5 -102.5zM270 1112q0 -193 285 -262q287 72 287 262q0 104 -75 177t-210 73q-139 0 -213 -74t-74 -176z" />
<glyph unicode="9" horiz-adv-x="1114" d="M117 1008q0 201 111.5 336t308.5 135q211 0 332.5 -149.5t121.5 -389.5q0 -360 -219 -636.5t-557 -340.5l-8 90q217 59 394 234.5t243 408.5q-12 -49 -97 -104t-221 -55q-180 0 -294.5 136t-114.5 335zM240 1008q0 -158 85 -264.5t226 -106.5q135 0 226 107.5t91 263.5 q0 154 -91 260t-226 106q-150 0 -230.5 -107.5t-80.5 -258.5z" />
<glyph unicode=":" horiz-adv-x="497" d="M141 86q0 43 30 76t75 33t76.5 -33t31.5 -76q0 -45 -32.5 -74.5t-75.5 -29.5q-45 0 -75 30.5t-30 73.5zM141 872q0 45 31 76t74 31t75.5 -30.5t32.5 -76t-32.5 -75t-75.5 -29.5q-45 0 -75 30.5t-30 73.5z" />
<glyph unicode=";" horiz-adv-x="497" d="M92 -289q160 109 178 266q-49 0 -83.5 35t-34.5 80q0 49 33.5 83t78.5 34q51 0 83 -37t32 -88q-6 -158 -84 -270.5t-160 -149.5zM141 872q0 45 31 76t74 31t75.5 -30.5t32.5 -76t-32.5 -75t-75.5 -29.5q-45 0 -75 30.5t-30 73.5z" />
<glyph unicode="&#x3c;" horiz-adv-x="1265" d="M135 537v81l993 543v-114l-870 -472l870 -464v-117z" />
<glyph unicode="=" horiz-adv-x="1265" d="M170 313v103h926v-103h-926zM170 715v102h926v-102h-926z" />
<glyph unicode="&#x3e;" horiz-adv-x="1265" d="M135 -6v117l869 469l-869 467v114l993 -543v-81z" />
<glyph unicode="?" horiz-adv-x="870" d="M96 1393q150 96 314 96q182 0 267 -99.5t85 -224.5q0 -164 -195 -370q-152 -162 -151 -318q0 -51 10 -98h-107q-14 43 -14 108q0 164 168 350.5t168 321.5q0 221 -252 221q-147 0 -248 -80zM262 86q0 43 30 76t75 33t76.5 -33t31.5 -76q0 -45 -32.5 -74.5t-75.5 -29.5 q-45 0 -75 30.5t-30 73.5z" />
<glyph unicode="@" horiz-adv-x="1650" d="M72 401q0 164 56 311.5t158.5 259t258.5 177t342 65.5q324 0 504 -195.5t180 -475.5q0 -221 -130 -363.5t-280 -150.5l-96 -6l-31 137q-123 -156 -325 -156q-145 0 -220 81t-75 171q0 344 614 344v16q0 262 -248 263q-137 0 -231 -74l-35 76q121 90 272 90 q350 0 351 -391v-330q0 -68 12 -127q121 6 219 125t98 284q0 254 -156.5 423t-437.5 169q-303 0 -493.5 -201.5t-190.5 -512.5q0 -268 169 -440.5t419 -172.5q213 0 361 92l43 -90q-184 -98 -412 -98q-295 0 -495.5 196.5t-200.5 503.5zM526 274q1 -184 189 -184 q154 0 233.5 83t79.5 151v188q-502 -6 -502 -238z" />
<glyph unicode="A" horiz-adv-x="1230" d="M0 0l555 1489h123l555 -1489h-133l-170 471h-631l-166 -471h-133zM336 573h557l-277 783z" />
<glyph unicode="B" horiz-adv-x="1163" d="M166 12v1432q158 41 309 41q532 0 533 -369q0 -119 -69 -207t-175 -127q41 -10 87 -33.5t97 -66.5t84 -114.5t33 -157.5q0 -428 -619 -428q-135 0 -280 30zM287 98q82 -18 184 -18q209 0 343 83t134 245q0 90 -42 156.5t-111.5 100t-142 48t-152.5 14.5h-213v-629z M287 825h250q158 0 254 79t96 208q0 270 -412 270q-100 0 -188 -20v-537z" />
<glyph unicode="C" horiz-adv-x="1249" d="M72 737q0 330 197.5 541t498.5 211q233 0 399 -78l-37 -98q-162 69 -351 69h-5q-252 0 -415.5 -185t-163.5 -464q0 -283 165.5 -466t413.5 -183q193 0 356 70l37 -99q-166 -78 -399 -78q-295 0 -495.5 210t-200.5 550z" />
<glyph unicode="D" horiz-adv-x="1327" d="M166 16v1428q278 39 438 39q287 0 461 -194.5t174 -524.5q0 -776 -696 -776q-80 0 -377 28zM287 111q154 -19 293 -19q262 0 400 183.5t138 488.5q0 276 -139 444t-385 168q-94 0 -307 -24v-1241z" />
<glyph unicode="E" horiz-adv-x="1079" d="M166 0v1466h799v-102h-678v-539h604v-102h-604v-621h678v-102h-799z" />
<glyph unicode="F" horiz-adv-x="1079" d="M166 0v1466h829v-102h-708v-557h661v-102h-661v-705h-121z" />
<glyph unicode="G" horiz-adv-x="1308" d="M72 737q0 336 181 541t490 205q227 0 394 -76l-37 -98q-183 71 -358 71h-5q-240 0 -391 -184t-151 -463q0 -295 131 -472t383 -177q197 0 354 76v475h-373v98h490v-702q-25 18 -64 18l-182 -33q-171 -32 -240 -32h-4q-281 0 -449.5 203.5t-168.5 549.5z" />
<glyph unicode="H" horiz-adv-x="1357" d="M166 0v1466h121v-635h784v635h121v-1466h-121v729h-784v-729h-121z" />
<glyph unicode="I" horiz-adv-x="452" d="M166 0v1466h121v-1466h-121z" />
<glyph unicode="J" horiz-adv-x="813" d="M-4 18l33 97q69 -37 186 -37q178 0 244.5 105.5t66.5 328.5v954h121v-985q0 -510 -432 -510q-115 0 -219 47z" />
<glyph unicode="K" horiz-adv-x="1157" d="M166 0v1466h121v-704l729 723l121 -35l-611 -608l676 -813l-108 -45l-650 780l-157 -158v-606h-121z" />
<glyph unicode="L" horiz-adv-x="1085" d="M166 0v1466h121v-1364h721v-102h-842z" />
<glyph unicode="M" horiz-adv-x="1687" d="M123 0l102 1466h142l477 -1314l477 1314h141l103 -1466h-115l-92 1294l-473 -1294h-80l-475 1294l-92 -1294h-115z" />
<glyph unicode="N" horiz-adv-x="1357" d="M166 0v1466h139l770 -1278v1278h117v-1466h-127l-776 1296v-1296h-123z" />
<glyph unicode="O" horiz-adv-x="1497" d="M68 729q0 332 188 547t494 215q303 0 491.5 -215t188.5 -547t-187.5 -546t-492.5 -214q-303 0 -492.5 214t-189.5 546zM188 729q0 -276 157 -465.5t405 -189.5q246 0 402.5 190.5t156.5 464.5q0 276 -156 466.5t-403.5 190.5t-404.5 -190.5t-157 -466.5z" />
<glyph unicode="P" horiz-adv-x="1163" d="M166 0v1450q178 33 354 33q236 0 389.5 -114t153.5 -310q0 -213 -159 -337t-408 -124q-117 0 -209 18v-616h-121zM287 721q86 -23 215 -23q203 0 324.5 94.5t121.5 258.5q0 325 -427 325h-3q-160 0 -231 -14v-641z" />
<glyph unicode="Q" horiz-adv-x="1499" d="M68 729q0 332 188 547t494 215q303 0 491.5 -215t188.5 -547q0 -281 -138.5 -479.5t-361.5 -253.5q178 -76 420 -88l-43 -115q-301 70 -557 176q-303 0 -492.5 214t-189.5 546zM188 729q0 -276 157 -465.5t405 -189.5q246 0 402.5 190.5t156.5 464.5q0 276 -156 466.5 t-403.5 190.5t-404.5 -190.5t-157 -466.5z" />
<glyph unicode="R" horiz-adv-x="1167" d="M166 0v1448q178 35 360 35q244 -4 390.5 -102.5t146.5 -293.5q0 -274 -283 -378q68 -37 121 -101.5t83 -125t56.5 -160t36.5 -155.5t27 -167h-119q-84 668 -416 668h-282v-668h-121zM287 764h274q176 0 281.5 79t105.5 228q0 305 -422 305q-172 0 -239 -20v-592z" />
<glyph unicode="S" horiz-adv-x="1083" d="M84 84l49 104q151 -114 363 -114h4q166 0 267 77.5t101 221.5q0 135 -84 206.5t-241 122.5q-410 133 -410 414q0 164 126 271.5t329 107.5q205 0 336 -78q-47 -90 -52 -96q-132 72 -286 72q-162 0 -251 -76t-89 -187q0 -203 327 -313q231 -80 321.5 -180t90.5 -254 q0 -182 -137 -297t-361 -115q-242 0 -403 113z" />
<glyph unicode="T" horiz-adv-x="1167" d="M-16 1364v102h1200v-102h-541v-1364h-117v1364h-542z" />
<glyph unicode="U" horiz-adv-x="1433" d="M166 618v848h121v-843q0 -137 28.5 -239.5t71.5 -160t103.5 -92.5t113.5 -46t113 -11q432 0 432 534v858h121v-848q0 -647 -553 -647q-551 0 -551 647z" />
<glyph unicode="V" horiz-adv-x="1200" d="M0 1466h135l465 -1327l465 1327h137l-536 -1466h-129z" />
<glyph unicode="W" horiz-adv-x="1810" d="M0 1466h135l373 -1327l330 1327h135l330 -1327l372 1327h135l-442 -1466h-129l-334 1331l-332 -1331h-129z" />
<glyph unicode="X" horiz-adv-x="1286" d="M53 0l520 752l-499 714h145l424 -641l426 641h145l-499 -714l520 -752h-141l-451 662l-448 -662h-142z" />
<glyph unicode="Y" horiz-adv-x="1126" d="M0 1466h139l424 -716l426 716h139l-505 -819v-647h-117v643z" />
<glyph unicode="Z" horiz-adv-x="1304" d="M68 0v80l995 1284h-934l18 102h1070v-84l-992 -1280h1032l-24 -102h-1165z" />
<glyph unicode="[" horiz-adv-x="602" d="M160 -240v1799h409v-93h-301v-1613h301v-93h-409z" />
<glyph unicode="\" horiz-adv-x="806" d="M-29 1489h121l768 -1575h-123z" />
<glyph unicode="]" horiz-adv-x="602" d="M35 -147h301v1613h-301v93h411v-1799h-411v93z" />
<glyph unicode="^" horiz-adv-x="1267" d="M133 489l442 990h111l444 -990h-114l-385 873l-385 -873h-113z" />
<glyph unicode="_" horiz-adv-x="1083" d="M0 -469h1083v-94h-1083v94z" />
<glyph unicode="`" horiz-adv-x="626" d="M182 1450l119 33l156 -281h-97z" />
<glyph unicode="a" horiz-adv-x="1058" d="M80 262q0 391 682 391h18v19q0 115 -66.5 208t-219.5 93q-113 0 -334 -70l-15 111q172 55 357 55q397 0 397 -438v-375q0 -129 37 -256l-107 -23l-43 170q-145 -176 -372 -176q-143 0 -238.5 80t-95.5 211zM207 283q0 -113 66.5 -161t148.5 -48q84 0 151.5 25.5 t104.5 61.5t61.5 75.5t32.5 65.5t8 36v211q-573 0 -573 -266z" />
<glyph unicode="b" horiz-adv-x="1234" d="M152 0q8 72 8 256v1300h121v-708q135 221 397 221q217 0 344 -149.5t127 -382.5q0 -254 -131 -410t-359 -156q-246 0 -391 213q0 -104 -6 -184h-110zM281 420q0 -152 105.5 -249t256.5 -97q389 0 389 458q0 80 -19.5 154t-60.5 140.5t-117.5 106.5t-179.5 40 q-154 0 -264 -107.5t-110 -271.5v-174z" />
<glyph unicode="c" horiz-adv-x="1017" d="M84 520q0 250 145.5 399.5t407.5 149.5q190 0 324 -74l-43 -98q-113 74 -287 74q-184 0 -307 -119t-123 -332q0 -217 124 -332.5t306 -115.5q172 0 287 73l43 -98q-131 -76 -324 -76q-262 0 -407.5 149.5t-145.5 399.5z" />
<glyph unicode="d" horiz-adv-x="1234" d="M86 537q0 236 127 384t344 148q262 0 397 -221v708h121v-1300q0 -184 8 -256h-110q-6 80 -6 184q-145 -213 -392 -213q-227 0 -358 156t-131 410zM203 532q0 -458 389 -458q154 0 258 97t104 249v174q0 168 -111.5 273.5t-262.5 105.5q-178 0 -277.5 -122t-99.5 -319z " />
<glyph unicode="e" horiz-adv-x="1150" d="M84 496q0 262 146.5 417.5t375.5 155.5q440 0 451 -551h-856q6 -213 124.5 -326.5t305.5 -113.5q188 0 366 69l11 -100q-176 -76 -390 -76q-246 0 -390 149.5t-144 375.5zM207 612h735q0 55 -16.5 111.5t-53 116t-109.5 96.5t-171 37q-154 0 -258.5 -100.5t-126.5 -260.5 z" />
<glyph unicode="f" horiz-adv-x="632" d="M16 952v95h179v40q0 494 372 494q117 0 176 -49l-34 -88q-70 35 -152 35q-246 0 -246 -392v-40h301v-95h-301v-952h-121v952h-174z" />
<glyph unicode="g" horiz-adv-x="956" d="M111 680q0 174 105.5 272.5t246.5 98.5h409v-99l-151 15q127 -123 127 -265q0 -176 -107.5 -276t-263.5 -100q-90 0 -164 34q-18 -45 -18 -90t56.5 -75.5t137 -55t160.5 -57.5t136.5 -99.5t56.5 -164.5q0 -51 -17.5 -99.5t-56.5 -96.5t-117 -76.5t-186 -28.5 q-166 0 -299 82l43 100q133 -78 266 -78q113 0 187.5 52.5t74.5 136.5q0 76 -56 128t-135 80.5t-159 56t-136 76t-56 119.5q0 53 30 150q-114 125 -114 260zM219 684q0 -123 79 -193.5t179 -70.5q109 0 187.5 68.5t78.5 197.5q0 106 -72.5 189t-193.5 83 q-127 0 -192.5 -82.5t-65.5 -191.5z" />
<glyph unicode="h" horiz-adv-x="1200" d="M160 0v1556h121v-696q125 209 350 209q410 0 409 -475v-594h-118v594q-1 377 -316 377q-127 0 -226 -105.5t-99 -230.5v-635h-121z" />
<glyph unicode="i" horiz-adv-x="440" d="M121 1364q0 45 25.5 71.5t68.5 26.5q45 0 71.5 -27.5t26.5 -70.5t-26.5 -68.5t-71.5 -25.5q-51 0 -72.5 29.5t-21.5 64.5zM160 0v1047h121v-1047h-121z" />
<glyph unicode="j" horiz-adv-x="477" d="M-129 -360q186 16 256 111t70 304v992h120v-1024q-6 -469 -434 -480zM158 1364q0 45 25.5 71.5t68.5 26.5q45 0 71.5 -27.5t26.5 -70.5t-26.5 -68.5t-71.5 -25.5q-51 0 -72.5 29.5t-21.5 64.5z" />
<glyph unicode="k" horiz-adv-x="972" d="M160 0v1556h121v-981l520 488l123 -25l-449 -426l533 -608l-121 -35l-498 576l-108 -105v-440h-121z" />
<glyph unicode="l" horiz-adv-x="614" d="M160 526v1030h121v-983q0 -244 57 -365.5t223 -123.5l-12 -107q-389 18 -389 549z" />
<glyph unicode="m" horiz-adv-x="1851" d="M139 1047h113q23 -66 24 -187q121 209 353 209q213 0 317 -233q123 233 375 233q182 0 276.5 -135t94.5 -352v-582h-121v580q0 172 -70.5 281.5t-212.5 109.5q-123 0 -213 -94.5t-90 -210.5v-666h-119v635q0 336 -266 336q-127 0 -223 -105.5t-96 -230.5v-635h-121v788 q0 92 -21 259z" />
<glyph unicode="n" horiz-adv-x="1200" d="M139 1047h113q23 -66 24 -187q121 209 355 209q410 0 409 -475v-594h-118v594q-1 377 -316 377q-127 0 -226 -105.5t-99 -230.5v-635h-121v788q0 92 -21 259z" />
<glyph unicode="o" horiz-adv-x="1224" d="M86 520.5q0 237.5 146.5 393t379.5 155.5q236 0 382.5 -155.5t146.5 -393t-146.5 -394.5t-382.5 -157q-233 0 -379.5 157t-146.5 394.5zM203 520.5q0 -190.5 113.5 -319.5t295.5 -129t296 128t114 320.5t-113.5 319.5t-296 127t-296 -128t-113.5 -318.5z" />
<glyph unicode="p" horiz-adv-x="1234" d="M152 1040h110q6 -80 6 -184q145 213 391 213q227 0 358.5 -155.5t131.5 -407.5q0 -240 -130 -387.5t-341 -147.5q-262 0 -397 224v-709h-121v1300q0 186 -8 254zM281 446q0 -164 112 -271t262 -107q178 0 278.5 118.5t100.5 321.5q0 88 -18.5 162.5t-59.5 144.5 t-120.5 111t-192.5 41q-158 0 -260 -98.5t-102 -245.5v-177z" />
<glyph unicode="q" horiz-adv-x="1234" d="M152 506q0 252 131 407.5t358 155.5q246 0 391 -213q0 104 6 184h111q-8 -68 -8 -254v-1300h-121v709q-135 -224 -397 -224q-211 0 -341 147.5t-130 387.5zM264 508q0 -199 101.5 -319.5t277.5 -120.5q152 0 264.5 106.5t112.5 271.5v177q0 147 -102.5 245.5t-262.5 98.5 q-193 0 -292 -123t-99 -336z" />
<glyph unicode="r" horiz-adv-x="667" d="M129 1047h102q33 -66 33 -209q98 231 318 231q29 0 59 -6v-102q-12 4 -37 4q-240 0 -315 -297q-8 -31 -8 -105v-563h-121v705q0 231 -31 342z" />
<glyph unicode="s" horiz-adv-x="868" d="M90 55l45 99q147 -80 260 -80q258 0 258 194q0 152 -243 226q-281 86 -281 282q0 113 85 203t261 90q162 0 258 -72l-49 -98q-92 74 -231 74q-106 0 -157.5 -55.5t-51.5 -124.5q0 -125 239 -207q281 -96 281 -310q0 -129 -98.5 -217t-280.5 -88q-152 0 -295 84z" />
<glyph unicode="t" horiz-adv-x="731" d="M18 952v95h209v311l121 55v-366h336v-95h-336v-641q0 -233 158 -233q96 0 141 18l12 -96q-63 -29 -163 -29q-127 0 -198 93.5t-71 242.5v645h-209z" />
<glyph unicode="u" horiz-adv-x="1200" d="M160 459v588h121v-566q-1 -403 282 -403q137 0 248 91t111 245v633h118v-791q0 -111 54 -252l-115 -27q-37 109 -49 205q-135 -211 -393 -211q-377 0 -377 488z" />
<glyph unicode="v" horiz-adv-x="1048" d="M10 1047h123l387 -918l398 918h122l-471 -1047h-106z" />
<glyph unicode="w" horiz-adv-x="1560" d="M10 1047h125l279 -906l313 906h115l295 -906l305 906h121l-377 -1047h-105l-301 924l-317 -924h-113z" />
<glyph unicode="x" horiz-adv-x="978" d="M0 0l426 532l-397 515h135l332 -424l329 424h133l-401 -510l422 -537h-141l-351 453l-348 -453h-139z" />
<glyph unicode="y" horiz-adv-x="1036" d="M10 1047h129l391 -887l367 887h131l-461 -1047q-182 -410 -483 -481l-29 96q262 59 398 420q0 12 -9 37z" />
<glyph unicode="z" horiz-adv-x="987" d="M47 0v74l739 874h-702l18 99h834l-2 -82l-737 -867h755l-24 -98h-881z" />
<glyph unicode="{" horiz-adv-x="638" d="M41 580v92q190 5 190 159q0 59 -21.5 182.5t-21.5 182.5q0 293 332 293h35v-94h-47q-213 0 -213 -211q43 -311 43 -342q0 -158 -123 -217q123 -59 123 -215q0 -33 -43 -342q0 -213 213 -213h47v-93h-35q-332 0 -332 293q0 45 21.5 179.5t21.5 185.5q0 154 -190 160z" />
<glyph unicode="|" horiz-adv-x="471" d="M184 -537v2163h103v-2163h-103z" />
<glyph unicode="}" horiz-adv-x="638" d="M86 -145h47q211 0 211 213q-43 311 -43 342q0 158 125 215q-125 57 -125 217q0 31 43 342q0 211 -211 211h-47v94h35q332 0 332 -293q0 -59 -21.5 -182t-21.5 -183q0 -154 190 -159v-92q-190 -6 -190 -160q0 -51 21.5 -185.5t21.5 -179.5q0 -293 -332 -293h-35v93z" />
<glyph unicode="~" horiz-adv-x="1280" d="M80 465q0 96 27.5 161.5t71.5 93.5t78 38t69 10q106 0 323 -97.5t316 -97.5q129 0 139 195h94q0 -172 -73.5 -237.5t-166.5 -65.5q-109 0 -323.5 100.5t-308.5 100.5q-143 0 -150 -201h-96z" />
<glyph horiz-adv-x="1304" d="M68 0v80l995 1284h-934l18 102h1070v-84l-992 -1280h1032l-24 -102h-1165zM397 1843h113l141 -160l144 160h112l-211 -239h-88z" />
<glyph unicode="&#x17d;" horiz-adv-x="1304" d="M68 0v80l995 1284h-934l18 102h1070v-84l-992 -1280h1032l-24 -102h-1165zM397 1843h113l141 -160l144 160h112l-211 -239h-88z" />
<glyph horiz-adv-x="987" d="M47 0v74l739 874h-702l18 99h834l-2 -82l-737 -867h755l-24 -98h-881zM238 1423h112l142 -159l143 159h113l-211 -239h-88z" />
<glyph unicode="&#x17e;" horiz-adv-x="987" d="M47 0v74l739 874h-702l18 99h834l-2 -82l-737 -867h755l-24 -98h-881zM238 1423h112l142 -159l143 159h113l-211 -239h-88z" />
<glyph unicode="&#xa1;" horiz-adv-x="464" d="M117 936q0 49 33.5 82t80.5 33q45 0 79 -33t34 -82q0 -47 -34 -80t-79 -33q-49 0 -81.5 34t-32.5 79zM145 -432l31 1073h107l30 -1073h-168z" />
<glyph unicode="&#xa2;" horiz-adv-x="1265" d="M98 733q0 270 146.5 441.5t398.5 214.5v280h102v-268q29 4 66 4q182 0 344 -59l-25 -111q-139 72 -313 72q-287 0 -442.5 -149.5t-155.5 -430.5q0 -158 51.5 -270.5t138.5 -171t183 -84t207 -25.5q193 0 329 62l37 -91q-152 -80 -420 -79v-250h-102v256 q-59 8 -117.5 25.5t-140.5 64.5t-141.5 114.5t-102.5 186.5t-43 268z" />
<glyph unicode="&#xa3;" horiz-adv-x="1265" d="M176 0v78q262 160 262 409q0 63 -16 179h-244v96h236q-25 147 -25 248q0 410 393 409q127 0 256 -61l-37 -88q-123 49 -225 49q-281 0 -280 -311q0 -109 28 -246h348v-96h-335q12 -72 12 -158q0 -258 -166 -406h704v-102h-911z" />
<glyph unicode="&#xa4;" horiz-adv-x="1265" d="M68 225l120 125q-121 152 -120 342q0 197 120 352l-120 123l90 97l123 -129q158 125 348 125q199 0 350 -125l133 129l86 -97l-123 -123q117 -135 117 -352q0 -203 -117 -342l123 -125l-88 -92l-131 129q-141 -129 -350 -129q-201 0 -348 129l-123 -129zM188 692 q0 -190 131.5 -319t309.5 -129q186 0 313 133t127 315q0 188 -127 324.5t-313 136.5q-178 0 -309.5 -134t-131.5 -327z" />
<glyph unicode="&#xa5;" horiz-adv-x="1265" d="M104 1413h142l385 -649l385 649h145l-471 -764h373v-92h-373v-174h373v-90h-373v-234h-115v234h-368v90h368v174h-368v90h368z" />
<glyph unicode="&#xa6;" horiz-adv-x="471" d="M184 -379v768h103v-768h-103zM184 698v764h103v-764h-103z" />
<glyph unicode="&#xa7;" horiz-adv-x="1150" d="M170 768q0 135 137 246q-70 70 -69 166q0 133 102 215t266 82q166 0 299 -82l-51 -88q-108 79 -262 79q-102 0 -173 -52t-71 -136q0 -76 70.5 -125t236.5 -106q328 -111 328 -318q0 -141 -129 -264q74 -74 74 -184q0 -147 -110.5 -234.5t-278.5 -87.5q-193 0 -318 103 l49 86q102 -96 275 -97q127 0 202.5 58.5t75.5 154.5q0 133 -170 211l-315 125q-168 86 -168 248zM274 774q0 -68 67 -122t148.5 -83.5t174 -63.5t124.5 -61q80 97 80 191q0 66 -67.5 128t-165.5 97q-186 61 -256 105q-104 -88 -105 -191z" />
<glyph unicode="&#xa8;" horiz-adv-x="651" d="M43 1300.5q0 40.5 26.5 67.5t65.5 27q43 0 69.5 -28t26.5 -67q0 -41 -26.5 -66.5t-69.5 -25.5q-39 0 -65.5 26t-26.5 66.5zM426 1300q0 39 25.5 67t66.5 28t67.5 -28t26.5 -67q0 -41 -27.5 -66.5t-66.5 -25.5q-41 0 -66.5 26t-25.5 66z" />
<glyph unicode="&#xa9;" horiz-adv-x="1650" d="M78 739.5q0 309.5 218 529.5t529 220q313 0 531.5 -220.5t218.5 -529.5t-218 -529t-532 -220q-311 0 -529 220t-218 529.5zM188 739q0 -268 185.5 -452.5t451.5 -184.5q268 0 452.5 185.5t184.5 451.5q0 268 -185 452.5t-452 184.5q-268 0 -452.5 -185t-184.5 -452z M377 717q0 223 127 345t327 122q195 0 293 -74l-37 -94q-117 68 -256 67q-332 -18 -331 -350q0 -336 336 -354q156 0 264 78l41 -97q-121 -90 -324 -90q-205 0 -322.5 130.5t-117.5 316.5z" />
<glyph unicode="&#xaa;" horiz-adv-x="757" d="M74 961q0 242 463 247v21q0 57 -43 105t-140 48q-106 0 -190 -63l-35 76q113 82 248 82q266 0 266 -330v-207q0 -80 10 -178h-96l-14 100q-86 -111 -232 -110q-238 0 -237 209zM182 961q1 -117 148 -117q61 0 134 45t73 102v131q-354 0 -355 -161z" />
<glyph unicode="&#xab;" horiz-adv-x="917" d="M35 545l338 407h129l-338 -407l342 -398h-129zM377 545l338 407h129l-338 -407l342 -398h-131z" />
<glyph unicode="&#xac;" horiz-adv-x="1292" d="M72 737v101h1120v-557h-121v456h-999z" />
<glyph unicode="&#xad;" horiz-adv-x="663" d="M61 508v102h539v-102h-539z" />
<glyph unicode="&#xae;" horiz-adv-x="1650" d="M78 739.5q0 309.5 218 529.5t529 220q313 0 531.5 -220.5t218.5 -529.5t-218 -529t-532 -220q-311 0 -529 220t-218 529.5zM188 739q0 -268 185.5 -452.5t451.5 -184.5q268 0 452.5 185.5t184.5 451.5q0 268 -185 452.5t-452 184.5q-268 0 -452.5 -185t-184.5 -452z M539 287v897q111 20 256 24q156 0 251 -65.5t95 -194.5q0 -160 -127 -227q121 -109 157 -434h-120q-55 391 -201 391h-188v-391h-123zM662 793h167q84 0 137.5 35.5t53.5 105.5q0 166 -213 166q-78 0 -145 -10v-297z" />
<glyph unicode="&#xaf;" horiz-adv-x="1083" d="M0 1626v96h1083v-96h-1083z" />
<glyph unicode="&#xb0;" horiz-adv-x="651" d="M61 1223q0 111 77 188.5t186 77.5q111 0 187.5 -79t76.5 -187q0 -106 -77 -184t-187 -78q-109 0 -186 77.5t-77 184.5zM154 1222.5q0 -69.5 48 -120.5t122 -51t123 51t49 121q0 76 -51.5 126t-120.5 50q-74 0 -122 -53.5t-48 -123z" />
<glyph unicode="&#xb1;" horiz-adv-x="1265" d="M117 0v98h1032v-98h-1032zM117 618v99h463v383h106v-383h463v-99h-463v-409h-106v409h-463z" />
<glyph unicode="&#xb2;" horiz-adv-x="782" d="M78 604q2 57 46 127t91 120t126 127t110 109q80 84 79 166q0 133 -133 133q-147 0 -164 -169l-104 18q12 113 81 180.5t179.5 67.5t178 -62.5t67.5 -167.5q0 -123 -166 -299l-250 -256h428l-12 -94h-557z" />
<glyph unicode="&#xb3;" horiz-adv-x="782" d="M109 666l45 98q72 -59 163 -59q113 0 178.5 58t65.5 152q0 135 -129 136q-88 0 -137 -43l-43 75q178 123 211 160t33 78q0 61 -101 61q-129 0 -180 -135l-88 47q82 190 276 191q195 0 195 -160q0 -57 -43 -114.5t-96 -80.5q203 -12 203 -212q0 -129 -85 -221.5 t-268 -92.5q-125 0 -200 62z" />
<glyph unicode="&#xb4;" horiz-adv-x="651" d="M166 1626l153 281h156l-213 -281h-96z" />
<glyph unicode="&#xb5;" horiz-adv-x="1249" d="M176 -432v1479h117v-596q0 -373 313 -373q139 0 249 101.5t110 230.5v637h116v-791q0 -188 23 -256h-115q-16 92 -16 160v35q-174 -223 -393 -224q-178 0 -287 158v-561h-117z" />
<glyph unicode="&#xb6;" horiz-adv-x="1150" d="M139 989q0 473 611 473q168 0 239 -14v-1643h-104v1559h-148v-1559h-108v750q-231 0 -360.5 128t-129.5 306z" />
<glyph unicode="&#xb7;" horiz-adv-x="497" d="M141 557q0 43 30 76t75 33t76.5 -33t31.5 -76q0 -45 -32.5 -74.5t-75.5 -29.5q-45 0 -75 30.5t-30 73.5z" />
<glyph unicode="&#xb8;" horiz-adv-x="651" d="M109 -389l30 70q66 -31 119 -31q119 0 119 86q0 76 -195 92l119 184h100l-84 -116q154 -37 154 -146q0 -178 -215 -178q-76 0 -147 39z" />
<glyph unicode="&#xb9;" horiz-adv-x="782" d="M182 1296l219 195q63 -6 64 -86v-713h133v-74h-377v74h135v633l-116 -102z" />
<glyph unicode="&#xba;" horiz-adv-x="876" d="M61 1110q0 152 109.5 265.5t267.5 113.5q152 0 265.5 -113.5t113.5 -265.5q0 -160 -114.5 -268.5t-264.5 -108.5q-156 0 -266.5 109.5t-110.5 267.5zM170 1110q0 -115 77.5 -191.5t190.5 -76.5q111 0 191 76.5t80 191.5q0 113 -79 191.5t-192 78.5q-115 0 -191.5 -79.5 t-76.5 -190.5z" />
<glyph unicode="&#xbb;" horiz-adv-x="905" d="M59 147l342 398l-340 407h129l340 -407l-342 -398h-129zM401 147l342 398l-340 407h129l340 -407l-342 -398h-129z" />
<glyph unicode="&#xbc;" horiz-adv-x="1650" d="M92 1239l219 193q66 -6 66 -86v-699h131v-74h-375v74h135v619l-116 -101zM348 -29l875 1467h102l-874 -1467h-103zM958 190q2 133 53.5 287t159 277t240.5 127v-588h135l-6 -103h-129v-190h-108v190h-345zM1071 293h232v457q-80 -72 -153 -214.5t-79 -242.5z" />
<glyph unicode="&#xbd;" horiz-adv-x="1650" d="M92 1239l219 193q66 -6 66 -86v-699h131v-74h-375v74h135v619l-116 -101zM348 -29l875 1467h102l-874 -1467h-103zM1001 0q2 53 44 120.5t81 111.5t130.5 132.5t119.5 118.5q78 88 78 166q0 133 -133 133q-145 0 -162 -170l-106 19q12 115 81.5 181.5t178.5 66.5 q115 0 182.5 -60.5t67.5 -169.5q0 -125 -168 -299l-240 -254h416l-12 -96h-558z" />
<glyph unicode="&#xbe;" horiz-adv-x="1650" d="M109 629l45 98q72 -59 163 -59q113 0 178.5 58t65.5 153q0 135 -129 135q-88 0 -137 -43l-43 76q178 123 211 159.5t33 77.5q0 61 -101 62q-141 0 -180 -136l-88 47q82 190 276 191q195 0 195 -160q0 -57 -43 -114.5t-96 -79.5q203 -31 203 -213q0 -129 -85 -221.5 t-268 -92.5q-125 0 -200 62zM348 -29l875 1467h102l-874 -1467h-103zM958 190q2 133 53.5 287t159 277t240.5 127v-588h135l-6 -103h-129v-190h-108v190h-345zM1071 293h232v457q-80 -72 -153 -214.5t-79 -242.5z" />
<glyph unicode="&#xbf;" horiz-adv-x="888" d="M104 -147q0 162 195 368q152 164 152 318q0 51 -11 98h105q16 -49 16 -107q0 -166 -168 -352t-168 -319q0 -221 252 -221q145 0 246 79l47 -94q-145 -94 -313 -94q-172 0 -262.5 93t-90.5 231zM383 936q0 49 34 82t79 33q49 0 81.5 -34t32.5 -81q0 -45 -32.5 -79 t-81.5 -34q-47 0 -80 34t-33 79z" />
<glyph unicode="&#xc2;" horiz-adv-x="1230" d="M0 0l555 1489h123l555 -1489h-133l-170 471h-631l-166 -471h-133zM336 573h557l-277 783zM360 1628l211 240h88l211 -240h-112l-144 160l-141 -160h-113z" />
<glyph unicode="&#xc4;" horiz-adv-x="1230" d="M0 0l555 1489h123l555 -1489h-133l-170 471h-631l-166 -471h-133zM330 1720q0 41 26 68q27 27 66 27q43 0 70 -28t26 -67q0 -41 -26 -66q-27 -26 -70 -26q-39 0 -66 26t-26 66zM336 573h557l-277 783zM713 1720q0 39 25 67q26 28 67 28t67 -28q27 -28 27 -67 q0 -41 -28 -66q-28 -26 -66 -26q-41 0 -67 26t-25 66z" />
<glyph unicode="&#xc5;" horiz-adv-x="1230" d="M0 0l555 1489h123l555 -1489h-133l-170 471h-631l-166 -471h-133zM336 573h557l-277 783zM391 1776q0 96 67 163q66 68 154 68q98 0 163 -69t65 -162q0 -90 -65 -156t-163 -66q-88 0 -154 66q-67 66 -67 156zM485 1772q0 -51 38 -89q38 -36 93 -36q57 0 97 35 q39 36 39 90q0 59 -39 98t-97 39q-57 0 -94 -40t-37 -97z" />
<glyph unicode="&#xc6;" horiz-adv-x="1792" d="M-23 0l787 1466h874v-102h-702l74 -541h596v-102h-580l92 -619h557v-102h-659l-86 604h-504l-322 -604h-127zM475 702h440l-84 678z" />
<glyph unicode="&#xc7;" horiz-adv-x="1249" d="M72 737q0 330 197.5 541t498.5 211q233 0 399 -78l-37 -98q-164 70 -356 69q-252 0 -415.5 -185t-163.5 -464q0 -283 165.5 -466t413.5 -183q193 0 356 70l37 -99q-166 -78 -399 -78q-37 0 -55 3l-60 -84q154 -37 154 -146q0 -178 -215 -178q-76 0 -148 39l31 70 q66 -31 119 -31q119 0 119 86q0 76 -195 92l107 164q-244 51 -398.5 249.5t-154.5 495.5z" />
<glyph unicode="&#xca;" horiz-adv-x="1079" d="M166 0v1466h799v-102h-678v-539h604v-102h-604v-621h678v-102h-799zM285 1628l211 240h88l211 -240h-113l-143 160l-142 -160h-112z" />
<glyph unicode="&#xcb;" horiz-adv-x="1079" d="M166 0v1466h799v-102h-678v-539h604v-102h-604v-621h678v-102h-799zM256 1720q0 41 27 68q26 27 65 27q43 0 70 -28t26 -67q0 -41 -26 -66q-27 -26 -70 -26q-39 0 -65 26q-27 26 -27 66zM639 1720q0 39 26 67q25 28 66 28t68 -28t26 -67q0 -41 -27 -66q-28 -26 -67 -26 q-41 0 -66 26q-26 26 -26 66z" />
<glyph unicode="&#xce;" horiz-adv-x="452" d="M-8 1628l211 240h88l211 -240h-113l-143 160l-142 -160h-112zM166 0v1466h121v-1466h-121z" />
<glyph unicode="&#xcf;" horiz-adv-x="452" d="M-41 1720q0 41 27 68q26 27 65 27q43 0 70 -28t26 -67q0 -41 -26 -66q-27 -26 -70 -26q-39 0 -65 26q-27 26 -27 66zM166 0v1466h121v-1466h-121zM342 1720q0 39 26 67q25 28 66 28t68 -28t26 -67q0 -41 -27 -66q-28 -26 -67 -26q-41 0 -66 26q-26 26 -26 66z" />
<glyph unicode="&#xd0;" horiz-adv-x="1327" d="M16 655v103h150v686q278 39 438 39q287 0 461 -194.5t174 -524.5q0 -776 -696 -776q-80 0 -377 28v639h-150zM287 111q154 -19 293 -19q262 0 400 183.5t138 488.5q0 276 -139 444t-385 168q-94 0 -307 -24v-594h518v-103h-518v-544z" />
<glyph unicode="&#xd1;" horiz-adv-x="1357" d="M166 0v1466h139l770 -1278v1278h117v-1466h-127l-776 1296v-1296h-123zM401 1622q2 100 48 142q45 42 102 42q49 0 132 -51t124 -51q51 0 61 108h78q-6 -184 -153 -184q-45 0 -131 50t-113 51q-10 0 -24 -7q-13 -6 -28 -32q-15 -27 -20 -68h-76z" />
<glyph unicode="&#xd4;" horiz-adv-x="1497" d="M68 729q0 332 188 547t494 215q303 0 491 -215q189 -215 189 -547t-188 -546q-187 -214 -492 -214q-303 0 -493 214q-189 214 -189 546zM188 729q0 -276 157 -466q157 -189 405 -189q246 0 402 190q157 190 157 465q0 276 -156 467q-156 190 -403 190q-248 0 -405 -190 q-157 -191 -157 -467zM494 1628l211 240h88l211 -240h-113l-143 160l-142 -160h-112z" />
<glyph unicode="&#xd6;" horiz-adv-x="1497" d="M68 729q0 332 188 547t494 215q303 0 491 -215q189 -215 189 -547t-188 -546q-187 -214 -492 -214q-303 0 -493 214q-189 214 -189 546zM188 729q0 -276 157 -466q157 -189 405 -189q246 0 402 190q157 190 157 465q0 276 -156 467q-156 190 -403 190q-248 0 -405 -190 q-157 -191 -157 -467zM463 1720q0 41 26 68q27 27 66 27q43 0 70 -28t26 -67q0 -41 -26 -66q-27 -26 -70 -26q-39 0 -66 26t-26 66zM846 1720q0 39 25 67q26 28 67 28t68 -28t26 -67q0 -41 -27 -66q-28 -26 -67 -26q-41 0 -67 26t-25 66z" />
<glyph unicode="&#xd7;" horiz-adv-x="1265" d="M145 109l406 428l-406 428l80 73l406 -426l407 426l80 -73l-407 -428l407 -428l-80 -74l-407 424l-406 -424z" />
<glyph unicode="&#xd8;" horiz-adv-x="1497" d="M68 729q0 332 188 547t494 215q156 0 284 -61l43 90h127l-74 -146q139 -102 219.5 -267t80.5 -378q0 -332 -187.5 -546t-492.5 -214q-160 0 -285 56l-55 -115h-117l80 168q-305 219 -305 651zM188 729q0 -352 238 -545l559 1147q-106 55 -235 55q-248 0 -405 -190 t-157 -467zM514 127q107 -53 236 -53q246 0 402.5 190.5t156.5 464.5q0 113 -27 211t-69 162.5t-73.5 102.5t-62.5 61z" />
<glyph unicode="&#xdb;" horiz-adv-x="1433" d="M166 618v848h121v-843q0 -137 28 -240q29 -102 72 -160q43 -57 103 -92t114 -46q53 -11 113 -11q432 0 432 534v858h121v-848q0 -647 -553 -647q-551 0 -551 647zM463 1628l211 240h88l211 -240h-113l-143 160l-142 -160h-112z" />
<glyph unicode="&#xdc;" horiz-adv-x="1433" d="M166 618v848h121v-843q0 -137 28 -240q29 -102 72 -160q43 -57 103 -92t114 -46q53 -11 113 -11q432 0 432 534v858h121v-848q0 -647 -553 -647q-551 0 -551 647zM432 1720q0 41 27 68q26 27 65 27q43 0 70 -28t27 -67q0 -41 -27 -66q-27 -26 -70 -26q-39 0 -65 26 q-27 26 -27 66zM815 1720q0 39 26 67q25 28 66 28t68 -28t26 -67q0 -41 -27 -66q-28 -26 -67 -26q-41 0 -66 26q-26 26 -26 66z" />
<glyph unicode="&#xde;" horiz-adv-x="1169" d="M184 0v1466h117v-288q129 32 254 32q223 0 374.5 -110.5t151.5 -292.5q0 -133 -51 -229.5t-140 -146.5t-184.5 -71.5t-203.5 -21.5q-76 0 -201 24v-362h-117zM301 471q111 -33 207 -33q211 0 335 88t124 267q0 156 -112 237.5t-300 81.5q-117 0 -254 -43v-598z" />
<glyph unicode="&#xdf;" horiz-adv-x="1206" d="M127 -426q57 117 57 260v1102q0 565 451 565q154 0 257 -95t103 -263q0 -70 -31.5 -124t-69.5 -83t-69.5 -69t-31.5 -85q0 -39 47 -90t104 -97t104.5 -123t47.5 -159q0 -158 -99.5 -250t-273.5 -92q-152 0 -260 64l37 100q117 -61 227 -61q135 0 196.5 67.5t61.5 153.5 q0 61 -49 126.5t-107.5 115t-107.5 119t-49 137.5q0 59 52 121.5t104.5 120t52.5 102.5q0 252 -269 252q-307 0 -307 -504v-1051q0 -166 -67 -291z" />
<glyph unicode="&#xe2;" horiz-adv-x="1058" d="M80 262q0 391 682 391h18v19q0 115 -66 208q-67 93 -220 93q-113 0 -334 -70l-15 111q172 55 357 55q397 0 397 -438v-375q0 -129 37 -256l-107 -23l-43 170q-145 -176 -372 -176q-143 0 -239 80q-95 80 -95 211zM207 283q0 -113 66 -161q67 -48 149 -48q84 0 151 25 q68 26 105 62t61 76q25 40 33 65q8 26 8 36v211q-573 0 -573 -266zM274 1208l211 240h88l211 -240h-112l-144 160l-141 -160h-113z" />
<glyph unicode="&#xe4;" horiz-adv-x="1058" d="M80 262q0 391 682 391h18v19q0 115 -66 208q-67 93 -220 93q-113 0 -334 -70l-15 111q172 55 357 55q397 0 397 -438v-375q0 -129 37 -256l-107 -23l-43 170q-145 -176 -372 -176q-143 0 -239 80q-95 80 -95 211zM207 283q0 -113 66 -161q67 -48 149 -48q84 0 151 25 q68 26 105 62t61 76q25 40 33 65q8 26 8 36v211q-573 0 -573 -266zM244 1300q0 41 26 68q27 27 66 27q43 0 70 -28t26 -67q0 -41 -26 -66q-27 -26 -70 -26q-39 0 -66 26t-26 66zM627 1300q0 39 25 67q26 28 67 28t67 -28q27 -28 27 -67q0 -41 -28 -66q-28 -26 -66 -26 q-41 0 -67 26t-25 66z" />
<glyph unicode="&#xe5;" horiz-adv-x="1058" d="M80 262q0 391 682 391h18v19q0 115 -66 208q-67 93 -220 93q-113 0 -334 -70l-15 111q172 55 357 55q397 0 397 -438v-375q0 -129 37 -256l-107 -23l-43 170q-145 -176 -372 -176q-143 0 -239 80q-95 80 -95 211zM207 283q0 -113 66 -161q67 -48 149 -48q84 0 151 25 q68 26 105 62t61 76q25 40 33 65q8 26 8 36v211q-573 0 -573 -266zM305 1356q0 96 67 164q66 67 154 67q98 0 163 -68q65 -69 65 -163q0 -90 -65 -156t-163 -65q-88 0 -154 65q-67 66 -67 156zM399 1352q0 -51 38 -88t93 -37q57 0 97 36q39 36 39 89q0 59 -39 98t-97 39 q-57 0 -94 -40t-37 -97z" />
<glyph unicode="&#xe6;" horiz-adv-x="1871" d="M80 262q0 199 172 295t528 96q0 174 -83 247t-203 73q-113 0 -334 -70l-15 111q172 55 357 55q285 0 366 -233q147 233 435 233q440 0 450 -551h-856q6 -213 125 -326.5t305 -113.5q188 0 367 69l10 -100q-176 -76 -389 -76q-315 0 -467 269q-86 -268 -434 -269 q-143 0 -238.5 80t-95.5 211zM207 283q0 -113 66.5 -161t148.5 -48q61 0 118.5 17.5t115 55t91 113.5t33.5 180v109q-573 0 -573 -266zM903 612h735q0 55 -16 111.5t-53 116t-110 96.5t-171 37q-154 0 -258 -100.5t-127 -260.5z" />
<glyph unicode="&#xe7;" horiz-adv-x="1017" d="M84 520q0 250 145.5 399.5t407.5 149.5q190 0 324 -74l-43 -98q-113 74 -287 74q-184 0 -307 -119t-123 -332q0 -217 124 -332.5t306 -115.5q172 0 287 73l43 -98q-131 -76 -324 -76q-35 0 -53 2l-47 -67q137 -33 137 -131q0 -160 -193 -160q-72 0 -133 35l27 63 q61 -29 106 -28q109 0 109 77q0 70 -176 82l88 140q-199 37 -308.5 179t-109.5 357z" />
<glyph unicode="&#xea;" horiz-adv-x="1150" d="M84 496q0 262 146 417q146 156 376 156q440 0 451 -551h-856q6 -213 125 -327t305 -113q188 0 366 69l11 -100q-176 -76 -390 -76q-246 0 -390 150t-144 375zM207 612h735q0 55 -16 112q-16 56 -54 116q-37 59 -109 96q-73 37 -171 37q-154 0 -258 -101 q-104 -100 -127 -260zM322 1208l210 240h89l210 -240h-112l-144 160l-141 -160h-112z" />
<glyph unicode="&#xeb;" horiz-adv-x="1150" d="M84 496q0 262 146 417q146 156 376 156q440 0 451 -551h-856q6 -213 125 -327t305 -113q188 0 366 69l11 -100q-176 -76 -390 -76q-246 0 -390 150t-144 375zM207 612h735q0 55 -16 112q-16 56 -54 116q-37 59 -109 96q-73 37 -171 37q-154 0 -258 -101 q-104 -100 -127 -260zM289 1300q0 41 26 68q27 27 66 27q43 0 70 -28t26 -67q0 -41 -26 -66q-27 -26 -70 -26q-39 0 -66 26t-26 66zM672 1300q0 39 25 67q26 28 67 28t67 -28q27 -28 27 -67q0 -41 -28 -66q-28 -26 -66 -26q-41 0 -67 26t-25 66z" />
<glyph unicode="&#xee;" horiz-adv-x="440" d="M-14 1208l211 240h88l211 -240h-113l-143 160l-142 -160h-112zM160 0v1047h116v-1047h-116z" />
<glyph unicode="&#xef;" horiz-adv-x="440" d="M-47 1300q0 41 27 68q26 27 65 27q43 0 70 -28t26 -67q0 -41 -26 -66q-27 -26 -70 -26q-39 0 -65 26q-27 26 -27 66zM160 0v1047h116v-1047h-116zM336 1300q0 39 25 67q26 28 67 28t68 -28t26 -67q0 -41 -27 -66q-28 -26 -67 -26q-41 0 -67 26t-25 66z" />
<glyph unicode="&#xf0;" horiz-adv-x="1114" d="M117 434.5q0 198.5 113.5 334.5t295.5 136q129 0 212 -52t104 -101q-70 236 -260 419l-269 -170l-51 82l240 156q-135 102 -295 150l8 90q219 -43 389 -176l232 151l51 -84l-207 -135q39 -35 75 -78t98 -137t100 -229.5t38 -288.5q0 -240 -121.5 -389.5t-332.5 -149.5 q-197 0 -308.5 136.5t-111.5 335zM240 434q0 -152 80.5 -259t230.5 -107q135 0 226 106.5t91 259.5q0 156 -91 263.5t-226 107.5q-141 0 -226 -106.5t-85 -264.5z" />
<glyph unicode="&#xf1;" horiz-adv-x="1200" d="M139 1047h113q23 -66 24 -187q121 209 355 209q410 0 409 -475v-594h-118v594q-1 377 -316 377q-127 0 -226 -106q-99 -105 -99 -230v-635h-121v788q0 92 -21 259zM322 1202q2 100 47 143q45 41 102 41q49 0 132 -51t124 -51q51 0 61 109h78q-6 -184 -153 -185 q-45 0 -131 50t-113 51q-10 0 -24 -6q-13 -6 -28 -33t-20 -68h-75z" />
<glyph unicode="&#xf4;" horiz-adv-x="1224" d="M86 520q0 238 146 393q147 156 380 156q236 0 382 -156t147 -393q0 -238 -147 -394q-146 -157 -382 -157q-233 0 -380 157q-146 157 -146 394zM203 520q0 -190 113 -319q114 -129 296 -129t296 128t114 320q0 193 -114 320t-296 127t-296 -128t-113 -319zM358 1208 l211 240h88l211 -240h-112l-144 160l-141 -160h-113z" />
<glyph unicode="&#xf6;" horiz-adv-x="1224" d="M86 520q0 238 146 393q147 156 380 156q236 0 382 -156t147 -393q0 -238 -147 -394q-146 -157 -382 -157q-233 0 -380 157q-146 157 -146 394zM203 520q0 -190 113 -319q114 -129 296 -129t296 128t114 320q0 193 -114 320t-296 127t-296 -128t-113 -319zM326 1300 q0 41 26 68q27 27 66 27q43 0 69 -28q27 -28 27 -67q0 -41 -27 -66q-27 -26 -69 -26q-39 0 -66 26t-26 66zM709 1300q0 39 25 67q26 28 67 28t67 -28q27 -28 27 -67q0 -41 -28 -66q-28 -26 -66 -26q-41 0 -67 26t-25 66z" />
<glyph unicode="&#xf7;" horiz-adv-x="1265" d="M117 508v102h1032v-102h-1032zM537 182q0 45 28.5 76t71.5 31t69.5 -31t26.5 -76t-27.5 -74.5t-70.5 -29.5q-51 0 -74.5 33.5t-23.5 70.5zM537 930q2 45 29.5 74.5t70.5 29.5t71.5 -30.5t28.5 -73.5q0 -45 -29.5 -76t-70.5 -31q-43 0 -71.5 31t-28.5 76z" />
<glyph unicode="&#xf8;" horiz-adv-x="1224" d="M86 520q0 238 146.5 393.5t379.5 155.5q109 0 226 -47l96 158h131l-131 -213q207 -158 207 -447q0 -238 -146.5 -394.5t-382.5 -156.5q-135 0 -258 62l-73 -121h-123l110 182q-182 158 -182 428zM203 520q0 -201 123 -332l456 742q-78 37 -170 37q-182 0 -295.5 -128 t-113.5 -319zM414 123q87 -51 198 -51q182 0 296 128t114 320q0 221 -148 352z" />
<glyph unicode="&#xfb;" horiz-adv-x="1200" d="M160 459v588h121v-566q-1 -403 282 -403q137 0 248 91t111 245v633h118v-791q0 -111 54 -252l-115 -27q-37 109 -49 205q-135 -211 -393 -211q-377 0 -377 488zM346 1208l211 240h88l211 -240h-113l-143 160l-141 -160h-113z" />
<glyph unicode="&#xfc;" horiz-adv-x="1200" d="M160 459v588h121v-566q-1 -403 282 -403q137 0 248 91t111 245v633h118v-791q0 -111 54 -252l-115 -27q-37 109 -49 205q-135 -211 -393 -211q-377 0 -377 488zM313 1300q0 41 27 68t66 27q43 0 69 -28q27 -28 27 -67q0 -41 -27 -66q-27 -26 -69 -26q-39 0 -66 26t-27 66 zM696 1300q0 39 26 67q25 28 66 28t68 -28t27 -67q0 -41 -28 -66q-28 -26 -67 -26q-41 0 -66 26q-26 26 -26 66z" />
<glyph unicode="&#xfe;" horiz-adv-x="1329" d="M188 -432v1880h117v-592q158 213 428 213q215 0 358.5 -147.5t143.5 -378.5q0 -264 -149.5 -418t-387.5 -154q-252 0 -393 193v-596h-117zM305 414q0 -35 14 -95q39 -88 137.5 -166.5t252.5 -78.5q182 0 297.5 121.5t115.5 343.5q0 190 -112.5 312t-298.5 122 q-92 0 -166 -30t-117 -74t-72.5 -97t-40 -98t-10.5 -80v-180z" />
<glyph unicode="&#xff;" horiz-adv-x="1036" d="M10 1047h129l391 -887l367 887h131l-461 -1047q-182 -410 -483 -481l-29 96q262 59 398 420q0 12 -9 37zM233 1300q0 41 27 68t66 27q43 0 69 -28q27 -28 27 -67q0 -41 -27 -66q-27 -26 -69 -26q-39 0 -66 26t-27 66zM616 1300q0 39 26 67t67 28t67 -28q27 -28 27 -67 q0 -41 -28 -66q-28 -26 -66 -26q-41 0 -67 26t-26 66z" />
<glyph unicode="&#x102;" horiz-adv-x="1230" d="M0 0l555 1489h123l555 -1489h-133l-170 471h-631l-166 -471h-133zM336 573h557l-277 783zM338 1815h108q43 -113 170 -113q70 0 111 35t57 78h107q-18 -94 -93 -152q-75 -57 -182 -57q-98 0 -176 50t-102 159z" />
<glyph unicode="&#x103;" horiz-adv-x="1058" d="M80 262q0 391 682 391h18v19q0 115 -66 208q-67 93 -220 93q-113 0 -334 -70l-15 111q172 55 357 55q397 0 397 -438v-375q0 -129 37 -256l-107 -23l-43 170q-145 -176 -372 -176q-143 0 -239 80q-95 80 -95 211zM207 283q0 -113 66 -161q67 -48 149 -48q84 0 151 25 q68 26 105 62t61 76q25 40 33 65q8 26 8 36v211q-573 0 -573 -266zM252 1395h108q43 -113 170 -113q70 0 111 35t57 78h107q-18 -94 -93 -152q-75 -57 -182 -57q-98 0 -176 50t-102 159z" />
<glyph unicode="&#x106;" horiz-adv-x="1249" d="M72 737q0 330 197 541q198 211 499 211q233 0 399 -78l-37 -98q-164 70 -356 69q-252 0 -416 -185q-163 -185 -163 -464q0 -283 165 -466q166 -183 414 -183q193 0 356 70l37 -99q-166 -78 -399 -78q-295 0 -496 210t-200 550zM487 1622l154 281l121 -33l-180 -248h-95z " />
<glyph unicode="&#x107;" horiz-adv-x="1017" d="M84 520q0 250 145 400t408 149q190 0 324 -74l-43 -98q-113 74 -287 74q-184 0 -307 -119t-123 -332q0 -217 124 -333t306 -115q172 0 287 73l43 -98q-131 -76 -324 -76q-262 0 -408 150q-145 150 -145 399zM373 1202l153 281l121 -33l-180 -248h-94z" />
<glyph unicode="&#x10c;" horiz-adv-x="1249" d="M72 737q0 330 197 541q198 211 499 211q233 0 399 -78l-37 -98q-164 70 -356 69q-252 0 -416 -185q-163 -185 -163 -464q0 -283 165 -466q166 -183 414 -183q193 0 356 70l37 -99q-166 -78 -399 -78q-295 0 -496 210t-200 550zM469 1843h113l141 -160l143 160h113 l-211 -239h-88z" />
<glyph unicode="&#x10d;" horiz-adv-x="1017" d="M84 520q0 250 145 400t408 149q190 0 324 -74l-43 -98q-113 74 -287 74q-184 0 -307 -119t-123 -332q0 -217 124 -333t306 -115q172 0 287 73l43 -98q-131 -76 -324 -76q-262 0 -408 150q-145 150 -145 399zM358 1423h113l141 -159l144 159h112l-211 -239h-88z" />
<glyph unicode="&#x110;" horiz-adv-x="1327" d="M18 692v103h148v649q278 39 483 39q289 0 439.5 -193.5t150.5 -525.5q0 -389 -151.5 -582.5t-499.5 -193.5q-125 0 -422 28v676h-148zM287 111q154 -18 338 -19q493 0 493 672q0 283 -119.5 447.5t-357.5 164.5q-141 0 -354 -24v-557h465v-103h-465v-581z" />
<glyph unicode="&#x111;" horiz-adv-x="1234" d="M86 537q0 236 127 384t344 148q266 0 397 -221v465h-399v100h399v143h121v-143h148v-100h-148v-1057q0 -184 8 -256h-110q-6 80 -6 184q-141 -213 -392 -213q-227 0 -358 156t-131 410zM203 532q0 -458 389 -458q154 0 258 97t104 249v174q0 176 -114.5 277.5 t-259.5 101.5q-178 0 -277.5 -122t-99.5 -319z" />
<glyph unicode="&#x11e;" horiz-adv-x="1308" d="M72 737q0 336 181 541t490 205q227 0 394 -76l-37 -98q-186 72 -363 71q-240 0 -391 -184t-151 -463q0 -295 131 -472t383 -177q197 0 354 76v475h-373v98h490v-702q-25 18 -64 18l-182 -33q-176 -33 -244 -32q-281 0 -449 203q-169 204 -169 550zM375 1815h108 q43 -113 170 -113q70 0 111 35t57 78h107q-18 -94 -93 -152q-75 -57 -182 -57q-98 0 -176 50t-102 159z" />
<glyph unicode="&#x11f;" horiz-adv-x="956" d="M111 680q0 174 105 272t247 99h409v-99l-151 15q127 -123 127 -265q0 -176 -108 -276t-263 -100q-90 0 -164 34q-18 -45 -18 -90t56 -75q56 -31 137 -56t161 -57q80 -33 136 -99q56 -67 57 -165q0 -51 -18 -100q-17 -48 -56 -96t-117 -77t-186 -28q-166 0 -299 82l43 100 q133 -78 266 -78q113 0 188 52t74 137q0 76 -56 128t-135 80q-79 29 -159 57t-136 76t-56 119q0 53 30 150q-114 125 -114 260zM201 1395h108q43 -113 170 -113q70 0 111 35t57 78h107q-18 -94 -94 -152q-75 -57 -181 -57q-98 0 -176 50t-102 159zM219 684q0 -123 79 -194 q79 -70 179 -70q109 0 188 68q79 69 78 198q0 106 -72 190q-73 83 -194 82q-127 0 -192 -82q-66 -83 -66 -192z" />
<glyph unicode="&#x130;" horiz-adv-x="452" d="M139 1663q0 45 31 77t72 32q45 0 75 -33q31 -33 31 -76t-31 -72t-75 -28q-43 0 -73 28q-30 29 -30 72zM166 0v1466h121v-1466h-121z" />
<glyph unicode="&#x131;" horiz-adv-x="440" d="M160 0v1047h116v-1047h-116z" />
<glyph unicode="&#x141;" horiz-adv-x="1112" d="M55 662l129 40v764h121v-723l668 211v-112l-668 -205v-535h721v-102h-842v598l-100 -31z" />
<glyph unicode="&#x142;" horiz-adv-x="643" d="M55 662l129 40v854h121v-813l252 82v-108l-252 -82v-62q0 -248 56.5 -365.5t224.5 -123.5l-13 -107q-389 18 -389 549v72l-100 -31z" />
<glyph unicode="&#x152;" horiz-adv-x="2189" d="M68 729q0 332 188 547t494 215q332 0 526 -258v233h797v-102h-678v-539h604v-102h-604v-621h678v-102h-797v227q-195 -258 -526 -258q-303 0 -492.5 214t-189.5 546zM188 729q0 -276 157 -465.5t405 -189.5q182 0 320 105.5t206 266.5v539q-25 156 -180.5 278.5 t-345.5 122.5q-248 0 -405 -190.5t-157 -466.5z" />
<glyph unicode="&#x153;" horiz-adv-x="2091" d="M86 520.5q0 237.5 146.5 393t379.5 155.5q334 0 469 -287q133 287 465 287q440 0 451 -551h-856q0 -125 40 -216t106.5 -137t136 -66.5t147.5 -20.5q184 0 366 69l11 -100q-178 -76 -389 -76q-340 0 -484 279q-139 -281 -463 -281q-233 0 -379.5 157t-146.5 394.5z M203 520q0 -190 113.5 -319t295.5 -129q164 0 287 119.5t123 345.5q0 180 -114.5 305t-295.5 125q-182 0 -295.5 -128.5t-113.5 -318.5zM1147 612h735q-6 162 -100 261.5t-250 99.5t-258.5 -101.5t-126.5 -259.5z" />
<glyph unicode="&#x15e;" horiz-adv-x="1097" d="M90 84l49 104q152 -115 367 -114q166 0 267 77.5t101 221.5q0 135 -83.5 206.5t-241.5 122.5q-410 133 -410 414q0 164 126 271.5t329 107.5q205 0 336 -78q-47 -90 -51 -96q-133 72 -287 72q-162 0 -251 -76t-89 -187q0 -201 328 -313q231 -80 321 -180t90 -254 q0 -147 -93 -253.5t-253 -141.5l-65 -92q154 -37 153 -146q0 -178 -215 -178q-76 0 -147 39l30 70q66 -31 119 -31q119 0 119 86q0 76 -195 92l95 145q-16 -2 -45 -2q-242 0 -404 113z" />
<glyph unicode="&#x15f;" horiz-adv-x="886" d="M100 55l45 99q147 -80 261 -80q258 0 258 194q0 152 -244 226q-281 86 -281 282q0 113 85 203t261 90q162 0 258 -72l-49 -98q-92 74 -231 74q-106 0 -157.5 -55.5t-51.5 -124.5q0 -125 240 -207q281 -96 280 -310q0 -102 -62.5 -182t-183.5 -108l-57 -80 q137 -33 137 -131q0 -160 -192 -160q-72 0 -133 35l26 63q61 -29 107 -28q109 0 108 77q0 70 -176 82l82 127h-35q-152 0 -295 84z" />
<glyph unicode="&#x160;" horiz-adv-x="1083" d="M84 84l49 104q152 -115 367 -114q166 0 267 78t101 221q0 135 -84 207t-241 122q-410 133 -410 414q0 164 126 272t329 107q205 0 336 -78q-47 -90 -52 -96q-132 72 -286 72q-162 0 -251 -76t-89 -187q0 -203 327 -313q231 -80 322 -180q90 -100 90 -254 q0 -182 -137 -297t-361 -115q-242 0 -403 113zM287 1843h112l142 -160l143 160h113l-211 -239h-88z" />
<glyph unicode="&#x161;" horiz-adv-x="868" d="M90 55l45 99q147 -80 260 -80q258 0 258 194q0 152 -243 226q-281 86 -281 282q0 113 85 203t261 90q162 0 258 -72l-49 -98q-92 74 -231 74q-106 0 -158 -55q-51 -55 -51 -125q0 -125 239 -207q281 -96 281 -310q0 -129 -98 -217t-281 -88q-152 0 -295 84zM180 1423h113 l141 -159l144 159h112l-211 -239h-88z" />
<glyph unicode="&#x178;" horiz-adv-x="1175" d="M23 1466h139l424 -716l426 716h139l-506 -819v-647h-117v643zM305 1710q0 41 27 68q26 26 65 26q43 0 70 -27q27 -28 27 -67q0 -41 -27 -66q-27 -26 -70 -26q-39 0 -65 26q-27 26 -27 66zM688 1710q0 39 26 67q25 27 66 27t68 -27q27 -28 26 -67q0 -41 -27 -66 q-28 -26 -67 -26q-41 0 -66 26q-26 26 -26 66z" />
<glyph unicode="&#x192;" horiz-adv-x="1224" d="M-53 -172l53 86q59 -35 145 -35q240 0 326 391l104 486h-174l19 94h178l18 80q113 494 478 493q117 0 166 -49l-52 -86q-57 33 -145 33q-240 0 -330 -391l-18 -80h301l-19 -94h-301l-104 -486q-106 -492 -477 -491q-119 0 -168 49z" />
<glyph unicode="&#x1a0;" horiz-adv-x="1497" d="M68 729q0 332 188 547t494 215q264 0 452 -176q129 139 129 291h99q0 -66 -44.5 -163t-134.5 -179q179 -211 179 -535q0 -332 -187.5 -546t-492.5 -214q-303 0 -492.5 214t-189.5 546zM188 729q0 -276 157 -465.5t405 -189.5q246 0 402.5 190.5t156.5 464.5 q0 276 -156 466.5t-403.5 190.5t-404.5 -190.5t-157 -466.5z" />
<glyph unicode="&#x1a1;" horiz-adv-x="1224" d="M86 520q0 238 146.5 393.5t379.5 155.5q205 0 355 -133q113 106 120 291h103q-6 -188 -174 -342q125 -156 125 -365q0 -238 -146.5 -394.5t-382.5 -156.5q-233 0 -379.5 156.5t-146.5 394.5zM203 520.5q0 -190.5 113.5 -319.5t295.5 -129t296 128t114 320.5t-113.5 319.5 t-296 127t-296 -128t-113.5 -318.5z" />
<glyph unicode="&#x1af;" horiz-adv-x="1433" d="M166 618v848h121v-843q0 -137 28.5 -239.5t71.5 -160t103.5 -92.5t113.5 -46t113 -11q432 0 432 549v843h121v-135q139 121 147 275h99q-29 -219 -246 -367v-621q0 -647 -553 -647q-551 0 -551 647z" />
<glyph unicode="&#x1b0;" horiz-adv-x="1148" d="M160 459v588h121v-566q-1 -403 282 -403q137 0 248 91t111 245v633h118v-125q125 115 138 305h98q-20 -252 -236 -391v-580q0 -111 54 -252l-115 -27q-37 109 -49 205q-135 -211 -393 -211q-377 0 -377 488z" />
<glyph unicode="&#x2c6;" horiz-adv-x="651" d="M72 1208l211 240h88l211 -240h-113l-143 160l-142 -160h-112z" />
<glyph unicode="&#x2c7;" horiz-adv-x="651" d="M72 1423h112l142 -159l143 159h113l-211 -239h-88z" />
<glyph unicode="&#x2d8;" horiz-adv-x="929" d="M184 1395h109q43 -113 170 -113q70 0 110.5 35t57.5 78h106q-18 -94 -93 -151.5t-181 -57.5q-98 0 -176 50t-103 159z" />
<glyph unicode="&#x2d9;" horiz-adv-x="929" d="M360 1663q0 45 31 77t72 32q45 0 75.5 -33t30.5 -76t-30.5 -71.5t-75.5 -28.5q-43 0 -73 28.5t-30 71.5z" />
<glyph unicode="&#x2da;" horiz-adv-x="929" d="M238 1356q0 96 66.5 163.5t154.5 67.5q98 0 162.5 -68.5t64.5 -162.5q0 -90 -64.5 -155.5t-162.5 -65.5q-88 0 -154.5 65.5t-66.5 155.5zM332 1352q0 -51 38 -88t93 -37q57 0 96 35.5t39 89.5q0 59 -39 98t-96 39t-94 -40t-37 -97z" />
<glyph unicode="&#x2db;" horiz-adv-x="929" d="M246 -264q0 94 55 276h125q-59 -154 -59 -245q0 -133 120 -144q90 0 181 47l4 -110q-111 -47 -209 -47q-121 0 -169 70.5t-48 152.5z" />
<glyph unicode="&#x2dc;" horiz-adv-x="651" d="M72 1204q10 197 131 197q45 0 124 -46t126 -46q55 0 61 98h80q-2 -82 -41 -136t-109 -54q-33 0 -120.5 43t-116.5 43q-49 0 -60 -99h-75z" />
<glyph unicode="&#x2dd;" horiz-adv-x="858" d="M129 1016l182 497h146l-244 -497h-84zM397 1016l183 497h143l-242 -497h-84z" />
<glyph unicode="&#x300;" d="M-446 1450l120 33l154 -281h-96z" />
<glyph unicode="&#x301;" d="M-477 1202l153 281l121 -33l-180 -248h-94z" />
<glyph unicode="&#x303;" d="M-600 1202q2 100 47 142t102 42q49 0 132 -51t124 -51q51 0 62 109h78q-6 -184 -154 -185q-45 0 -131 50.5t-113 50.5q-10 0 -23 -6.5t-28.5 -33t-19.5 -67.5h-76z" />
<glyph unicode="&#x309;" d="M-705 1501q68 123 211 123q74 0 131.5 -40t57.5 -134q0 -51 -26.5 -95t-59.5 -67.5t-59.5 -51.5t-26.5 -52h-96q2 45 29.5 83t59 58.5t57.5 53t26 71.5q0 90 -107 90q-82 0 -139 -86z" />
<glyph unicode="&#x323;" d="M-330 -238q0 31 26.5 58.5t63.5 27.5q39 0 63.5 -26.5t24.5 -59.5q0 -37 -24.5 -62.5t-63.5 -25.5t-64.5 26t-25.5 62z" />
<glyph unicode="&#xe00;" />
<glyph unicode="&#xe01;" horiz-adv-x="1187" d="M111 838q25 172 154.5 283.5t309.5 111.5q203 0 322 -111.5t119 -304.5v-817h-111v805q0 150 -93 240t-243 90q-109 0 -206 -60.5t-132 -150.5q182 -16 250 -136q-76 -14 -131 -80.5t-55 -146.5v-561h-111v557q0 184 160 248q-76 37 -170 37q-18 0 -63 -4z" />
<glyph unicode="&#xe02;" horiz-adv-x="1163" d="M47 942q0 66 28.5 128.5t107.5 112.5t196 50q135 0 223 -67.5t88 -186.5q0 -80 -73.5 -234.5t-73.5 -212.5v-286q0 -172 168 -172q170 0 170 172v962h110v-952q0 -281 -282 -281q-276 0 -277 281v293q0 66 77 209t77 207q0 68 -58.5 123t-148.5 55q-135 0 -207 -90 q29 12 72 12q80 0 131 -50t51 -128q0 -82 -52 -135.5t-130 -53.5q-104 0 -150.5 77t-46.5 167zM145 885q0 -45 28 -72t71 -27q45 0 71.5 28t26.5 71q0 45 -27.5 71.5t-70.5 26.5q-45 0 -72 -27.5t-27 -70.5z" />
<glyph unicode="&#xe03;" horiz-adv-x="1175" d="M47 838q0 141 81 257.5t198 139.5l77 -107l84 107q104 -10 173 -95t69 -206q0 -86 -87 -251t-87 -243v-194q0 -172 168 -172q170 0 170 172v962h111v-952q0 -281 -283 -281q-276 0 -277 281v195q0 86 92.5 246.5t92.5 244.5q0 162 -117 186l-109 -131l-110 127 q-100 -68 -133 -178q43 18 98 19q88 0 141.5 -56.5t53.5 -144.5q0 -90 -57.5 -145.5t-139.5 -55.5q-78 0 -128 49.5t-65.5 105.5t-15.5 120zM158 768q0 -45 26.5 -72.5t71.5 -27.5t71.5 27.5t26.5 72.5t-27.5 71.5t-70.5 26.5q-45 0 -71.5 -27.5t-26.5 -70.5z" />
<glyph unicode="&#xe04;" horiz-adv-x="1210" d="M102 786q0 199 134 323t339 124q57 0 116 -10.5t122.5 -38t112.5 -70.5t80.5 -114.5t31.5 -161.5v-838h-110v829q0 86 -38 149.5t-97.5 95.5t-115.5 46.5t-108 14.5q-143 0 -248.5 -97.5t-105.5 -238.5q0 -66 30.5 -191t30.5 -127q20 117 55.5 213.5t106 171t160.5 74.5 q76 0 126 -49t50 -133q0 -78 -53 -131.5t-129 -53.5q-80 0 -141 74q-49 -76 -94.5 -202t-45.5 -244v-201h-110v283q0 82 -49.5 252t-49.5 251zM496 758q0 -43 27.5 -69.5t68.5 -26.5q39 0 66.5 26.5t27.5 69.5t-27.5 69.5t-66.5 26.5q-43 0 -69.5 -27.5t-26.5 -68.5z" />
<glyph unicode="&#xe05;" horiz-adv-x="1210" d="M102 793q0 354 336 446l135 -158l123 158q340 -68 342 -371v-868h-110v862q-4 213 -207 262l-148 -166l-163 170q-86 -45 -138.5 -135t-52.5 -176q0 -111 57 -366q84 418 316 417q80 0 129 -49t49 -129t-51 -131t-125 -51q-98 0 -160 72q-45 -49 -81 -174t-36 -240v-166 h-110v246q0 82 -52.5 273.5t-52.5 273.5zM496 690q0 -43 27.5 -69.5t68.5 -26.5q39 0 66.5 26.5t27.5 69.5q0 41 -27.5 68.5t-66.5 27.5q-41 0 -68.5 -28.5t-27.5 -67.5z" />
<glyph unicode="&#xe06;" horiz-adv-x="1255" d="M47 838q0 141 81 257.5t198 139.5l77 -107l84 107q109 -12 175.5 -95t66.5 -206q0 -86 -87 -251t-87 -243v-45q274 -35 418 -229v1042h110v-1208h-110q-133 254 -375 305q43 -49 43 -117q0 -92 -60.5 -152.5t-148.5 -60.5q-94 0 -153.5 61.5t-59.5 151.5q0 88 59.5 148.5 t165.5 60.5v54q0 86 92.5 246.5t92.5 244.5q0 162 -117 186l-109 -131l-110 127q-100 -68 -133 -178q43 18 98 19q88 0 141.5 -56.5t53.5 -144.5q0 -90 -57.5 -145.5t-139.5 -55.5q-78 0 -128 49.5t-65.5 105.5t-15.5 120zM158 768q0 -45 26.5 -72.5t71.5 -27.5t71.5 27.5 t26.5 72.5t-27.5 71.5t-70.5 26.5q-45 0 -71.5 -27.5t-26.5 -70.5zM324 188q0 -45 32.5 -76.5t75.5 -31.5q45 0 76 32.5t31 75.5q0 45 -32 76t-75 31t-75.5 -31t-32.5 -76z" />
<glyph unicode="&#xe07;" horiz-adv-x="905" d="M49 641l62 70l512 -553v690q-45 -23 -97 -23q-84 0 -143 60.5t-59 140.5q0 92 57 149.5t145 57.5q94 0 150.5 -56.5t56.5 -150.5v-1026h-110zM422 1032q0 -45 30.5 -74.5t73.5 -29.5q45 0 75 30.5t30 73.5q0 45 -31 75t-74 30q-45 0 -74.5 -31t-29.5 -74z" />
<glyph unicode="&#xe08;" horiz-adv-x="1130" d="M74 911q16 121 124.5 221.5t327.5 100.5q432 0 432 -324v-708q0 -229 -219 -230q-172 0 -196 174l-54 344q-45 -27 -104 -26q-80 0 -131 52t-51 128q0 82 52 135t130 53q70 0 121 -45t63 -112l90 -522q12 -78 86 -78q102 0 103 110v725q0 119 -96.5 170t-221.5 51 q-139 0 -230 -57t-112 -162h-114zM295 643q0 -39 25.5 -65.5t68.5 -26.5q41 0 67.5 26.5t26.5 65.5q0 43 -27.5 69.5t-66.5 26.5q-43 0 -68.5 -27.5t-25.5 -68.5z" />
<glyph unicode="&#xe09;" horiz-adv-x="1161" d="M80 606q0 80 54 134.5t130 54.5q82 0 135.5 -54.5t53.5 -134.5q0 -49 -43 -143t-43 -158v-196q100 145 335 217q176 84 177 266v307q0 104 -97.5 167.5t-236.5 63.5q-131 0 -229.5 -64.5t-120.5 -160.5h-115q10 123 125 225.5t334 102.5q205 0 327.5 -84t122.5 -252v-311 q0 -147 -84 -232q139 -43 139 -184q0 -80 -52 -136.5t-142 -56.5q-80 0 -135.5 55.5t-55.5 137.5q0 31 3 39q-174 -74 -267 -209h-139v287q0 92 20 135h-12q-78 0 -131 54t-53 130zM176 606q0 -39 25.5 -65.5t66.5 -26.5t66.5 26.5t25.5 65.5q0 41 -26.5 66.5t-65.5 25.5 q-41 0 -66.5 -25.5t-25.5 -66.5zM752 170q0 -43 30.5 -72.5t71.5 -29.5q43 0 71.5 30.5t28.5 71.5q0 43 -28.5 71.5t-71.5 28.5q-41 0 -71.5 -28.5t-30.5 -71.5z" />
<glyph unicode="&#xe0a;" horiz-adv-x="1169" d="M47 942q0 66 28.5 128.5t107.5 112.5t196 50q135 0 223 -67.5t88 -186.5q0 -80 -73.5 -234.5t-73.5 -212.5v-286q0 -172 172 -172t172 172v497q0 135 -131 181q6 18 6 71q170 72 178 287h117q-12 -131 -70.5 -213t-107.5 -108q119 -45 118 -205v-500q0 -281 -286 -281 q-279 0 -279 281v293q0 66 77 209t77 207q0 68 -58.5 123t-148.5 55q-135 0 -207 -90q29 12 72 12q80 0 131 -50t51 -128q0 -82 -52 -135.5t-130 -53.5q-104 0 -150.5 77t-46.5 167zM145 885q0 -45 28 -72t71 -27q45 0 71.5 28t26.5 71q0 45 -27.5 71.5t-70.5 26.5 q-45 0 -72 -27.5t-27 -70.5z" />
<glyph unicode="&#xe0b;" horiz-adv-x="1181" d="M47 838q0 141 81 257.5t198 139.5l77 -107l84 107q104 -10 173 -95t69 -206q0 -86 -87 -251t-87 -243v-190q0 -176 172 -176t172 172v497q0 135 -123 179q0 4 1 12t1 14q0 10 -4 47q170 72 178 287h117q-12 -131 -70.5 -213t-107.5 -108q119 -45 119 -205v-500 q0 -281 -287 -281q-279 0 -279 281v195q0 86 92.5 246.5t92.5 244.5q0 162 -117 186l-109 -131l-110 127q-100 -68 -133 -178q43 18 98 19q88 0 141.5 -56.5t53.5 -144.5q0 -90 -57.5 -145.5t-139.5 -55.5q-78 0 -128 49.5t-65.5 105.5t-15.5 120zM158 768q0 -45 26.5 -72.5 t71.5 -27.5t71.5 27.5t26.5 72.5t-27.5 71.5t-70.5 26.5q-45 0 -71.5 -27.5t-26.5 -70.5z" />
<glyph unicode="&#xe0c;" horiz-adv-x="1597" d="M92 836q29 172 152 284.5t295 112.5q197 0 309.5 -106.5t112.5 -297.5v-462q252 -86 354 -222v1063h110v-1208h-112q-74 115 -248 215q6 -25 6 -39q0 -84 -52 -144.5t-151 -60.5q-82 0 -142 59.5t-60 145.5q0 82 54 139.5t130 63.5v438q0 317 -318 318q-98 0 -186 -60.5 t-121 -152.5q172 -12 246 -136q-76 -16 -130 -80.5t-54 -144.5v-194q29 12 69 12q86 0 145.5 -60.5t59.5 -142.5q0 -84 -56 -144.5t-149 -60.5q-90 0 -146 60.5t-56 144.5q0 47 22 88v293q0 168 160 244q-92 37 -193 37q-35 0 -51 -2zM256 176q0 -43 28.5 -72.5t71.5 -29.5 q47 0 77 29.5t30 72.5t-30 74t-77 31q-43 0 -71.5 -31t-28.5 -74zM764 176q0 -45 29.5 -73.5t72.5 -28.5q45 0 75 29.5t30 72.5q0 45 -31 75t-74 30t-72.5 -30t-29.5 -75z" />
<glyph unicode="&#xe0d;" horiz-adv-x="1597" d="M92 836q29 172 147.5 284.5t292.5 112.5q188 0 296 -104.5t108 -299.5v-583q0 -172 192 -172q186 0 187 172v962h110v-956q0 -276 -301 -277q-299 0 -299 281v561q0 317 -299 318q-104 0 -187 -60.5t-114 -152.5q172 -12 246 -136q-76 -16 -130 -80.5t-54 -144.5v-201 q41 18 92 19q88 0 145.5 -58.5t57.5 -142.5q0 -78 -44 -142.5t-159 -64.5q-92 0 -147.5 57.5t-55.5 153.5v375q0 168 160 244q-92 37 -193 37q-35 0 -51 -2zM276 176q0 -45 30 -73.5t73 -28.5q45 0 74.5 29.5t29.5 72.5q0 45 -30.5 75t-73.5 30t-73 -30t-30 -75zM770 -258 q0 72 49 119t117 47q74 0 122 -49t48 -117q0 -115 -109 -158q39 -23 90 -22q264 0 271 334h115q-2 -78 -20.5 -144.5t-57.5 -133.5t-118 -105.5t-187 -38.5q-125 0 -222.5 76.5t-97.5 191.5zM856 -258q0 -37 24.5 -60.5t59.5 -23.5q33 0 57.5 23.5t24.5 60.5 q0 35 -24.5 58.5t-57.5 23.5q-37 0 -60.5 -24.5t-23.5 -57.5z" />
<glyph unicode="&#xe0e;" horiz-adv-x="1308" d="M74 176q0 82 57 142.5t143 60.5q31 0 74 -17q-18 145 -18 218q0 141 123 221q-82 37 -164 37q-45 0 -58 -2q14 168 144.5 282.5t316.5 114.5q203 0 324 -112.5t121 -307.5v-1475h-123q-23 70 -135.5 145t-212.5 101v-22q0 -102 -59.5 -169t-155.5 -67q-92 0 -145.5 52.5 t-53.5 134.5q0 94 66.5 150t164.5 56q23 0 80 -8q12 113 115 172l84 -49q-92 -57 -96 -147q250 -90 360 -207v1321q0 152 -93 243t-243 91q-113 0 -208 -63.5t-128 -149.5q164 -16 250 -136q-166 -57 -166 -225q0 -102 19.5 -210.5t19.5 -166.5q0 -90 -60.5 -149.5 t-142.5 -59.5q-86 0 -143 59.5t-57 141.5zM172 176q0 -45 29.5 -73.5t72.5 -28.5q45 0 75 29.5t30 72.5q0 45 -31 75t-74 30t-72.5 -30t-29.5 -75zM350 -481q0 -94 103 -94q109 0 108 137q0 22 -6 47q-25 8 -66 8q-139 0 -139 -98z" />
<glyph unicode="&#xe0f;" horiz-adv-x="1308" d="M74 176q0 82 57 142.5t143 60.5q31 0 74 -17q-18 145 -18 218q0 141 123 221q-82 37 -164 37q-45 0 -58 -2q14 168 144.5 282.5t316.5 114.5q203 0 324 -112.5t121 -307.5v-1475h-123l-166 187l-137 -184l-168 184q-4 -92 -61.5 -147.5t-137.5 -55.5q-104 0 -150.5 59.5 t-46.5 131.5q0 88 57.5 143t145.5 55q57 0 103 -22q6 106 127 178l82 -49q-104 -63 -111 -172l151 -160l146 195l178 -201v1321q0 152 -93 243t-243 91q-113 0 -208 -63.5t-128 -149.5q164 -16 250 -136q-166 -57 -166 -225q0 -102 19.5 -210.5t19.5 -166.5 q0 -90 -60.5 -149.5t-142.5 -59.5q-86 0 -143 59.5t-57 141.5zM172 176q0 -45 29.5 -73.5t72.5 -28.5q45 0 75 29.5t30 72.5q0 45 -31 75t-74 30t-72.5 -30t-29.5 -75zM240 -489q0 -92 98 -93q115 0 115 168q-29 29 -93 29q-121 0 -120 -104z" />
<glyph unicode="&#xe10;" horiz-adv-x="1054" d="M-43 -502q0 82 66.5 118t140.5 36q72 0 106 -14q18 125 138 186l81 -45q-125 -61 -129 -182l136 -158l133 67l147 -92v140q-20 -4 -49 -5q-68 0 -113 42t-45 101.5t46 100.5t112 41q63 0 108.5 -40t45.5 -101v-359h-119l-133 84l-135 -80l-140 168q-4 -86 -61 -135 t-139 -49q-197 2 -197 176zM53 -512q0 -80 94 -80q117 0 117 98q0 16 -6 41q-29 20 -104 21q-100 -6 -101 -80zM80 903q10 139 107.5 234.5t263.5 95.5q55 0 172.5 -34t169.5 -34q72 0 88 68l96 -23q-49 -160 -178 -159q-61 0 -186.5 36.5t-180.5 36.5q-74 0 -139.5 -42 t-71.5 -97q346 -68 498.5 -134.5t152.5 -160.5v-446q0 -272 -247 -273q-242 0 -242 273v157q-35 -12 -78 -12q-78 0 -130 50t-52 128q0 82 52 135.5t130 53.5q82 0 135.5 -49.5t53.5 -133.5v-340q0 -160 131 -159q137 0 137 159v447q0 39 -79 77t-200 67.5t-219 48 t-184 30.5zM225 569q0 -33 22.5 -56.5t57.5 -23.5q33 0 58.5 23t25.5 57.5t-25.5 59t-58.5 24.5q-35 0 -57.5 -24.5t-22.5 -59.5zM653 -307q0 -72 74 -72t74 72q0 68 -74 67q-74 0 -74 -67z" />
<glyph unicode="&#xe11;" horiz-adv-x="1419" d="M47 838q0 135 78 253.5t201 143.5l77 -107l84 107q224 -27 224 -301q0 -86 -78 -253t-78 -255l-12 -262q35 131 73 231l252 664q63 174 189 174q190 0 190 -248v-985h-110v985q0 139 -90 139q-35 0 -74 -80l-391 -1044h-138v451q0 86 83 246.5t83 244.5q0 168 -98 186 l-109 -131l-110 127q-100 -68 -133 -178q43 18 98 19q88 0 141.5 -56.5t53.5 -144.5q0 -90 -57.5 -145.5t-139.5 -55.5q-78 0 -128 49.5t-65.5 105.5t-15.5 120zM158 768q0 -45 26.5 -72.5t71.5 -27.5t71.5 27.5t26.5 72.5t-27.5 71.5t-70.5 26.5q-45 0 -71.5 -27.5 t-26.5 -70.5z" />
<glyph unicode="&#xe12;" horiz-adv-x="1638" d="M98 782q0 168 81 290t210 157l166 -176l166 180q96 -16 162.5 -90t92 -159t25.5 -171v-446q252 -86 355 -207v1048h110v-1208h-110q-80 133 -250 219q6 -18 6 -43q0 -80 -55.5 -140.5t-147.5 -60.5q-94 0 -149 60.5t-55 142.5t55 140.5t131 64.5v418q0 219 -141 315 l-199 -180l-180 182q-76 -49 -119 -141t-43 -182q0 -80 63.5 -258.5t65.5 -272.5q25 53 102.5 129t98.5 107q-74 8 -120 58t-46 122q0 80 52 131t130 51q66 0 124 -45t58 -127q0 -143 -198 -350q-193 -201 -201 -340h-111v281q0 84 -64.5 255t-64.5 246zM457 684 q0 -43 25.5 -69.5t68.5 -26.5q45 0 71.5 26.5t26.5 69.5q0 45 -27.5 71.5t-70.5 26.5t-68.5 -26.5t-25.5 -71.5zM805 176q0 -43 28.5 -72.5t71.5 -29.5q45 0 75 29.5t30 72.5q0 45 -31 75t-74 30t-71.5 -31t-28.5 -74z" />
<glyph unicode="&#xe13;" horiz-adv-x="1671" d="M92 836q29 172 147.5 284.5t292.5 112.5q188 0 296 -104.5t108 -299.5v-682q66 84 215 161t162 87q76 68 76 205v608h112v-602q0 -184 -59 -244q123 -51 123 -190q0 -86 -57.5 -144.5t-149.5 -58.5q-88 0 -145.5 58.5t-57.5 144.5v18q-111 -43 -197 -190h-133v817 q0 317 -299 318q-104 0 -187 -60.5t-114 -152.5q172 -12 246 -136q-76 -16 -130 -80.5t-54 -144.5v-201q41 18 92 19q88 0 145.5 -58.5t57.5 -142.5q0 -92 -57.5 -149.5t-145.5 -57.5q-90 0 -146.5 59.5t-56.5 151.5v375q0 168 160 244q-92 37 -193 37q-35 0 -51 -2z M276 176q0 -45 30 -73.5t73 -28.5q45 0 74.5 29.5t29.5 72.5q0 45 -30.5 75t-73.5 30t-73 -30t-30 -75zM1253 172q0 -45 31 -74.5t74 -29.5q45 0 74.5 30.5t29.5 73.5q0 45 -30.5 74.5t-73.5 29.5q-45 0 -75 -30.5t-30 -73.5z" />
<glyph unicode="&#xe14;" horiz-adv-x="1204" d="M98 782q0 213 140.5 332t343.5 119q209 0 329.5 -110.5t120.5 -305.5v-817h-110v801q0 334 -355 334q-143 0 -250.5 -96.5t-107.5 -239.5q0 -82 49 -242t49 -238q0 -59 -6 -81q35 78 127 178l145 157q-80 0 -131 52.5t-51 130.5q0 76 51.5 128t130.5 52q78 0 130.5 -53.5 t52.5 -126.5q0 -152 -219 -377q-217 -229 -226 -379h-110v276q0 80 -51.5 255.5t-51.5 250.5zM477 756q0 -43 27.5 -70t68.5 -27q39 0 67 27t28 70q0 41 -28 67.5t-67 26.5q-43 0 -69.5 -27.5t-26.5 -66.5z" />
<glyph unicode="&#xe15;" horiz-adv-x="1204" d="M98 782q0 170 79 293t208 158l190 -170l177 170q125 -23 202.5 -141.5t77.5 -274.5v-817h-110v801q0 227 -148 317l-199 -182l-208 182q-154 -98 -154 -319q0 -84 49 -263.5t49 -291.5q29 55 127.5 139t122.5 123q-74 6 -120 55t-46 123q0 78 50.5 130t127.5 52 q76 0 129.5 -52t53.5 -130q0 -139 -215 -340q-217 -197 -228 -344h-110v276q0 80 -52.5 255.5t-52.5 250.5zM483 686q0 -39 27 -66.5t70 -27.5q41 0 67.5 27.5t26.5 66.5q0 43 -28 69.5t-66 26.5q-43 0 -70 -27.5t-27 -68.5z" />
<glyph unicode="&#xe16;" horiz-adv-x="1163" d="M80 838q25 172 161 283.5t310 111.5q203 0 321.5 -111.5t118.5 -304.5v-817h-110v805q0 158 -92.5 244t-243.5 86q-104 0 -198.5 -60.5t-133.5 -152.5q188 -16 244 -134q-74 -14 -128.5 -80.5t-54.5 -144.5v-201q51 23 93 23q88 0 147 -61.5t59 -145.5q0 -90 -57 -146.5 t-149 -56.5q-88 0 -145.5 58.5t-57.5 144.5v383q0 168 155 244q-80 33 -239 33zM268 176q0 -43 29 -72.5t74 -29.5t74.5 29.5t29.5 72.5q0 45 -30.5 75t-73.5 30q-45 0 -74 -31t-29 -74z" />
<glyph unicode="&#xe17;" horiz-adv-x="1323" d="M53 1028q0 86 60.5 145.5t142.5 59.5t142.5 -59.5t60.5 -145.5v-602q-6 -152 -15 -205q14 47 56 174l250 664q63 174 211 174q193 0 192 -248v-985h-113v985q0 139 -88 139q-55 0 -96 -80l-391 -1044h-117v848q-41 -23 -92 -23q-86 0 -144.5 60.5t-58.5 142.5zM152 1028 q0 -45 30.5 -74.5t73.5 -29.5q45 0 74.5 30.5t29.5 73.5q0 45 -30.5 76t-73.5 31t-73.5 -31t-30.5 -76z" />
<glyph unicode="&#xe18;" horiz-adv-x="1030" d="M61 905q10 135 97.5 231.5t251.5 96.5q66 0 184.5 -34t169.5 -34q74 0 86 70l96 -21q-47 -152 -176 -151q-61 0 -187 36t-180 36q-70 0 -130 -46.5t-70 -99.5q20 -4 61 -12q74 -14 111 -22.5t103.5 -24t102 -26.5t87 -28.5t79 -36t55 -41t40 -49t12.5 -57.5v-459 q0 -256 -340 -256q-338 0 -338 256v482h111v-488q0 -150 227 -149q229 0 229 149v457q0 49 -139 99.5t-279.5 78t-263.5 43.5z" />
<glyph unicode="&#xe19;" horiz-adv-x="1292" d="M53 1028q0 86 60.5 145.5t142.5 59.5t142.5 -59.5t60.5 -145.5v-907q49 53 150.5 105.5t185.5 87t149.5 107.5t65.5 173v614h112v-628q0 -147 -69 -218q131 -51 131 -186q0 -88 -61.5 -144.5t-143.5 -56.5t-140.5 58.5t-58.5 142.5v21q-193 -76 -297 -197h-135v848 q-41 -23 -92 -23q-86 0 -144.5 60.5t-58.5 142.5zM152 1028q0 -45 30.5 -74.5t73.5 -29.5q45 0 74.5 30.5t29.5 73.5q0 45 -30.5 76t-73.5 31t-73.5 -31t-30.5 -76zM874 178q0 -45 31 -74.5t74 -29.5q45 0 74.5 30.5t29.5 73.5q0 45 -30.5 75t-73.5 30q-45 0 -75 -31 t-30 -74z" />
<glyph unicode="&#xe1a;" horiz-adv-x="1316" d="M53 1028q0 86 60.5 145.5t142.5 59.5t142.5 -59.5t60.5 -145.5v-758q0 -193 291 -192q285 0 284 192v938h113v-946q0 -287 -397 -287q-401 0 -402 287v586q-41 -23 -92 -23q-86 0 -144.5 60.5t-58.5 142.5zM152 1028q0 -45 30.5 -74.5t73.5 -29.5q45 0 74.5 30.5 t29.5 73.5q0 45 -30.5 76t-73.5 31t-73.5 -31t-30.5 -76z" />
<glyph unicode="&#xe1b;" horiz-adv-x="1316" d="M53 1028q0 86 60.5 145.5t142.5 59.5t142.5 -59.5t60.5 -145.5v-758q0 -193 291 -192q285 0 284 192v1452h113v-1460q0 -287 -397 -287q-401 0 -402 287v586q-41 -23 -92 -23q-86 0 -144.5 60.5t-58.5 142.5zM152 1028q0 -45 30.5 -74.5t73.5 -29.5q45 0 74.5 30.5 t29.5 73.5q0 45 -30.5 76t-73.5 31t-73.5 -31t-30.5 -76z" />
<glyph unicode="&#xe1c;" horiz-adv-x="1173" d="M123 0v1028q0 84 57.5 144.5t145.5 60.5q86 0 145 -61.5t59 -143.5t-57 -142.5t-147 -60.5q-41 0 -93 23v-682l285 438h82l291 -438v1042h110v-1208h-122l-318 487l-315 -487h-123zM225 1028q0 -45 31 -74.5t74 -29.5q45 0 74.5 30.5t29.5 73.5q0 45 -30.5 76t-73.5 31 t-74 -31t-31 -76z" />
<glyph unicode="&#xe1d;" horiz-adv-x="1173" d="M123 0v1028q0 84 57.5 144.5t145.5 60.5q86 0 145 -61.5t59 -143.5t-57 -142.5t-147 -60.5q-41 0 -93 23v-682l285 438h82l291 -438v1556h110v-1722h-122l-318 487l-315 -487h-123zM225 1028q0 -45 31 -74.5t74 -29.5q45 0 74.5 30.5t29.5 73.5q0 45 -30.5 76t-73.5 31 t-74 -31t-31 -76z" />
<glyph unicode="&#xe1e;" horiz-adv-x="1376" d="M53 1028q0 86 60.5 145.5t142.5 59.5t142.5 -59.5t60.5 -145.5v-643q0 -86 -15 -215q18 92 56 225l223 813h106l224 -813q45 -170 57 -225q-16 147 -16 215v823h110v-1208h-135l-293 1069l-293 -1069h-135v848q-41 -23 -92 -23q-86 0 -144.5 60.5t-58.5 142.5zM152 1028 q0 -45 30.5 -74.5t73.5 -29.5q45 0 74.5 30.5t29.5 73.5q0 45 -30.5 76t-73.5 31t-73.5 -31t-30.5 -76z" />
<glyph unicode="&#xe1f;" horiz-adv-x="1376" d="M53 1028q0 86 60.5 145.5t142.5 59.5t142.5 -59.5t60.5 -145.5v-643q0 -86 -15 -215q18 92 56 225l223 813h106l224 -813q45 -170 57 -225q-16 147 -16 215v1337h110v-1722h-135l-293 1069l-293 -1069h-135v848q-41 -23 -92 -23q-86 0 -144.5 60.5t-58.5 142.5zM152 1028 q0 -45 30.5 -74.5t73.5 -29.5q45 0 74.5 30.5t29.5 73.5q0 45 -30.5 76t-73.5 31t-73.5 -31t-30.5 -76z" />
<glyph unicode="&#xe20;" horiz-adv-x="1308" d="M74 176q0 82 57 142.5t143 60.5q31 0 74 -17q-18 145 -18 218q0 141 123 221q-82 37 -164 37q-45 0 -58 -2q14 168 144.5 282.5t316.5 114.5q203 0 324 -112.5t121 -307.5v-813h-111v801q0 152 -93 243t-243 91q-113 0 -208 -63.5t-128 -149.5q164 -16 250 -136 q-166 -57 -166 -225q0 -102 19.5 -210.5t19.5 -166.5q0 -88 -53 -148.5t-150 -60.5q-86 0 -143 59.5t-57 141.5zM172 176q0 -45 29.5 -73.5t72.5 -28.5q45 0 75 29.5t30 72.5q0 45 -31 75t-74 30t-72.5 -30t-29.5 -75z" />
<glyph unicode="&#xe21;" horiz-adv-x="1230" d="M53 1028q0 86 60.5 145.5t142.5 59.5t142.5 -59.5t60.5 -145.5v-666q309 -109 489 -247v1093h111v-1208h-119q-246 186 -451 244q10 -31 11 -56q0 -92 -64.5 -152.5t-152.5 -60.5t-149.5 60.5t-61.5 152.5q0 88 59 151.5t152 63.5q39 0 65 -8v453q-41 -23 -92 -23 q-86 0 -144.5 60.5t-58.5 142.5zM152 1028q0 -45 30.5 -74.5t73.5 -29.5q45 0 74.5 30.5t29.5 73.5q0 45 -30.5 76t-73.5 31t-73.5 -31t-30.5 -76zM170 190q0 -47 34 -79.5t79 -32.5q49 0 81.5 33.5t32.5 78.5q0 49 -33.5 82t-80.5 33q-45 0 -79 -32.5t-34 -82.5z" />
<glyph unicode="&#xe22;" horiz-adv-x="1155" d="M129 961q0 123 69.5 197.5t192.5 74.5q80 0 128 -52.5t48 -123.5q0 -74 -46 -123t-130 -49q-115 0 -160 100q-4 -29 -4 -49q0 -86 53.5 -156.5t141.5 -70.5h176v-105h-178q-72 0 -117 -50t-45 -128v-143q0 -205 309 -205q305 0 305 205v925h111v-934q0 -299 -416 -299 q-420 0 -420 299v158q0 74 43 136.5t103 86.5q-164 72 -164 306zM293 1057q0 -37 21.5 -66.5t74.5 -29.5q45 0 71.5 26.5t26.5 69.5q0 45 -27.5 71.5t-70.5 26.5q-45 0 -70.5 -27.5t-25.5 -70.5z" />
<glyph unicode="&#xe23;" horiz-adv-x="991" d="M78 905q18 328 299 328q55 0 183 -33t169 -33q31 0 59 72l97 -25q-45 -149 -158 -149q-55 0 -185 35t-185.5 35t-102.5 -47.5t-51 -98.5q307 -51 443 -124.5t136 -172.5v-514q0 -82 -55 -142.5t-147 -60.5q-86 0 -144.5 60.5t-58.5 142.5q0 86 60.5 145.5t142.5 59.5 q51 0 92 -23v324q0 125 -594 221zM475 178q0 -45 31 -74.5t74 -29.5q45 0 74.5 30.5t29.5 73.5q0 45 -30.5 75t-73.5 30q-45 0 -75 -31t-30 -74z" />
<glyph unicode="&#xe24;" horiz-adv-x="1163" d="M80 838q25 172 161 283.5t310 111.5q203 0 321.5 -111.5t118.5 -304.5v-1433h-110v1421q0 158 -92.5 244t-243.5 86q-104 0 -198.5 -60.5t-133.5 -152.5q188 -16 244 -134q-74 -14 -128.5 -80.5t-54.5 -144.5v-201q51 23 93 23q88 0 147 -61.5t59 -145.5 q0 -88 -61 -145.5t-145 -57.5q-88 0 -145.5 58.5t-57.5 144.5v383q0 168 155 244q-80 33 -239 33zM268 176q0 -43 29 -72.5t74 -29.5t74.5 29.5t29.5 72.5q0 45 -30.5 75t-73.5 30q-45 0 -74 -31t-29 -74z" />
<glyph unicode="&#xe25;" horiz-adv-x="1173" d="M66 911q20 139 156.5 230.5t320.5 91.5q195 0 326.5 -96.5t131.5 -255.5v-881h-110v526q0 102 -99.5 164t-236.5 62q-123 0 -210 -67t-87 -171v-154q45 23 102 23q88 0 145.5 -60.5t57.5 -144.5q0 -82 -57 -142.5t-146 -60.5q-96 0 -154.5 61.5t-58.5 145.5v332 q0 152 116 249t282 97q217 0 346 -123v150q0 104 -104.5 176t-237.5 72q-137 0 -243.5 -62.5t-133.5 -161.5h-106zM256 176q0 -43 28.5 -72.5t71.5 -29.5q47 0 77 29.5t30 72.5t-30 74t-77 31q-43 0 -71.5 -31t-28.5 -74z" />
<glyph unicode="&#xe26;" horiz-adv-x="1308" d="M74 176q0 82 57 142.5t143 60.5q31 0 74 -17q-18 145 -18 218q0 141 123 221q-82 37 -164 37q-45 0 -58 -2q14 168 144.5 282.5t316.5 114.5q203 0 324 -112.5t121 -307.5v-1429h-111v1417q0 152 -93 243t-243 91q-113 0 -208 -63.5t-128 -149.5q164 -16 250 -136 q-166 -57 -166 -225q0 -102 19.5 -210.5t19.5 -166.5q0 -90 -60.5 -149.5t-142.5 -59.5q-86 0 -143 59.5t-57 141.5zM172 176q0 -45 29.5 -73.5t72.5 -28.5q45 0 75 29.5t30 72.5q0 45 -31 75t-74 30t-72.5 -30t-29.5 -75z" />
<glyph unicode="&#xe27;" horiz-adv-x="1030" d="M31 911q68 322 420 322q174 0 291.5 -92t117.5 -262v-701q0 -82 -59.5 -142.5t-145.5 -60.5q-82 0 -142 59.5t-60 143.5q0 86 60 145.5t142 59.5q53 0 95 -23v500q0 274 -306 275q-242 0 -299 -224h-114zM551 178q0 -45 30.5 -74.5t73.5 -29.5q45 0 76 30.5t31 73.5 t-31 74t-76 31t-74.5 -31t-29.5 -74z" />
<glyph unicode="&#xe28;" horiz-adv-x="1210" d="M102 786q0 199 134.5 323t338.5 124q127 0 244 -53q111 98 117 145h141q-12 -74 -166 -203q127 -102 127 -284v-838h-110v829q0 133 -109 218q-25 -23 -157 -119q109 -43 108 -172q0 -78 -52 -129.5t-126 -51.5q-92 0 -146 72q-47 -74 -91 -201t-44 -245v-201h-110v283 q0 82 -49.5 251.5t-49.5 251.5zM215 799q0 -66 30.5 -191t30.5 -127q57 311 211 430l242 193q-74 31 -160 31q-143 0 -248.5 -97.5t-105.5 -238.5zM494 756q0 -43 27.5 -70t66.5 -27q43 0 69.5 28t26.5 69q0 39 -26.5 66.5t-69.5 27.5q-41 0 -67.5 -27.5t-26.5 -66.5z" />
<glyph unicode="&#xe29;" horiz-adv-x="1347" d="M53 1028q0 86 60.5 145.5t142.5 59.5t142.5 -59.5t60.5 -145.5v-758q0 -193 303 -192.5t303 192.5v226q-88 -20 -150 -21q-141 0 -246.5 76t-105.5 188q0 74 49 120t117 46q72 0 121 -46t49 -120q0 -109 -106 -157q35 -20 122 -21q82 0 150 31v616h113v-555 q72 53 118 142l68 -58q-45 -88 -186 -198v-277q0 -287 -414 -287q-416 0 -416 287v586q-41 -23 -92 -23q-86 0 -144.5 60.5t-58.5 142.5zM152 1028q0 -45 30.5 -74.5t73.5 -29.5q45 0 74.5 30.5t29.5 73.5q0 45 -30.5 76t-73.5 31t-73.5 -31t-30.5 -76zM647 739 q0 -37 24.5 -60.5t57.5 -23.5q37 0 62.5 25t25.5 59q0 37 -26.5 61.5t-61.5 24.5q-33 0 -57.5 -25.5t-24.5 -60.5z" />
<glyph unicode="&#xe2a;" horiz-adv-x="1173" d="M66 911q20 139 156 230.5t321 91.5q172 0 317 -90q63 72 82 172h111q-23 -125 -117 -244q66 -84 65 -190v-881h-110v502q0 102 -99.5 163.5t-236.5 61.5q-123 0 -210 -66.5t-87 -171.5v-129q45 23 102 23q88 0 145.5 -60.5t57.5 -144.5q0 -82 -57 -142.5t-146 -60.5 q-96 0 -154.5 61.5t-58.5 145.5v307q0 152 116 249.5t282 97.5h18q145 121 236 221q-115 78 -250 78q-137 0 -243.5 -62.5t-133.5 -161.5h-106zM256 176q0 -43 28.5 -72.5t71.5 -29.5q47 0 77 29.5t30 72.5t-30 74t-77 31q-43 0 -71.5 -31t-28.5 -74zM678 819 q129 -30 213 -108v176q0 41 -29 98q-86 -92 -184 -166z" />
<glyph unicode="&#xe2b;" horiz-adv-x="1314" d="M53 1028q0 86 60.5 145.5t142.5 59.5t142.5 -59.5t60.5 -145.5v-668q0 -39 -15 -190l68 135l250 459q45 80 100 108q-74 57 -74 156q0 86 60.5 145.5t142.5 59.5q86 0 145.5 -61.5t59.5 -143.5q0 -115 -102 -174q49 -51 49 -188v-666h-111v666q0 141 -74 141 q-45 0 -110 -109l-397 -698h-103v848q-41 -23 -92 -23q-86 0 -144.5 60.5t-58.5 142.5zM152 1028q0 -45 30.5 -74.5t73.5 -29.5q45 0 74.5 30.5t29.5 73.5q0 45 -30.5 76t-73.5 31t-73.5 -31t-30.5 -76zM887 1028q0 -45 30.5 -74.5t73.5 -29.5q45 0 75 30.5t30 73.5 q0 45 -31 76t-74 31t-73.5 -31t-30.5 -76z" />
<glyph unicode="&#xe2c;" horiz-adv-x="1396" d="M53 1028q0 86 60.5 145.5t142.5 59.5t142.5 -59.5t60.5 -145.5v-727q0 -59 -8 -149q20 61 51 131l227 432h107l227 -432q25 -57 59 -131q-6 98 -6 149v547q-41 -23 -94 -23q-82 0 -142.5 59.5t-60.5 143.5q0 86 60.5 145.5t142.5 59.5q47 0 94 -25q61 27 76 119h141 q-27 -115 -135 -197q29 -57 29 -102v-1028h-137l-308 600l-307 -600h-127v848q-41 -23 -92 -23q-86 0 -144.5 60.5t-58.5 142.5zM152 1028q0 -45 30.5 -74.5t73.5 -29.5q45 0 74.5 30.5t29.5 73.5q0 45 -30.5 76t-73.5 31t-73.5 -31t-30.5 -76zM918 1028q0 -45 30.5 -74.5 t73.5 -29.5q45 0 75.5 30.5t30.5 73.5q0 45 -31.5 76t-74.5 31t-73.5 -31t-30.5 -76z" />
<glyph unicode="&#xe2d;" horiz-adv-x="1191" d="M80 911q31 147 162 234.5t321 87.5q197 0 327 -97.5t130 -256.5v-617q-6 -287 -414 -287q-406 0 -405 287v379q0 82 58 142.5t144 60.5t144.5 -60.5t58.5 -142.5q0 -84 -54 -143.5t-149 -59.5q-53 0 -92 21v-172q0 -209 301 -209q297 0 297 209v573q0 125 -100 200 t-252 75q-133 0 -239.5 -64.5t-127.5 -159.5h-110zM299 641q0 -45 30.5 -74.5t73.5 -29.5q45 0 75 30.5t30 73.5q0 45 -31 74.5t-74 29.5q-45 0 -74.5 -30.5t-29.5 -73.5z" />
<glyph unicode="&#xe2e;" horiz-adv-x="1144" d="M115 1010q0 109 125 167t292 58q233 0 373 -152q51 84 53 152h117q-23 -125 -123 -240q20 -41 21 -123v-598q0 -299 -410 -299q-416 0 -416 299v287q0 82 59.5 142.5t143.5 60.5q86 0 145.5 -60.5t59.5 -142.5q0 -76 -47 -140.5t-158 -64.5q-51 0 -92 23v-92 q0 -209 305 -209q299 0 299 211v626q-133 -90 -405 -90q-342 1 -342 185zM225 1010q0 -86 238 -86q229 0 379 73q-35 59 -124.5 101.5t-187.5 42.5q-113 0 -209 -34t-96 -97zM246 561q0 -45 30.5 -74.5t73.5 -29.5q47 0 77 30.5t30 73.5t-30 74t-77 31q-45 0 -74.5 -31 t-29.5 -74z" />
<glyph unicode="&#xe2f;" horiz-adv-x="1204" d="M166 1034q0 84 58 141.5t138 57.5q84 0 141.5 -58.5t57.5 -140.5q0 -68 -43 -119q168 57 211 293h113q184 0 184 -192v-1016h-111v1008q0 96 -96 102q-106 -303 -356 -303q-164 0 -230.5 69.5t-66.5 157.5zM270 1038q0 -39 24.5 -64.5t65.5 -25.5t67 24.5t26 65.5 q0 39 -26 65.5t-67 26.5q-47 0 -68.5 -29.5t-21.5 -62.5z" />
<glyph unicode="&#xe30;" horiz-adv-x="1097" d="M96 317q0 82 59.5 139.5t137.5 57.5q82 0 139 -59.5t57 -137.5q0 -106 -88 -163q49 -13 76 -13q164 6 252 107.5t94 275.5h111q-6 -211 -125 -344t-313 -133q-172 0 -286 69.5t-114 200.5zM96 971q0 82 59.5 139t137.5 57q82 0 139 -59t57 -137q0 -106 -88 -164 q49 -12 76 -12q164 6 252 107.5t94 275.5h111q-6 -211 -126 -345.5t-312 -134.5q-170 0 -285 71t-115 202zM190 317q0 -43 27 -69.5t70 -26.5q45 0 71.5 26.5t26.5 69.5q0 45 -27.5 72t-70.5 27t-70 -27t-27 -72zM190 971q0 -43 27 -70t70 -27q45 0 71.5 27t26.5 70 q0 45 -27.5 71.5t-70.5 26.5t-70 -26.5t-27 -71.5z" />
<glyph unicode="&#xe31;" d="M-723 1698q0 82 59.5 139t137.5 57q82 0 139 -58t57 -136q0 -104 -92 -166q39 -8 115 -8q145 2 240.5 109.5t101.5 271.5h117q-4 -213 -140.5 -345t-341.5 -132q-180 0 -286.5 72.5t-106.5 195.5zM-629 1704q0 -45 31 -71.5t72 -26.5q39 0 68.5 26.5t29.5 71.5 q0 43 -29.5 71.5t-68.5 28.5q-41 0 -72 -28.5t-31 -71.5z" />
<glyph unicode="&#xe32;" horiz-adv-x="972" d="M74 905q4 127 101 227.5t259 100.5q104 0 180 -29.5t114 -79t55.5 -100.5t17.5 -106v-918h-111v922q0 94 -69.5 153.5t-188.5 59.5q-115 0 -176 -75t-68 -155h-114z" />
<glyph unicode="&#xe33;" horiz-adv-x="972" d="M-500 1657q0 100 70 169q70 68 168 68q102 0 168 -70q66 -71 65 -167q0 -100 -68 -167q-69 -67 -165 -67q-100 0 -169 67t-69 167zM-397 1657q0 -57 40 -94t95 -37q53 0 93 37t40 94t-40 96t-93 39q-57 0 -96 -40t-39 -95zM74 905q4 127 101 228q97 100 259 100 q104 0 180 -30t114 -79t55 -100t18 -106v-918h-111v922q0 94 -69 153q-70 59 -189 60q-115 0 -176 -75t-68 -155h-114z" />
<glyph unicode="&#xe34;" d="M-1063 1509q4 158 124 253.5t290 95.5q416 0 495 -457q-356 127 -665 127q-111 -1 -244 -19zM-936 1606q57 8 143 8q300 0 519 -94q-135 248 -373 247q-215 0 -289 -161z" />
<glyph unicode="&#xe35;" d="M-1063 1509q4 158 124 253.5t290 95.5q246 0 375 -164v299h102v-508q12 -39 18 -84q-356 127 -665 127q-111 -1 -244 -19zM-936 1606q57 8 143 8q300 0 519 -94q-135 248 -373 247q-215 0 -289 -161z" />
<glyph unicode="&#xe36;" d="M-1063 1509q4 158 124 253.5t290 95.5q166 0 287 -80q-10 27 -11 49q0 63 45 107t107 44q63 0 106 -45t43 -106q0 -63 -44 -107.5t-105 -44.5q-16 0 -41 6q78 -111 108 -280q-356 127 -665 127q-111 0 -244 -19zM-936 1606q57 8 143 8q300 0 519 -94q-135 248 -373 247 q-215 0 -289 -161zM-301 1827q0 -37 22.5 -58.5t57.5 -21.5q33 0 56.5 22.5t23.5 57.5t-23.5 57.5t-56.5 22.5q-37 0 -58.5 -22.5t-21.5 -57.5z" />
<glyph unicode="&#xe37;" d="M-1063 1509q4 158 124 253.5t290 95.5q72 0 129 -13v148h100v-185q84 -39 146 -114v299h102v-508q12 -39 18 -84q-356 127 -665 127q-111 -1 -244 -19zM-936 1606q57 8 143 8q300 0 519 -94q-135 248 -373 247q-215 0 -289 -161z" />
<glyph unicode="&#xe38;" d="M-500 -311q0 72 48 118t116 46q72 0 118 -48.5t46 -115.5v-404h-109v250q-27 -10 -55 -10q-72 0 -118 48t-46 116zM-416 -307q0 -35 22.5 -58.5t57.5 -23.5t57.5 23.5t22.5 58.5q0 33 -22.5 56.5t-57.5 23.5t-57.5 -23.5t-22.5 -56.5z" />
<glyph unicode="&#xe39;" d="M-823 -311q0 72 48 118t116 46q72 0 117.5 -48.5t45.5 -115.5v-277q0 -72 106.5 -71.5t106.5 71.5v428h111v-403q0 -193 -223 -193q-209 0 -209 187v104q-27 -10 -55 -10q-72 0 -118 48t-46 116zM-739 -307q0 -37 23.5 -59.5t56.5 -22.5q35 0 57 23.5t22 58.5 q0 33 -22.5 56.5t-57 23.5t-57 -23.5t-22.5 -56.5z" />
<glyph unicode="&#xe3a;" d="M-311 -213q0 35 24.5 57.5t59.5 22.5q33 0 56.5 -22.5t23.5 -57.5t-24 -58.5t-56 -23.5q-37 0 -60.5 24.5t-23.5 57.5z" />
<glyph unicode="&#xe3f;" horiz-adv-x="1265" d="M231 96v1262q176 41 281 41h20v213h103v-219q344 -45 344 -328q0 -205 -197 -291q86 -33 168 -114.5t82 -208.5q0 -324 -397 -373v-260h-103v250h-49q-109 0 -252 28zM348 182q62 -16 160 -16q178 0 296 70.5t118 209.5q0 137 -106.5 206t-285.5 69h-182v-539zM348 823 h215q145 0 224 69t79 171q0 68 -32.5 117t-88 73.5t-113 35.5t-120.5 11q-57 0 -164 -22v-455z" />
<glyph unicode="&#xe40;" horiz-adv-x="624" d="M164 190v1043h110v-860q44 24 99 24q88 0 147.5 -61.5t59.5 -145.5q0 -88 -61.5 -148t-145.5 -60q-94 0 -151.5 59t-57.5 149zM268 190q0 -45 31 -74.5t74 -29.5q45 0 74.5 30.5t29.5 73.5q0 45 -30.5 75t-73.5 30q-45 0 -75 -31t-30 -74z" />
<glyph unicode="&#xe41;" horiz-adv-x="1161" d="M164 190v1043h110v-860q44 24 99 24q88 0 147.5 -61.5t59.5 -145.5q0 -88 -61.5 -148t-145.5 -60q-94 0 -151.5 59t-57.5 149zM268 190q0 -45 31 -74.5t74 -29.5q45 0 74.5 30.5t29.5 73.5q0 45 -30.5 75t-73.5 30q-45 0 -75 -31t-30 -74zM696 190v1043h111v-860 q43 24 98 24q88 0 147.5 -61.5t59.5 -145.5q0 -88 -61.5 -148t-145.5 -60q-92 0 -150.5 61t-58.5 147zM801 190q0 -45 30.5 -74.5t73.5 -29.5q45 0 75 30.5t30 73.5q0 45 -31 75t-74 30q-45 0 -74.5 -31t-29.5 -74z" />
<glyph unicode="&#xe42;" horiz-adv-x="729" d="M-121 1716q14 289 285 289q43 0 160.5 -47t146.5 -47q55 0 68 76l92 -25q-43 -154 -144 -154q-45 0 -164.5 51.5t-168.5 51.5q-133 0 -144 -115q367 -109 367 -342v-1087q43 24 98 24q88 0 148.5 -61.5t60.5 -145.5q0 -88 -62.5 -148.5t-146.5 -60.5q-98 0 -154.5 62.5 t-56.5 146.5v1282q0 86 -130 166t-255 84zM373 184q0 -45 29.5 -74.5t72.5 -29.5q45 0 76 30.5t31 73.5t-31 74t-76 31q-41 0 -71.5 -31t-30.5 -74z" />
<glyph unicode="&#xe43;" horiz-adv-x="745" d="M-129 1724q0 121 85 210t245 89q111 0 198.5 -67.5t87.5 -177.5q0 -59 -48 -178t-48 -177v-1056q44 24 103 24q82 0 143 -59.5t61 -147.5t-61.5 -148.5t-142.5 -60.5q-94 0 -153.5 59.5t-59.5 149.5v1260q0 55 46 171t46 144q0 80 -51.5 128t-131.5 48q-113 0 -174 -71 q10 2 33 2q72 0 116 -48.5t44 -119.5q0 -74 -49 -122t-117 -48q-61 0 -116.5 45t-55.5 151zM-47 1698q0 -37 23.5 -61.5t64.5 -24.5q37 0 61.5 24.5t24.5 61.5q0 35 -23.5 60.5t-62.5 25.5q-45 0 -66.5 -29t-21.5 -57zM389 184q0 -43 28.5 -73.5t71.5 -30.5t76 29.5t33 74.5 t-33 75t-76 30q-39 0 -69.5 -31t-30.5 -74z" />
<glyph unicode="&#xe44;" horiz-adv-x="751" d="M-109 2048h97q51 -276 59 -403l252 372q39 -2 68.5 -35.5t29.5 -70.5v-1544q44 24 103 24q82 0 143.5 -59.5t61.5 -147.5t-61.5 -148.5t-143.5 -60.5q-94 0 -153.5 59.5t-59.5 149.5v1667l-221 -319l-103 37q-14 199 -72 479zM391 184q0 -45 31 -74.5t74 -29.5 q45 0 74.5 30.5t29.5 73.5q0 45 -30.5 75t-73.5 30q-45 0 -75 -31t-30 -74z" />
<glyph unicode="&#xe45;" horiz-adv-x="630" d="M-268 905q4 127 101 227.5t259 100.5q104 0 180 -29.5t114 -79t55.5 -100.5t17.5 -106v-1534h-111v1538q0 94 -69.5 153.5t-188.5 59.5q-115 0 -176 -75t-68 -155h-114z" />
<glyph unicode="&#xe46;" horiz-adv-x="1228" d="M188 887q0 299 283 385l152 -101l141 101q264 -100 264 -348v-1448h-113v1448q0 158 -141 243l-145 -110l-170 114q-129 -55 -148 -192q47 31 97 31q82 0 136 -55.5t54 -135.5t-54 -134t-136 -54q-86 0 -153 65.5t-67 190.5zM317 819q0 -41 26 -65.5t65 -24.5t65.5 25.5 t26.5 64.5q0 41 -27 66.5t-65 25.5q-41 0 -66 -25.5t-25 -66.5z" />
<glyph unicode="&#xe47;" d="M-899 1657q0 242 262 241h203q152 0 160 222h104q0 -74 -20.5 -139.5t-84 -119t-163.5 -53.5h-211q-150 0 -150 -141q0 -68 35 -121q76 86 158 99q55 -49 149 -111q-2 16 -2 41q0 61 41.5 102t104.5 41t105 -43t42 -100q0 -68 -47 -112t-111 -44q-127 0 -294 133 q-84 -29 -158 -135q-123 78 -123 240zM-383 1575q0 -29 19.5 -48.5t50.5 -19.5q27 0 47 19.5t20 48.5q0 27 -20.5 47t-46.5 20q-29 0 -49.5 -20t-20.5 -47z" />
<glyph unicode="&#xe48;" d="M-274 2095v342h102v-342h-102z" />
<glyph unicode="&#xe49;" d="M-573 2419q0 63 44.5 110t112.5 47q63 0 105.5 -45t48.5 -112q0 -152 -139 -254q365 31 417 379h113q-39 -242 -193.5 -350.5t-443.5 -108.5h-55v59q98 43 143 121q-61 0 -107 43t-46 111zM-494 2418.5q0 -30.5 20.5 -51t53.5 -20.5q31 0 51.5 20.5t20.5 51.5 q0 33 -20.5 53t-51.5 20t-52.5 -21.5t-21.5 -52z" />
<glyph unicode="&#xe4a;" d="M-924 2277q0 115 72 202t172 87l74 -92l67 92q92 -4 146.5 -63.5t54.5 -151.5q0 -112 -70 -182q72 6 139.5 100t67.5 268h99q-10 -459 -443 -458v67q123 66 123 199q0 104 -102 135l-86 -96l-86 96q-31 -4 -70 -30.5t-51 -67.5q29 12 59 12q66 0 110 -45t44 -112.5 t-45 -110.5t-109 -43q-90 0 -128 57.5t-38 136.5zM-831 2234.5q0 -30.5 20 -51t53 -20.5q31 0 51.5 20.5t20.5 50.5q0 33 -20.5 53.5t-51 20.5t-52 -21.5t-21.5 -52z" />
<glyph unicode="&#xe4b;" d="M-434 2216v86h164v131h94v-131h164v-86h-164v-121h-94v121h-164z" />
<glyph unicode="&#xe4c;" d="M-549 2097q0 205 211 262l135 41q74 25 74 86h94q-6 -70 -54 -112.5t-104.5 -55t-114 -28t-71.5 -31.5q66 -6 109 -51t43 -111q0 -70 -46 -112.5t-112 -42.5q-70 0 -117 45t-47 110zM-463 2095q0 -31 23.5 -55.5t56.5 -24.5t55.5 24.5t22.5 55.5t-22.5 55.5t-55.5 24.5 t-56.5 -24.5t-23.5 -55.5z" />
<glyph unicode="&#xe4d;" d="M-500 1656.5q0 100.5 70 169t168 68.5q102 0 167.5 -70.5t65.5 -166.5q0 -100 -68.5 -167t-164.5 -67q-100 0 -169 66.5t-69 167zM-397 1657q0 -57 40 -94t95 -37q53 0 93 36.5t40 94t-40 96.5t-93 39q-57 0 -96 -40t-39 -95z" />
<glyph unicode="&#xe4e;" d="M-610 1589q0 78 60.5 130.5t139.5 52.5q-61 39 -61 116q0 178 238 178q84 0 137 -20l-27 -78q-55 16 -115 17q-141 0 -141 -97q0 -102 154 -121l-27 -69q-37 12 -74 12q-90 0 -142 -39t-52 -84q0 -84 137 -84q43 0 100 25l2 -78q-59 -25 -141 -25q-80 0 -134 46t-54 118z " />
<glyph unicode="&#xe4f;" horiz-adv-x="1384" d="M172 502q0 213 149.5 366.5t370.5 153.5q215 0 368.5 -152.5t153.5 -367.5q0 -223 -152.5 -371.5t-369.5 -148.5q-225 0 -372.5 152.5t-147.5 367.5zM281 502q0 -178 116.5 -297t294.5 -119t296 123t118 293t-118 291.5t-296 121.5q-176 0 -293.5 -120.5t-117.5 -292.5z M389 502q0 129 90 217t213 88q129 0 217 -89t88 -216q0 -125 -88 -216t-217 -91q-127 0 -215 90t-88 217zM496 502q0 -84 57 -140.5t139 -56.5q86 0 142.5 57.5t56.5 139.5q0 80 -57.5 138t-141.5 58t-140 -58t-56 -138z" />
<glyph unicode="&#xe50;" horiz-adv-x="1382" d="M117 444.5q0 186.5 148.5 325.5t424.5 139q262 0 419 -133t157 -332q0 -188 -148.5 -327.5t-427 -139.5t-426 140.5t-147.5 327zM231 444q0 -164 127 -265t328 -101q221 0 339 108.5t118 257.5q0 158 -124 263.5t-333 105.5t-332 -106.5t-123 -262.5z" />
<glyph unicode="&#xe51;" horiz-adv-x="1382" d="M111 414q0 236 163.5 363.5t384.5 127.5q139 0 250 -34.5t176.5 -88t109.5 -125t60.5 -139t16.5 -135.5q0 -281 -150 -442h-137q176 145 176 419q0 61 -13 121t-49 120.5t-91.5 106.5t-144.5 74.5t-201 28.5q-182 0 -311.5 -111.5t-129.5 -289.5q0 -150 86 -243t223 -93 q174 0 250 159q-59 -25 -106 -24q-90 0 -147.5 57.5t-57.5 143.5q0 92 64.5 149t146.5 57q109 0 166 -70.5t57 -172.5q0 -63 -18.5 -126t-60.5 -127.5t-125 -104.5t-197 -40q-174 0 -282.5 125.5t-108.5 313.5zM561 410q0 -55 32 -86t85 -31t87 32.5t34 84.5q0 53 -35 86.5 t-86 33.5t-84 -33.5t-33 -86.5z" />
<glyph unicode="&#xe52;" horiz-adv-x="1382" d="M49 1309v108q188 -16 189 -200v-803q0 -348 491 -348q442 0 442 368q0 135 -23.5 224.5t-51 119t-58.5 29.5q-66 0 -106.5 -52.5t-46.5 -125.5h-72q-25 182 -154 182q-150 0 -170 -149q23 12 78 12q76 0 133.5 -55.5t57.5 -135.5q0 -78 -58.5 -134t-132.5 -56 q-82 0 -144.5 65.5t-62.5 198.5q0 147 75 247.5t218 100.5q137 0 197 -147q49 147 178 147q43 0 82 -19.5t79 -65.5t64.5 -141t24.5 -228q0 -487 -551 -488q-598 0 -598 465v789q0 90 -80 92zM465 483q0 -39 29.5 -69.5t72.5 -30.5t72 30.5t29 69.5q0 43 -29 73t-72 30 q-41 0 -71.5 -30t-30.5 -73z" />
<glyph unicode="&#xe53;" horiz-adv-x="1382" d="M104 414q0 492 361 491q207 0 291 -194q71 194 239 194q133 0 208 -86t75 -231v-588h-107v580q0 100 -46 166.5t-130 66.5q-74 0 -128 -77t-54 -169v-567h-115v569q0 94 -75.5 169t-165.5 75q-98 0 -170 -91t-72 -282q0 -47 10 -104q47 66 146 65q84 0 141 -62.5 t57 -143.5q0 -86 -58 -143.5t-157 -57.5q-125 0 -187.5 123t-62.5 297zM240 197q0 -51 33.5 -84t82.5 -33t84 32.5t35 84t-34.5 84t-84.5 32.5q-51 0 -83.5 -33.5t-32.5 -82.5z" />
<glyph unicode="&#xe54;" horiz-adv-x="1382" d="M90 422q0 236 159 362.5t423 126.5q293 0 397 47q197 92 238 318h104q-72 -324 -311 -420q-115 -45 -432 -45q-455 0 -455 -397q0 -158 78 -252t221 -94q174 0 338 47q-367 96 -367 336q0 88 60.5 145t146.5 57q92 0 147.5 -58t55.5 -144q0 -70 -45 -127.5t-105 -67.5 q78 -53 295 -105.5t295 -95.5l-55 -90q-164 76 -274 76q-53 0 -225.5 -33t-284.5 -33q-188 0 -296 122t-108 325zM575 451q0 -49 34 -84t81 -35q49 0 82 35.5t33 83.5q0 49 -32 82.5t-83 33.5q-49 0 -82 -34.5t-33 -81.5z" />
<glyph unicode="&#xe55;" horiz-adv-x="1382" d="M90 422q0 238 160 363.5t428 125.5q-121 53 -121 183q0 84 58.5 142t140.5 58t140 -58t58 -142q0 -127 -116 -179q164 12 231 43q197 92 238 318h104q-72 -324 -311 -420q-115 -45 -432 -45q-455 0 -455 -397q0 -158 78 -252t221 -94q174 0 338 47q-367 96 -367 336 q0 88 60.5 145t146.5 57q92 0 147.5 -58t55.5 -144q0 -70 -45 -127.5t-105 -67.5q78 -53 295 -105.5t295 -95.5l-55 -90q-164 76 -274 76q-53 0 -225.5 -33t-284.5 -33q-188 0 -296 122t-108 325zM575 451q0 -49 34 -84t81 -35q49 0 82 35.5t33 83.5q0 49 -32 82.5t-83 33.5 q-49 0 -82 -34.5t-33 -81.5zM649 1094q0 -41 32 -73t75 -32q45 0 75.5 31t30.5 74t-30.5 75.5t-75.5 32.5t-76 -32.5t-31 -75.5z" />
<glyph unicode="&#xe56;" horiz-adv-x="1382" d="M55 1276h133q115 -217 119 -500q165 129 398 129q143 0 252.5 -28.5t172 -72.5t101.5 -103.5t52 -114t13 -111.5q0 -500 -612 -500q-135 0 -232.5 28t-144.5 74t-67.5 91t-20.5 94q0 90 59.5 148.5t147.5 58.5q90 0 147.5 -59.5t57.5 -147.5q0 -119 -94 -176 q92 -12 174 -12q256 4 364.5 105.5t108.5 289.5q0 154 -124 248t-331 94q-326 0 -496 -231q-18 465 -178 696zM307 262q0 -55 33 -86t86 -31t86 32t33 85q0 51 -33 86t-86 35t-86 -35t-33 -86z" />
<glyph unicode="&#xe57;" horiz-adv-x="1382" d="M74 403q0 231 81 366.5t216 135.5q168 0 233 -194q47 195 215 194q262 0 262 -381q0 -205 -77 -401q186 43 186 502q0 537 39 651h114q-53 -131 -53 -461v-143q0 -440 -125 -557q-123 -121 -293 -121h-16q117 309 117 530q0 289 -160 289q-61 0 -106 -75.5t-45 -170.5 v-145h-117v147q0 92 -55.5 168t-118.5 76q-84 0 -136.5 -101.5t-52.5 -265.5q0 -74 8 -114q45 70 142 69q88 0 147.5 -62.5t59.5 -148.5q0 -82 -60.5 -141t-146.5 -59q-133 0 -195.5 116.5t-62.5 296.5zM219 190q0 -43 34 -77.5t79 -34.5q51 0 86 32.5t35 79.5q0 55 -36 88 t-85 33q-45 0 -79 -35.5t-34 -85.5z" />
<glyph unicode="&#xe58;" horiz-adv-x="1382" d="M98 438q0 467 557 467q49 0 124 -6t108 -6q135 0 204.5 71.5t69.5 258.5v53h109v-62q0 -428 -367 -428q-57 0 -146 6.5t-126 6.5q-123 0 -209 -34t-129 -89t-60.5 -110.5t-17.5 -114.5q0 -223 74 -297q127 172 286 231q45 -86 173.5 -192.5t222.5 -106.5q117 0 176 84 q-66 -10 -70 -10q-86 0 -145.5 59.5t-59.5 147.5t59.5 147t145.5 59q90 0 148.5 -60t58.5 -146q0 -383 -305 -383q-225 0 -430 266q-41 -18 -132 -121.5t-104 -157.5q-215 106 -215 467zM965 366.5q0 -49.5 33.5 -82t78.5 -32.5q49 0 82 33.5t33 81.5q0 49 -34 81.5 t-81 32.5q-45 0 -78.5 -32.5t-33.5 -82z" />
<glyph unicode="&#xe59;" horiz-adv-x="1382" d="M80 444q0 205 115.5 335t287.5 130q176 0 287 -153q12 150 121 149q23 0 106.5 -47t112.5 -47q98 0 98 174q0 168 -24 291h92q25 -158 24 -281q0 -285 -165 -284q-31 0 -129.5 50t-102.5 50q-45 0 -61 -115q27 -160 165 -346t277 -301l-57 -84q-125 98 -274.5 305 t-215.5 377q-25 55 -93.5 110.5t-156.5 55.5q-106 0 -201.5 -107.5t-95.5 -277.5q0 -86 46.5 -178t111.5 -135q-12 33 -12 75q0 86 59.5 145.5t141 59.5t142 -59.5t60.5 -145.5t-61.5 -143t-149.5 -57q-127 0 -219 41t-139 111.5t-68.5 144t-21.5 157.5zM422 190 q0 -45 33 -78.5t82 -33.5q47 0 79.5 33.5t32.5 78.5q0 49 -33.5 82t-78.5 33q-49 0 -82 -33.5t-33 -81.5z" />
<glyph unicode="&#xe5a;" horiz-adv-x="1607" d="M166 1034q0 84 58 141.5t138 57.5q84 0 141.5 -58.5t57.5 -140.5q0 -68 -43 -119q168 57 211 293h113q184 0 184 -192v-45q84 80 115 237h110q184 0 185 -192v-1016h-111v1008q0 96 -96 102q-68 -205 -203 -272v-838h-111v1008q0 96 -96 102q-106 -303 -356 -303 q-164 0 -230.5 69.5t-66.5 157.5zM270 1038q0 -39 24.5 -64.5t65.5 -25.5t67 24.5t26 65.5q0 39 -26 65.5t-67 26.5q-47 0 -68.5 -29.5t-21.5 -62.5z" />
<glyph unicode="&#xe5b;" horiz-adv-x="2146" d="M238 563q0 221 90 352.5t272 131.5q141 0 220 -85t79 -233q0 -145 -62.5 -238.5t-177.5 -93.5q-70 0 -117.5 51.5t-47.5 118.5q0 70 46 120t119 50q82 0 134 -63v6q6 31 6 76q0 197 -189 196q-135 0 -198.5 -112.5t-63.5 -290.5q0 -172 85 -272.5t216 -100.5 q193 0 285 137.5t92 370.5q0 90 -10 145q172 -33 231 -327q29 92 29 172q0 59 -25 149q129 -37 226 -268q14 72 14 113q0 35 -14 114q133 -37 196 -258q31 41 31 107q0 33 -10 84q18 -4 72.5 -47t128 -80t151.5 -37h14q-59 -33 -125 -33q-104 0 -180 76q-18 -145 -86 -168 q-20 0 -42.5 53t-45 118t-37.5 81q0 -283 -84 -283q-14 0 -33.5 54.5t-42 122t-41.5 90.5q-18 -301 -116 -302q-12 0 -34 64.5t-45.5 141.5t-37.5 96q0 -588 -461 -588q-195 0 -303 134t-108 355zM573 567q0 -37 25.5 -61.5t60.5 -24.5q33 0 59.5 25.5t26.5 60.5 q0 33 -25.5 59.5t-60.5 26.5q-37 0 -61.5 -26.5t-24.5 -59.5z" />
<glyph unicode="&#x2000;" horiz-adv-x="1288" />
<glyph unicode="&#x2001;" horiz-adv-x="2576" />
<glyph unicode="&#x2002;" horiz-adv-x="1288" />
<glyph unicode="&#x2003;" horiz-adv-x="2576" />
<glyph unicode="&#x2004;" horiz-adv-x="858" />
<glyph unicode="&#x2005;" horiz-adv-x="644" />
<glyph unicode="&#x2006;" horiz-adv-x="429" />
<glyph unicode="&#x2007;" horiz-adv-x="429" />
<glyph unicode="&#x2008;" horiz-adv-x="322" />
<glyph unicode="&#x2009;" horiz-adv-x="515" />
<glyph unicode="&#x200a;" horiz-adv-x="143" />
<glyph unicode="&#x200b;" />
<glyph unicode="&#x200c;" />
<glyph unicode="&#x200d;" />
<glyph unicode="&#x200e;" />
<glyph unicode="&#x200f;" />
<glyph unicode="&#x2010;" horiz-adv-x="663" d="M61 508v102h539v-102h-539z" />
<glyph unicode="&#x2011;" horiz-adv-x="663" d="M61 508v102h539v-102h-539z" />
<glyph unicode="&#x2012;" horiz-adv-x="663" d="M61 508v102h539v-102h-539z" />
<glyph unicode="&#x2013;" horiz-adv-x="1107" d="M66 508v102h974v-102h-974z" />
<glyph unicode="&#x2014;" horiz-adv-x="2217" d="M68 508v102h2072v-102h-2072z" />
<glyph unicode="&#x2018;" horiz-adv-x="759" d="M225 1149q0 92 30 173t74 134t78.5 85t63.5 46l47 -53q-174 -111 -186 -277l16 3q43 0 77 -33t34 -78q0 -51 -34 -86t-81 -35q-49 0 -84 35t-35 86z" />
<glyph unicode="&#x2019;" horiz-adv-x="759" d="M225 1044q172 111 185 277l-15 -2q-47 0 -79.5 34t-32.5 77q0 51 33.5 85.5t80.5 34.5q53 0 87 -33.5t34 -86.5q0 -92 -28.5 -173t-72.5 -134.5t-80 -84t-67 -47.5z" />
<glyph unicode="&#x201a;" horiz-adv-x="759" d="M225 -289q172 111 185 277q-16 -4 -21 -4q-57 0 -81.5 35.5t-24.5 76.5q0 49 33.5 84t80.5 35q53 0 87 -32.5t34 -86.5q0 -92 -28.5 -174t-71.5 -134t-80 -83t-68 -47z" />
<glyph unicode="&#x201c;" horiz-adv-x="1138" d="M240 1149q0 119 54 223.5t104.5 149.5t88.5 65l45 -53q-172 -111 -184 -277l14 3q47 0 80 -34t33 -77q0 -51 -33.5 -86t-81.5 -35q-51 0 -85.5 36t-34.5 85zM598 1149q0 92 29.5 173t73.5 134t79 85t64 46l47 -53q-174 -111 -186 -277l16 3q43 0 76.5 -33t33.5 -78 q0 -51 -33.5 -86t-80.5 -35q-49 0 -84 35t-35 86z" />
<glyph unicode="&#x201d;" horiz-adv-x="1138" d="M240 1044q174 111 186 277l-16 -2q-43 0 -77 32.5t-34 78.5q0 51 34 85.5t81 34.5q53 0 85.5 -33.5t32.5 -86.5q0 -92 -29.5 -174t-73.5 -135.5t-79 -83t-63 -46.5zM598 1044q172 111 184 277l-14 -2q-47 0 -80 33.5t-33 77.5q0 51 34 85.5t81 34.5q53 0 87 -32.5 t34 -87.5q0 -92 -28.5 -173t-73 -134.5t-80 -84t-66.5 -47.5z" />
<glyph unicode="&#x201e;" horiz-adv-x="1138" d="M240 -289q174 111 186 277q-16 -4 -23 -4q-55 0 -79.5 34.5t-24.5 77.5q0 49 34 84t81 35q53 0 85.5 -34t32.5 -85q0 -170 -82.5 -282.5t-162.5 -155.5zM598 -289q172 111 184 277q-16 -4 -20 -4q-57 0 -82 35.5t-25 76.5q0 49 34 84t81 35q53 0 87 -32.5t34 -86.5 q0 -92 -28.5 -174t-71.5 -134t-80 -83t-68 -47z" />
<glyph unicode="&#x2020;" horiz-adv-x="1150" d="M121 891v100l399 -12v481h111v-481l401 12v-100l-401 12v-1007h-111v1007z" />
<glyph unicode="&#x2021;" horiz-adv-x="1150" d="M121 344v102l399 -12v469l-399 -12v100l399 -12v481h111v-481l401 12v-100l-401 12v-469l401 12v-102l-401 12v-460h-111v460z" />
<glyph unicode="&#x2022;" horiz-adv-x="663" d="M74 616q0 106 73.5 182t184 76t185.5 -76.5t75 -181.5q0 -111 -76 -185.5t-184 -74.5q-106 0 -182 75t-76 185z" />
<glyph unicode="&#x2026;" horiz-adv-x="1474" d="M141 86q0 43 30 76t75 33t76.5 -33t31.5 -76q0 -45 -32.5 -74.5t-75.5 -29.5q-45 0 -75 30.5t-30 73.5zM635 86q0 43 29.5 76t74.5 33t77 -33t32 -76q0 -45 -33 -74.5t-76 -29.5q-45 0 -74.5 30.5t-29.5 73.5zM1124 86q0 43 30 76t75 33t76.5 -33t31.5 -76 q0 -45 -32.5 -74.5t-75.5 -29.5q-45 0 -75 30.5t-30 73.5z" />
<glyph unicode="&#x202f;" horiz-adv-x="515" />
<glyph unicode="&#x2030;" horiz-adv-x="2551" d="M104 1028q0 438 330 438t330 -438q0 -436 -330 -436t-330 436zM215 1028q0 -338 219 -338t219 338q0 340 -219 340t-219 -340zM383 -29l893 1495h104l-893 -1495h-104zM1022 428q0 438 329.5 438t329.5 -438t-329.5 -438t-329.5 438zM1135 428q0 -338 217 -338 q219 0 219 338q0 340 -219 340q-217 0 -217 -340zM1786 428q0 438 329.5 438t329.5 -438t-329.5 -438t-329.5 438zM1898 428q0 -338 218 -338q219 0 219 338q0 340 -219 340q-217 0 -218 -340z" />
<glyph unicode="&#x2032;" horiz-adv-x="385" d="M47 1143l117 323h168l-203 -323h-82z" />
<glyph unicode="&#x2033;" horiz-adv-x="657" d="M47 1143l117 323h168l-203 -323h-82zM319 1143l119 323h168l-203 -323h-84z" />
<glyph unicode="&#x2039;" horiz-adv-x="563" d="M35 545l338 407h129l-338 -407l342 -398h-129z" />
<glyph unicode="&#x203a;" horiz-adv-x="563" d="M59 147l342 398l-340 407h129l340 -407l-342 -398h-129z" />
<glyph unicode="&#x2044;" horiz-adv-x="497" d="M-111 0l611 1466h110l-610 -1466h-111z" />
<glyph unicode="&#x205f;" horiz-adv-x="644" />
<glyph unicode="&#x20a3;" horiz-adv-x="1107" d="M-41 289v96h225v1081h830v-102h-709v-557h662v-102h-662v-320h412v-96h-412v-289h-121v289h-225z" />
<glyph unicode="&#x20ab;" horiz-adv-x="1234" d="M72 -238h1083v-94h-1083v94zM86 537q0 236 127 384t344 148q266 0 397 -221v465h-399v100h399v143h121v-143h148v-100h-148v-1057q0 -184 8 -256h-110q-6 80 -6 184q-141 -213 -392 -213q-227 0 -358 156t-131 410zM203 532q0 -458 389 -458q154 0 258 97t104 249v174 q0 176 -114.5 277.5t-259.5 101.5q-178 0 -277.5 -122t-99.5 -319z" />
<glyph unicode="&#x20ac;" horiz-adv-x="1249" d="M0 463v98h86q-14 86 -14 176q0 78 8 135h-80v99h102q61 229 238.5 373.5t427.5 144.5q233 0 399 -78l-37 -98q-164 70 -356 69q-197 0 -342 -114.5t-205 -296.5h774v-99h-798q-8 -57 -8 -139q0 -92 18 -172h788v-98h-761q66 -168 209 -273.5t325 -105.5q193 0 356 70 l37 -99q-166 -78 -399 -78q-242 0 -414 134.5t-239 351.5h-115z" />
<glyph unicode="&#x2113;" horiz-adv-x="643" d="M68 629l151 104v389q0 258 160 258q96 0 136 -69.5t40 -163.5q0 -330 -231 -479v-465q0 -98 61 -99q53 0 166 78v-114q-145 -78 -201 -78q-131 0 -131 217v399l-96 -63zM324 795q133 121 133 329q0 160 -72 160q-61 0 -61 -162v-327z" />
<glyph unicode="&#x2122;" horiz-adv-x="1554" d="M43 1430v86h629v-86h-269v-685h-92v685h-268zM690 745l53 771h101l252 -650l254 650h100l53 -771h-96l-37 611l-240 -611h-67l-240 611l-37 -611h-96z" />
<glyph unicode="&#x2126;" horiz-adv-x="1394" d="M109 0v102h356v181q-115 45 -217.5 187t-102.5 341q0 274 152 419.5t399.5 145.5t399 -145.5t151.5 -419.5q0 -199 -101.5 -340t-217.5 -188v-181h356v-102h-467v354q311 147 311 465q0 201 -120.5 327t-311 126t-311.5 -126t-121 -327q0 -317 311 -465v-354h-466z" />
<glyph unicode="&#x212e;" horiz-adv-x="962" d="M96 616q0 162 38 280t100.5 176t126 85t128.5 27q197 0 285 -164t94 -422h-649q2 -111 14.5 -195t41 -161.5t83 -119.5t131.5 -42q100 0 164 65.5t84 171.5h113q-74 -340 -361 -340q-393 0 -393 639zM221 686h537q-29 395 -269 395q-236 0 -268 -395z" />
<glyph unicode="&#x2153;" horiz-adv-x="1650" d="M92 1239l219 193q66 -6 66 -86v-699h131v-74h-375v74h135v619l-116 -101zM348 -29l875 1467h102l-874 -1467h-103zM1026 59l45 99q72 -59 164 -60q113 0 178.5 57.5t65.5 151.5q0 137 -129 137q-86 0 -136 -43l-43 76q18 12 48 32.5t44.5 31t37 27t34 26.5t26.5 23.5 t23.5 23.5t15.5 23.5t10 25.5t3 25q0 61 -100 61q-137 0 -178 -135l-91 45q82 193 277 193t195 -162q0 -57 -43 -114.5t-97 -78.5q205 -31 205 -213q0 -150 -99.5 -232.5t-244.5 -82.5q-129 0 -211 63z" />
<glyph unicode="&#x2154;" horiz-adv-x="1650" d="M49 573q2 55 45 124t88 117t126 128t114 115q80 82 80 166q0 133 -131 133q-147 0 -164 -170l-105 18q12 113 80.5 179.5t177.5 66.5q115 0 182.5 -60.5t67.5 -166.5q0 -127 -166 -299l-241 -256h415l-12 -95h-557zM348 -29l875 1467h102l-874 -1467h-103zM1026 59l45 99 q72 -59 164 -60q113 0 178.5 57.5t65.5 151.5q0 137 -129 137q-86 0 -136 -43l-43 76q18 12 48 32.5t44.5 31t37 27t34 26.5t26.5 23.5t23.5 23.5t15.5 23.5t10 25.5t3 25q0 61 -100 61q-137 0 -178 -135l-91 45q82 193 277 193t195 -162q0 -57 -43 -114.5t-97 -78.5 q205 -31 205 -213q0 -150 -99.5 -232.5t-244.5 -82.5q-129 0 -211 63z" />
<glyph unicode="&#x2155;" horiz-adv-x="1650" d="M92 1239l219 193q66 -6 66 -86v-699h131v-74h-375v74h135v619l-116 -101zM348 -29l875 1467h102l-874 -1467h-103zM1010 66l43 75q104 -61 192 -61q86 0 159 56.5t73 162.5q0 84 -61.5 124t-131.5 40q-68 0 -113 -62l-65 -4l29 459h421l-12 -94h-309l-14 -201q20 6 41 6 h45q127 0 200.5 -79.5t73.5 -186.5q0 -145 -96 -234.5t-252 -89.5q-141 0 -223 89z" />
<glyph unicode="&#x2156;" horiz-adv-x="1650" d="M49 573q2 55 45 124t88 117t126 128t114 115q80 82 80 166q0 133 -131 133q-147 0 -164 -170l-105 18q12 113 80.5 179.5t177.5 66.5q115 0 182.5 -60.5t67.5 -166.5q0 -127 -166 -299l-241 -256h415l-12 -95h-557zM348 -29l875 1467h102l-874 -1467h-103zM1010 66l43 75 q104 -61 192 -61q86 0 159 56.5t73 162.5q0 84 -61.5 124t-131.5 40q-68 0 -113 -62l-65 -4l29 459h421l-12 -94h-309l-14 -201q20 6 41 6h45q127 0 200.5 -79.5t73.5 -186.5q0 -145 -96 -234.5t-252 -89.5q-141 0 -223 89z" />
<glyph unicode="&#x2157;" horiz-adv-x="1650" d="M109 629l45 98q72 -59 163 -59q113 0 178.5 58t65.5 153q0 135 -129 135q-88 0 -137 -43l-43 76q178 123 211 159.5t33 77.5q0 61 -101 62q-141 0 -180 -136l-88 47q82 190 276 191q195 0 195 -160q0 -57 -43 -114.5t-96 -79.5q203 -31 203 -213q0 -129 -85 -221.5 t-268 -92.5q-125 0 -200 62zM348 -29l875 1467h102l-874 -1467h-103zM1010 66l43 75q104 -61 192 -61q86 0 159 56.5t73 162.5q0 84 -61.5 124t-131.5 40q-68 0 -113 -62l-65 -4l29 459h421l-12 -94h-309l-14 -201q20 6 41 6h45q127 0 200.5 -79.5t73.5 -186.5 q0 -145 -96 -234.5t-252 -89.5q-141 0 -223 89z" />
<glyph unicode="&#x2158;" horiz-adv-x="1650" d="M98 795q2 133 53.5 286.5t159 276.5t240.5 127v-588h135l-6 -102h-129v-191h-107v191h-346zM213 897h231v455q-82 -70 -153.5 -212.5t-77.5 -242.5zM348 -29l875 1467h102l-874 -1467h-103zM1010 66l43 75q104 -61 192 -61q86 0 159 56.5t73 162.5q0 84 -61.5 124 t-131.5 40q-68 0 -113 -62l-65 -4l29 459h421l-12 -94h-309l-14 -201q20 6 41 6h45q127 0 200.5 -79.5t73.5 -186.5q0 -145 -96 -234.5t-252 -89.5q-141 0 -223 89z" />
<glyph unicode="&#x2159;" horiz-adv-x="1650" d="M92 1239l219 193q66 -6 66 -86v-699h131v-74h-375v74h135v619l-116 -101zM313 -29l877 1467h100l-874 -1467h-103zM1001 305q0 217 139.5 383t350.5 199l4 -82q-121 -35 -220 -120t-145 -191q66 55 177 55q92 0 168.5 -68.5t76.5 -216.5q0 -119 -69.5 -199.5 t-186.5 -80.5q-143 0 -219 91t-76 230zM1110 264q0 -82 48 -133t124 -51q90 0 128 56.5t38 127.5q0 84 -45 139.5t-121 55.5t-124 -54.5t-48 -140.5z" />
<glyph unicode="&#x215a;" horiz-adv-x="1650" d="M84 643l43 78q96 -61 190 -62q88 0 160 57.5t72 162.5q0 76 -58.5 118.5t-134.5 42.5q-66 0 -112 -61l-66 -2l29 459h422l-13 -97h-309l-14 -198q20 6 41 6h45q127 0 200.5 -80t73.5 -186q0 -145 -95 -234.5t-253 -89.5q-137 0 -221 86zM313 -29l877 1467h100l-874 -1467 h-103zM1001 305q0 217 139.5 383t350.5 199l4 -82q-121 -35 -220 -120t-145 -191q66 55 177 55q92 0 168.5 -68.5t76.5 -216.5q0 -119 -69.5 -199.5t-186.5 -80.5q-143 0 -219 91t-76 230zM1110 264q0 -82 48 -133t124 -51q90 0 128 56.5t38 127.5q0 84 -45 139.5t-121 55.5 t-124 -54.5t-48 -140.5z" />
<glyph unicode="&#x215b;" horiz-adv-x="1650" d="M92 1239l219 193q66 -6 66 -86v-699h131v-74h-375v74h135v619l-116 -101zM313 -29l877 1467h100l-874 -1467h-103zM1016 238q0 143 131 227q-102 55 -103 172q0 102 68 165.5t178 63.5q113 0 180.5 -63.5t67.5 -165.5q0 -115 -100 -172q127 -72 127 -227 q0 -123 -73 -189.5t-202 -66.5q-127 0 -200.5 67.5t-73.5 188.5zM1118 231q0 -68 48 -109.5t124 -41.5t124 42t48 109q0 59 -41 115.5t-131 63.5q-68 -4 -109.5 -40t-52 -70t-10.5 -69zM1147 643q0 -92 143 -131q78 16 112 57t34 74q0 43 -35 84t-111 41q-72 0 -107.5 -40 t-35.5 -85z" />
<glyph unicode="&#x215c;" horiz-adv-x="1650" d="M109 629l45 98q72 -59 163 -59q113 0 178.5 58t65.5 153q0 135 -129 135q-88 0 -137 -43l-43 76q178 123 211 159.5t33 77.5q0 61 -101 62q-141 0 -180 -136l-88 47q82 190 276 191q195 0 195 -160q0 -57 -43 -114.5t-96 -79.5q203 -31 203 -213q0 -129 -85 -221.5 t-268 -92.5q-125 0 -200 62zM313 -29l877 1467h100l-874 -1467h-103zM1016 238q0 143 131 227q-102 55 -103 172q0 102 68 165.5t178 63.5q113 0 180.5 -63.5t67.5 -165.5q0 -115 -100 -172q127 -72 127 -227q0 -123 -73 -189.5t-202 -66.5q-127 0 -200.5 67.5t-73.5 188.5z M1118 231q0 -68 48 -109.5t124 -41.5t124 42t48 109q0 59 -41 115.5t-131 63.5q-68 -4 -109.5 -40t-52 -70t-10.5 -69zM1147 643q0 -92 143 -131q78 16 112 57t34 74q0 43 -35 84t-111 41q-72 0 -107.5 -40t-35.5 -85z" />
<glyph unicode="&#x215d;" horiz-adv-x="1650" d="M84 643l43 78q96 -61 190 -62q88 0 160 57.5t72 162.5q0 76 -58.5 118.5t-134.5 42.5q-66 0 -112 -61l-66 -2l29 459h422l-13 -97h-309l-14 -198q20 6 41 6h45q127 0 200.5 -80t73.5 -186q0 -145 -95 -234.5t-253 -89.5q-137 0 -221 86zM313 -29l877 1467h100l-874 -1467 h-103zM1016 238q0 143 131 227q-102 55 -103 172q0 102 68 165.5t178 63.5q113 0 180.5 -63.5t67.5 -165.5q0 -115 -100 -172q127 -72 127 -227q0 -123 -73 -189.5t-202 -66.5q-127 0 -200.5 67.5t-73.5 188.5zM1118 231q0 -68 48 -109.5t124 -41.5t124 42t48 109 q0 59 -41 115.5t-131 63.5q-68 -4 -109.5 -40t-52 -70t-10.5 -69zM1147 643q0 -92 143 -131q78 16 112 57t34 74q0 43 -35 84t-111 41q-72 0 -107.5 -40t-35.5 -85z" />
<glyph unicode="&#x215e;" horiz-adv-x="1650" d="M135 1337l47 101h539l-16 -99q-94 -129 -152.5 -244.5t-81 -219t-28 -162t-5.5 -144.5h-114q2 102 9 175t67.5 246t174.5 347h-440zM313 -29l877 1467h100l-874 -1467h-103zM1016 238q0 143 131 227q-102 55 -103 172q0 102 68 165.5t178 63.5q113 0 180.5 -63.5 t67.5 -165.5q0 -115 -100 -172q127 -72 127 -227q0 -123 -73 -189.5t-202 -66.5q-127 0 -200.5 67.5t-73.5 188.5zM1118 231q0 -68 48 -109.5t124 -41.5t124 42t48 109q0 59 -41 115.5t-131 63.5q-68 -4 -109.5 -40t-52 -70t-10.5 -69zM1147 643q0 -92 143 -131 q78 16 112 57t34 74q0 43 -35 84t-111 41q-72 0 -107.5 -40t-35.5 -85z" />
<glyph unicode="&#x2202;" horiz-adv-x="974" d="M86 311q0 250 172 405.5t440 155.5q35 0 64 -4q-6 410 -170 410q-135 0 -207 -213l-102 59q115 270 305 271q299 0 299 -527q0 -244 -54.5 -438t-179.5 -320t-305 -126q-115 0 -188.5 86.5t-73.5 240.5zM219 311q0 -201 164 -200q168 0 279 256q86 193 96 395 q-15 2 -60 2q-225 0 -352 -135t-127 -318z" />
<glyph unicode="&#x2206;" horiz-adv-x="1458" d="M0 0l729 1454l731 -1454h-1460zM197 109h1067l-535 1069z" />
<glyph unicode="&#x220f;" horiz-adv-x="1372" d="M166 -170v1636h1042v-1636h-121v1534h-800v-1534h-121z" />
<glyph unicode="&#x2211;" horiz-adv-x="1265" d="M78 -31l612 703l-612 661v133h1100v-102h-975l604 -655v-80l-604 -697h1020v-102h-1145v139z" />
<glyph unicode="&#x2212;" horiz-adv-x="1265" d="M170 508v102h926v-102h-926z" />
<glyph unicode="&#x221a;" horiz-adv-x="1077" d="M72 709v86h239l203 -674l457 1333h106l-520 -1485h-94l-236 740h-155z" />
<glyph unicode="&#x221e;" horiz-adv-x="1902" d="M164 684q0 53 15.5 103.5t51 100.5t108.5 81.5t175 31.5q201 0 447 -278q192 278 425 278q160 0 257.5 -94t97.5 -260q0 -53 -16.5 -104t-53.5 -101.5t-109.5 -81t-172.5 -30.5q-217 0 -449 280q-184 -281 -422 -280q-160 0 -257 94t-97 260zM258 678q0 -117 69.5 -187.5 t192.5 -70.5q111 0 212.5 83t152.5 177q-211 236 -367 235q-139 0 -199.5 -74.5t-60.5 -162.5zM1020 649q212 -233 366 -233q139 0 199 74.5t60 162.5q0 102 -60.5 180t-202.5 78q-106 0 -207.5 -81.5t-154.5 -180.5z" />
<glyph unicode="&#x222b;" horiz-adv-x="745" d="M-121 -301l17 98q31 -12 86 -12q158 0 182 166l196 1259q41 274 287 275q68 0 109 -8l-23 -97q-10 2 -49 2q-115 0 -159 -48t-56 -130l-199 -1239q-45 -283 -264 -282q-72 0 -127 16z" />
<glyph unicode="&#x2248;" horiz-adv-x="1265" d="M139 231q0 94 27 159t70 93.5t77.5 38.5t71.5 10q70 0 139.5 -30.5t117.5 -66.5t116.5 -66.5t134.5 -30.5q133 0 139 194h96q0 -90 -23.5 -153.5t-62 -93t-76.5 -42t-79 -12.5q-70 0 -139.5 32t-117.5 69t-113.5 68.5t-131.5 31.5q-145 0 -152 -201h-94zM139 641 q0 94 27 158.5t70 93.5t77.5 39t71.5 10q86 0 172 -48t170 -96t166 -48q133 0 139 192h96q0 -90 -23.5 -153.5t-62 -93t-76.5 -42t-79 -12.5q-70 0 -139.5 32t-117.5 68.5t-113.5 68.5t-131.5 32q-145 0 -152 -201h-94z" />
<glyph unicode="&#x2260;" horiz-adv-x="1265" d="M170 313v103h319l146 299h-465v102h514l133 273h125l-135 -273h289v-102h-338l-148 -299h486v-103h-539l-166 -342h-117l166 342h-270z" />
<glyph unicode="&#x2264;" horiz-adv-x="1265" d="M176 49v92h911v-92h-911zM240 539v145l774 367v-117l-666 -324l666 -323v-115z" />
<glyph unicode="&#x2265;" horiz-adv-x="1265" d="M176 49v92h911v-92h-911zM240 172v115l665 323l-665 324v117l774 -367v-145z" />
<glyph unicode="&#x25ca;" horiz-adv-x="1187" d="M102 610l428 617h129l428 -617l-428 -610h-129zM203 610l391 -561l391 561l-391 561z" />
<glyph unicode="&#x25cc;" horiz-adv-x="1230" d="M53 630.5q0 24.5 15.5 42t40.5 17.5t41 -17.5t16 -41.5q0 -55 -57 -56q-25 0 -40.5 15.5t-15.5 40zM92 440q0 25 15 40.5t40 15.5t42.5 -15.5t17.5 -40t-17.5 -41t-42.5 -16.5q-55 0 -55 57zM92 819.5q0 24.5 15 42t40 17.5q27 0 43.5 -17.5t16.5 -42t-17.5 -40 t-42 -15.5t-40 15.5t-15.5 40zM201 270q0 25 15 40.5t40 15.5q27 0 42 -15.5t15 -40t-16 -41t-41 -16.5q-55 0 -55 57zM201 989q0 27 15 42.5t40 15.5t41 -16.5t16 -41.5q0 -55 -57 -55q-25 0 -40 15.5t-15 39.5zM362 164q1 55 58 55q27 0 42 -15.5t15 -40t-16.5 -42 t-41 -17.5t-41 17.5t-16.5 42.5zM362 1096q0 27 15.5 43t42.5 16t42 -16.5t15 -42.5q0 -55 -57 -56q-27 0 -42.5 15.5t-15.5 40.5zM555 127q0 25 16 41t41 16t42.5 -16t17.5 -41q0 -27 -17.5 -43t-42 -16t-41 17t-16.5 42zM555 1134.5q0 24.5 16 41t41 16.5t42.5 -16.5 t17.5 -40.5q0 -27 -17.5 -43.5t-42 -16.5t-41 17.5t-16.5 42zM750 1096q0 27 15 43t42 16q25 0 40 -16.5t15 -42.5q0 -25 -15.5 -40.5t-39.5 -15.5q-27 0 -42 15.5t-15 40.5zM752 163.5q0 24.5 17 40t42 15.5t40 -15.5t15 -40t-15 -42t-40 -17.5q-27 0 -43 17.5t-16 42z M911 989.5q0 24.5 17.5 41t42.5 16.5q55 0 55 -58q0 -25 -15.5 -40t-40 -15t-42 15.5t-17.5 40zM915 270q1 56 58 56q25 0 40 -15.5t15 -40.5q0 -27 -15.5 -42t-40 -15t-41 16.5t-16.5 40.5zM1020 819.5q0 24.5 16 42t41 17.5q31 0 44.5 -19.5t13.5 -40t-13.5 -38 t-44.5 -17.5q-27 0 -42 15.5t-15 40zM1022 440.5q0 24.5 17 40t42 15.5t40.5 -15.5t15.5 -40.5q0 -27 -15.5 -42t-40 -15t-42 16.5t-17.5 41zM1063 630.5q0 24.5 15 42t40 17.5q27 0 43.5 -17.5t16.5 -42t-17.5 -40t-42 -15.5t-40 15.5t-15.5 40z" />
<glyph unicode="&#xe000;" horiz-adv-x="1044" d="M0 0v1044h1044v-1044h-1044z" />
<glyph unicode="&#xf700;" horiz-adv-x="1054" d="M80 903q10 139 107.5 234.5t263.5 95.5q55 0 172.5 -34t169.5 -34q72 0 88 68l96 -23q-49 -160 -178 -159q-61 0 -186.5 36.5t-180.5 36.5q-74 0 -139.5 -42t-71.5 -97q346 -68 498.5 -134.5t152.5 -160.5v-446q0 -272 -247 -273q-242 0 -242 273v157q-35 -12 -78 -12 q-78 0 -130 50t-52 128q0 82 52 135.5t130 53.5q82 0 135.5 -49.5t53.5 -133.5v-340q0 -160 131 -159q137 0 137 159v447q0 39 -79 77t-200 67.5t-219 48t-184 30.5zM225 569q0 -33 22.5 -56.5t57.5 -23.5q33 0 58.5 23t25.5 57.5t-25.5 59t-58.5 24.5q-35 0 -57.5 -24.5 t-22.5 -59.5z" />
<glyph unicode="&#xf701;" d="M-1317 1509q4 158 124 253t290 96q416 0 495 -457q-356 127 -665 127q-111 -1 -244 -19zM-1190 1606q57 8 143 8q300 0 519 -94q-135 248 -373 247q-215 0 -289 -161z" />
<glyph unicode="&#xf702;" d="M-1317 1509q4 158 124 253t290 96q246 0 375 -164v299h102v-508q12 -39 18 -84q-356 127 -665 127q-111 -1 -244 -19zM-1190 1606q57 8 143 8q300 0 519 -94q-135 248 -373 247q-215 0 -289 -161z" />
<glyph unicode="&#xf703;" d="M-1317 1509q4 158 124 253t290 96q166 0 287 -80q-10 27 -11 49q0 63 45 107t107 44q63 0 106 -45t43 -106q0 -63 -44 -108q-44 -44 -105 -44q-16 0 -41 6q78 -111 108 -280q-356 127 -665 127q-111 0 -244 -19zM-1190 1606q57 8 143 8q300 0 519 -94q-135 248 -373 247 q-215 0 -289 -161zM-555 1827q0 -37 23 -59q22 -21 57 -21q33 0 56 22q24 23 24 58t-24 57q-24 23 -56 23q-37 0 -59 -23t-21 -57z" />
<glyph unicode="&#xf704;" d="M-1317 1509q4 158 124 253t290 96q72 0 129 -13v148h100v-185q84 -39 146 -114v299h102v-508q12 -39 18 -84q-356 127 -665 127q-111 -1 -244 -19zM-1190 1606q57 8 143 8q300 0 519 -94q-135 248 -373 247q-215 0 -289 -161z" />
<glyph unicode="&#xf705;" d="M-614 1479v444h114v-444h-114z" />
<glyph unicode="&#xf706;" d="M-915 1851q0 70 49 114q48 44 116 44q76 0 121 -47t45 -125q0 -174 -141 -278q414 31 463 421h127q-43 -266 -218 -388t-491 -122h-61v64q121 49 166 141q-176 23 -176 176zM-825 1843q0 -35 22 -58q23 -24 58 -24q33 0 56 23q24 23 23 59q0 35 -23 58q-24 23 -56 22 q-35 0 -58 -23q-23 -24 -22 -57z" />
<glyph unicode="&#xf707;" d="M-1038 1642q0 115 76 208q77 93 180 94l73 -99l74 99q94 -2 151 -65q56 -62 56 -161q0 -112 -68 -190q76 6 145 107t68 282h105q-14 -481 -463 -481v71q127 61 127 205q0 111 -104 139l-93 -98l-90 102q-25 -4 -69 -35q-45 -32 -54 -65q43 6 56 6q166 -8 166 -166 t-162 -157q-92 0 -133 64q-41 65 -41 140zM-940 1595q0 -33 22 -53q23 -20 56 -20q31 0 52 20q22 20 22 53q0 35 -22 57t-52 21q-33 0 -56 -21q-23 -22 -22 -57z" />
<glyph unicode="&#xf708;" d="M-879 1638v93h177v163h110v-163h176v-93h-176v-172h-110v172h-177z" />
<glyph unicode="&#xf709;" d="M-788 1618q0 215 219 274l143 43q78 29 78 93h98q-8 -96 -86 -142q-78 -45 -168 -62t-106 -38q68 -6 112 -53q45 -47 45 -115q0 -74 -48 -121t-120 -47q-70 0 -118 48q-49 48 -49 120zM-700 1614q0 -33 23 -58q24 -24 61 -24q33 0 58 23q26 24 26 59t-26 59 q-26 25 -58 25q-37 0 -61 -25t-23 -59z" />
<glyph unicode="&#xf70a;" d="M-287 1479v444h115v-444h-115z" />
<glyph unicode="&#xf70b;" d="M-721 1851q0 70 49 114t117 44q76 0 121 -47t45 -125q0 -174 -141 -278q414 31 462 421h127q-43 -266 -218 -388t-490 -122h-62v64q121 49 166 141q-176 23 -176 176zM-631 1843q0 -35 22.5 -58.5t57.5 -23.5q33 0 56.5 22.5t23.5 59.5q0 35 -23.5 57.5t-56.5 22.5 q-35 0 -57.5 -23.5t-22.5 -56.5z" />
<glyph unicode="&#xf70c;" d="M-885 1642q0 115 77 208.5t179 93.5l74 -99l74 99q94 -2 150.5 -64.5t56.5 -161.5q0 -112 -68 -190q76 6 144.5 107.5t68.5 281.5h104q-14 -481 -462 -481v71q127 61 127 205q0 111 -105 139l-92 -98l-90 102q-25 -4 -70 -35.5t-53 -64.5q43 6 55 6q166 -8 166 -166 t-162 -157q-92 0 -133 64.5t-41 139.5zM-786 1595q0 -33 22 -53t55 -20q31 0 52.5 20.5t21.5 52.5q0 35 -21.5 56.5t-52.5 21.5q-33 0 -55 -21.5t-22 -56.5z" />
<glyph unicode="&#xf70d;" d="M-459 1638v93h176v163h111v-163h176v-93h-176v-172h-111v172h-176z" />
<glyph unicode="&#xf70e;" d="M-575 1618q0 215 219 274l143 43q78 29 78 93h98q-8 -96 -86 -141.5t-168 -63t-106 -37.5q68 -6 112.5 -53t44.5 -115q0 -74 -48 -121t-120 -47q-70 0 -118.5 48t-48.5 120zM-487 1614q0 -33 23.5 -57.5t60.5 -24.5q33 0 58.5 23.5t25.5 58.5t-26 59.5t-58 24.5 q-37 0 -60.5 -24.5t-23.5 -59.5z" />
<glyph unicode="&#xf70f;" horiz-adv-x="1597" d="M92 836q29 172 147.5 284.5t292.5 112.5q188 0 296 -104.5t108 -299.5v-583q0 -172 192 -172q186 0 187 172v962h110v-956q0 -276 -301 -277q-299 0 -299 281v561q0 317 -299 318q-104 0 -187 -60.5t-114 -152.5q172 -12 246 -136q-76 -16 -130 -80.5t-54 -144.5v-201 q41 18 92 19q88 0 145.5 -58.5t57.5 -142.5q0 -78 -44 -142.5t-159 -64.5q-92 0 -147.5 57.5t-55.5 153.5v375q0 168 160 244q-92 37 -193 37q-35 0 -51 -2zM276 176q0 -45 30 -73.5t73 -28.5q45 0 74.5 29.5t29.5 72.5q0 45 -30.5 75t-73.5 30t-73 -30t-30 -75z" />
<glyph unicode="&#xf710;" d="M-1053 1698q0 82 60 139q59 57 137 57q82 0 139 -58t58 -136q0 -104 -93 -166q39 -8 115 -8q145 2 241 109q95 108 101 272h117q-4 -213 -140 -345t-341 -132q-180 0 -287 72q-106 73 -107 196zM-958 1704q0 -45 30 -72q31 -26 72 -26q39 0 69 26q30 27 29 72 q0 43 -29 72q-30 29 -69 28q-41 0 -72 -28q-31 -29 -30 -72z" />
<glyph unicode="&#xf711;" d="M-934 1657q0 100 70 169q70 68 168 68q102 0 168 -70q66 -71 65 -167q0 -100 -68 -167q-69 -67 -165 -67q-100 0 -169 67t-69 167zM-831 1657q0 -57 39 -94q41 -37 96 -37q53 0 93 37t40 94t-40 96t-93 39q-57 0 -97 -40q-39 -40 -38 -95z" />
<glyph unicode="&#xf712;" d="M-1143 1657q0 242 262 241h203q152 0 160 222h104q0 -74 -20 -140t-84 -118q-63 -53 -164 -54h-211q-150 0 -149 -141q0 -68 34 -121q76 86 158 99q55 -49 150 -111q-2 16 -2 41q0 61 40 102q42 41 105 41t105 -43t42 -100q0 -68 -47 -112t-110 -44q-127 0 -295 133 q-84 -29 -158 -135q-123 78 -123 240zM-627 1575q0 -29 20 -48q19 -20 50 -20q27 0 47 20q20 19 21 48q0 27 -21 47q-20 20 -47 20q-29 0 -49 -20t-21 -47z" />
<glyph unicode="&#xf713;" d="M-528 2095v342h102v-342h-102z" />
<glyph unicode="&#xf714;" d="M-897 2419q0 63 45 110t113 47q63 0 105 -45t48 -112q0 -152 -139 -254q365 31 418 379h112q-39 -242 -193 -351q-155 -109 -443 -108h-56v59q98 43 144 121q-61 0 -108 43q-46 43 -46 111zM-817 2419q0 -31 20 -52q21 -20 54 -20q31 0 51 20t20 52q0 33 -20 53t-51 20 t-53 -21q-22 -22 -21 -52z" />
<glyph unicode="&#xf715;" d="M-1077 2277q0 115 71 202q72 87 172 87l74 -92l68 92q92 -4 146 -63t54 -152q1 -112 -69 -182q72 6 139 100q68 94 68 268h98q-10 -459 -442 -458v67q123 66 123 199q0 104 -103 135l-86 -96l-86 96q-31 -4 -70 -31t-51 -67q29 12 60 12q66 0 109 -45q44 -45 44 -113 t-45 -110q-45 -43 -108 -43q-90 0 -128 57t-38 137zM-985 2234q0 -31 20 -51q21 -20 54 -20q31 0 51 20t20 51q0 33 -20 54q-20 20 -51 20t-53 -21q-22 -22 -21 -53z" />
<glyph unicode="&#xf716;" d="M-686 2216v86h164v131h94v-131h164v-86h-164v-121h-94v121h-164z" />
<glyph unicode="&#xf717;" d="M-711 2097q0 205 211 262l135 41q74 25 74 86h94q-6 -70 -54 -112q-48 -43 -104 -56q-56 -12 -114 -27q-57 -15 -72 -32q66 -6 109 -51t43 -111q0 -70 -46 -112q-46 -43 -112 -43q-70 0 -117 45t-47 110zM-625 2095q0 -31 24 -55q23 -25 56 -25t56 25t22 55q0 31 -22 55 q-23 25 -56 25t-56 -25q-24 -25 -24 -55z" />
<glyph unicode="&#xf718;" d="M-500 -920q0 72 48 118t116 46q72 0 118 -48t46 -116v-403h-109v250q-27 -10 -55 -10q-72 0 -118 48t-46 115zM-416 -915q0 -35 23 -59q22 -23 57 -23t57 23q23 24 23 59q0 33 -23 56q-23 24 -57 23q-35 0 -57 -23q-23 -24 -23 -56z" />
<glyph unicode="&#xf719;" d="M-823 -922q0 72 48 118t116 46q72 0 117 -48q46 -48 46 -116v-276q0 -72 107 -72q106 0 106 72v428h111v-404q0 -193 -223 -192q-209 0 -209 186v105q-27 -10 -55 -10q-72 0 -118 48t-46 115zM-739 -918q0 -37 23 -59q24 -22 57 -22q35 0 57 23q23 24 22 58q0 33 -22 57 q-23 24 -57 23q-35 0 -58 -23q-23 -24 -22 -57z" />
<glyph unicode="&#xf71a;" d="M-311 -838q0 35 24 58q25 22 60 22q33 0 56 -22q24 -23 24 -58t-24 -58q-24 -24 -56 -24q-37 0 -61 25t-23 57z" />
<glyph unicode="&#xf71b;" horiz-adv-x="1308" d="M74 176q0 82 57 142.5t143 60.5q31 0 74 -17q-18 145 -18 218q0 141 123 221q-82 37 -164 37q-45 0 -58 -2q14 168 144.5 282.5t316.5 114.5q203 0 324 -112.5t121 -307.5v-1475h-123q-23 70 -135.5 145t-212.5 101v-22q0 -102 -59.5 -169t-155.5 -67q-92 0 -145.5 52.5 t-53.5 134.5q0 94 66.5 150t164.5 56q23 0 80 -8q12 113 115 172l84 -49q-92 -57 -96 -147q250 -90 360 -207v1321q0 152 -93 243t-243 91q-113 0 -208 -63.5t-128 -149.5q164 -16 250 -136q-166 -57 -166 -225q0 -102 19.5 -210.5t19.5 -166.5q0 -90 -60.5 -149.5 t-142.5 -59.5q-86 0 -143 59.5t-57 141.5zM172 176q0 -45 29.5 -73.5t72.5 -28.5q45 0 75 29.5t30 72.5q0 45 -31 75t-74 30t-72.5 -30t-29.5 -75zM350 -481q0 -94 103 -94q109 0 108 137q0 22 -6 47q-25 8 -66 8q-139 0 -139 -98z" />
<glyph unicode="&#xf71c;" horiz-adv-x="1308" d="M74 176q0 82 57 142.5t143 60.5q31 0 74 -17q-18 145 -18 218q0 141 123 221q-82 37 -164 37q-45 0 -58 -2q14 168 144.5 282.5t316.5 114.5q203 0 324 -112.5t121 -307.5v-1475h-123l-166 187l-137 -184l-168 184q-4 -92 -61.5 -147.5t-137.5 -55.5q-104 0 -150.5 59.5 t-46.5 131.5q0 88 57.5 143t145.5 55q57 0 103 -22q6 106 127 178l82 -49q-104 -63 -111 -172l151 -160l146 195l178 -201v1321q0 152 -93 243t-243 91q-113 0 -208 -63.5t-128 -149.5q164 -16 250 -136q-166 -57 -166 -225q0 -102 19.5 -210.5t19.5 -166.5 q0 -90 -60.5 -149.5t-142.5 -59.5q-86 0 -143 59.5t-57 141.5zM172 176q0 -45 29.5 -73.5t72.5 -28.5q45 0 75 29.5t30 72.5q0 45 -31 75t-74 30t-72.5 -30t-29.5 -75zM240 -489q0 -92 98 -93q115 0 115 168q-29 29 -93 29q-121 0 -120 -104z" />
<glyph unicode="&#xf71d;" horiz-adv-x="1396" d="M53 1028q0 86 60.5 145.5t142.5 59.5t142.5 -59.5t60.5 -145.5v-727q0 -59 -8 -149q20 61 51 131l227 432h107l227 -432q25 -57 59 -131q-6 98 -6 149v547q-41 -23 -94 -23q-82 0 -142.5 59.5t-60.5 143.5q0 86 60.5 145.5t142.5 59.5q47 0 94 -25q61 27 76 119h141 q-27 -115 -135 -197q29 -57 29 -102v-1028h-137l-308 600l-307 -600h-127v848q-41 -23 -92 -23q-86 0 -144.5 60.5t-58.5 142.5zM152 1028q0 -45 30.5 -74.5t73.5 -29.5q45 0 74.5 30.5t29.5 73.5q0 45 -30.5 76t-73.5 31t-73.5 -31t-30.5 -76zM918 1028q0 -45 30.5 -74.5 t73.5 -29.5q45 0 75.5 30.5t30.5 73.5q0 45 -31.5 76t-74.5 31t-73.5 -31t-30.5 -76z" />
<glyph horiz-adv-x="972" d="M-934 1657q0 100 70 169q70 68 168 68q102 0 168 -70q66 -71 65 -167q0 -100 -68 -167q-69 -67 -165 -67q-100 0 -169 67t-69 167zM-831 1657q0 -57 39 -94q41 -37 96 -37q53 0 93 37t40 94t-40 96t-93 39q-57 0 -97 -40q-39 -40 -38 -95zM74 905q4 127 101 228 q97 100 259 100q104 0 180 -30t114 -79t55 -100t18 -106v-918h-111v922q0 94 -69 153q-70 59 -189 60q-115 0 -176 -75t-68 -155h-114z" />
<glyph d="M-891 1589q0 78 61 130q60 52 140 53q-61 39 -62 116q0 178 238 178q84 0 137 -20l-26 -78q-55 16 -115 17q-141 0 -141 -97q0 -102 153 -121l-26 -69q-37 12 -74 12q-90 0 -143 -39q-52 -39 -52 -84q0 -84 137 -84q43 0 101 25l2 -78q-59 -25 -141 -25q-80 0 -135 46 q-54 46 -54 118z" />
</font>
</defs>
</svg>
